<svg width="32" height="32" viewBox="0 0 32 32" fill="none" xmlns="http://www.w3.org/2000/svg">
<rect width="32" height="32" fill="#212B35"/>
<path d="M9.79891 22L15.6671 16.1365C15.7329 16.0692 15.8115 16.0158 15.8982 15.9793C15.9849 15.9428 16.078 15.924 16.1721 15.924C16.2661 15.924 16.3592 15.9428 16.446 15.9793C16.5327 16.0158 16.6112 16.0692 16.677 16.1365L22.5405 22C23.095 21.9954 23.636 21.8277 24.0958 21.5177C24.5557 21.2078 24.9141 20.7693 25.1265 20.257C25.3388 19.7447 25.3957 19.1813 25.2899 18.6369C25.1842 18.0925 24.9206 17.5913 24.5319 17.1957L18.1623 10.8214C17.633 10.2953 16.9171 10 16.1709 10C15.4246 10 14.7087 10.2953 14.1795 10.8214L7.80988 17.1957C7.42134 17.5911 7.15774 18.0921 7.05193 18.6363C6.94612 19.1805 7.00277 19.7438 7.21483 20.256C7.42689 20.7682 7.78497 21.2066 8.24447 21.5168C8.70397 21.8269 9.24457 21.9949 9.79891 22Z" fill="#E7B900"/>
</svg>
