<svg width="40" height="40" viewBox="0 0 40 40" fill="none" xmlns="http://www.w3.org/2000/svg">
<circle cx="20" cy="20" r="19.5" fill="#F8F8F8" stroke="#E9E9E9"/>
<path d="M24.8775 10.2622C24.2381 10.2621 23.6049 10.388 23.0141 10.6326C22.4233 10.8772 21.8865 11.2358 21.4343 11.6879L10.9165 21.9502C10.6117 22.2733 10.374 22.6536 10.217 23.0691C10.06 23.4847 9.9869 23.9272 10.0019 24.3712C10.0018 25.3143 10.3728 26.2197 11.0346 26.8916C11.6965 27.5636 12.5962 27.9481 13.5392 27.9623C13.991 27.9825 14.4421 27.9107 14.8653 27.7511C15.2884 27.5916 15.6746 27.3477 16.0006 27.0342L26.2763 16.7585C26.6582 16.4097 26.8937 15.9291 26.9353 15.4135C26.9318 14.8724 26.7153 14.3545 26.3327 13.9718C25.95 13.5892 25.4321 13.3727 24.891 13.3691C24.3763 13.4032 23.8945 13.6345 23.546 14.0147L17.09 20.1479C16.9963 20.2456 16.944 20.3757 16.944 20.511C16.944 20.6464 16.9963 20.7765 17.09 20.8742C17.1375 20.9222 17.1941 20.9603 17.2564 20.9862C17.3188 21.0122 17.3856 21.0256 17.4532 21.0256C17.5207 21.0256 17.5876 21.0122 17.6499 20.9862C17.7122 20.9603 17.7688 20.9222 17.8163 20.8742L24.2319 14.7276C24.5144 14.472 24.5951 14.351 24.9044 14.351C25.1522 14.3285 25.3988 14.405 25.5903 14.5638C25.7818 14.7226 25.9027 14.9507 25.9266 15.1983C25.9401 15.2604 25.9401 15.3246 25.9266 15.3866C25.875 15.6448 25.7432 15.8802 25.55 16.0591L15.3146 26.281C15.0818 26.5003 14.8066 26.6695 14.5059 26.7782C14.2051 26.8869 13.8853 26.9329 13.5661 26.9132C12.8918 26.9061 12.2473 26.6342 11.7717 26.1561C11.2961 25.678 11.0276 25.0321 11.0241 24.3577C11.008 24.0502 11.0545 23.7426 11.1608 23.4536C11.2672 23.1646 11.4312 22.9002 11.6428 22.6765L22.1068 12.4142C22.4589 12.0582 22.8777 11.7752 23.3393 11.5813C23.8009 11.3875 24.2962 11.2866 24.7968 11.2844C25.867 11.2844 26.8933 11.7095 27.65 12.4662C28.4067 13.2229 28.8318 14.2492 28.8318 15.3194C28.8465 15.8224 28.7532 16.3228 28.5584 16.7868C28.3635 17.2508 28.0715 17.6677 27.702 18.0093L16.9421 28.7693C16.8944 28.817 16.8566 28.8736 16.8307 28.9359C16.8049 28.9982 16.7917 29.065 16.7917 29.1324C16.7917 29.1999 16.8049 29.2666 16.8307 29.3289C16.8566 29.3913 16.8944 29.4479 16.9421 29.4956C16.9898 29.5433 17.0464 29.5811 17.1087 29.6069C17.171 29.6327 17.2378 29.646 17.3052 29.646C17.3727 29.646 17.4394 29.6327 17.5018 29.6069C17.5641 29.5811 17.6207 29.5433 17.6684 29.4956L28.4283 18.7356C28.889 18.2899 29.2533 17.7544 29.4986 17.1621C29.7438 16.5698 29.8648 15.9334 29.854 15.2925C29.827 13.976 29.2957 12.7202 28.3697 11.7841C27.4436 10.8481 26.1936 10.3033 24.8775 10.2622Z" fill="#212B35"/>
</svg>
