<svg width="20" height="20" viewBox="0 0 20 20" fill="none" xmlns="http://www.w3.org/2000/svg">
<path opacity="0.4" d="M0.804688 13.477C0.804688 13.477 0.946687 15.215 0.979687 15.763C1.02369 16.498 1.30769 17.319 1.78169 17.889C2.45069 18.697 3.23869 18.982 4.29069 18.984C5.52769 18.986 14.5227 18.986 15.7597 18.984C16.8117 18.982 17.5997 18.697 18.2687 17.889C18.7427 17.319 19.0267 16.498 19.0717 15.763C19.1037 15.215 19.2457 13.477 19.2457 13.477" stroke="#212B35" stroke-width="1.5" stroke-linecap="round" stroke-linejoin="round"/>
<path d="M6.49609 3.3295V2.9585C6.49609 1.7385 7.48409 0.750504 8.70409 0.750504H11.2861C12.5051 0.750504 13.4941 1.7385 13.4941 2.9585L13.4951 3.3295" stroke="#212B35" stroke-width="1.5" stroke-linecap="round" stroke-linejoin="round"/>
<path d="M9.99609 14.6782V13.3842" stroke="#212B35" stroke-width="1.5" stroke-linecap="round" stroke-linejoin="round"/>
<path fill-rule="evenodd" clip-rule="evenodd" d="M0.75 6.3891V9.8561C2.668 11.1211 4.966 12.0071 7.488 12.3581C7.79 11.2571 8.783 10.4501 9.99 10.4501C11.178 10.4501 12.191 11.2571 12.473 12.3681C15.005 12.0171 17.312 11.1311 19.24 9.8561V6.3891C19.24 4.6951 17.877 3.3311 16.183 3.3311H3.817C2.123 3.3311 0.75 4.6951 0.75 6.3891Z" stroke="#212B35" stroke-width="1.5" stroke-linecap="round" stroke-linejoin="round"/>
</svg>
