<svg width="26" height="26" viewBox="0 0 26 26" fill="none" xmlns="http://www.w3.org/2000/svg">
<path fill-rule="evenodd" clip-rule="evenodd" d="M12.9947 18.879C12.5462 18.879 12.1822 18.515 12.1822 18.0665V15.3181C12.1822 14.8696 12.5462 14.5056 12.9947 14.5056C13.4432 14.5056 13.8072 14.8696 13.8072 15.3181V18.0665C13.8072 18.515 13.4432 18.879 12.9947 18.879Z" fill="#666666"/>
<mask id="mask0_4513_7462" style="mask-type:alpha" maskUnits="userSpaceOnUse" x="2" y="4" width="22" height="13">
<path fill-rule="evenodd" clip-rule="evenodd" d="M2.16687 4.96167H23.8225V16.1319H2.16687V4.96167Z" fill="white"/>
</mask>
<g mask="url(#mask0_4513_7462)">
<path fill-rule="evenodd" clip-rule="evenodd" d="M3.79187 12.3424C6.36587 13.741 9.61154 14.5069 12.9894 14.5069C16.3737 14.5069 19.6226 13.741 22.1977 12.3424V9.09025C22.1977 7.709 21.0808 6.58667 19.706 6.58667H6.29437C4.9142 6.58667 3.79187 7.70467 3.79187 9.07942V12.3424ZM12.9894 16.1319C9.14895 16.1319 5.4472 15.2024 2.56879 13.5168C2.31962 13.3716 2.16687 13.1051 2.16687 12.8158V9.07942C2.16687 6.80875 4.01829 4.96167 6.29437 4.96167H19.706C21.9767 4.96167 23.8227 6.81309 23.8227 9.09025V12.8158C23.8227 13.1051 23.6689 13.3716 23.4208 13.5168C20.5424 15.2024 16.8374 16.1319 12.9894 16.1319Z" fill="#666666"/>
</g>
<mask id="mask1_4513_7462" style="mask-type:alpha" maskUnits="userSpaceOnUse" x="8" y="2" width="10" height="5">
<path fill-rule="evenodd" clip-rule="evenodd" d="M8.3905 2.16699H17.5988V6.58255H8.3905V2.16699Z" fill="white"/>
</mask>
<g mask="url(#mask1_4513_7462)">
<path fill-rule="evenodd" clip-rule="evenodd" d="M16.7863 6.58266C16.3378 6.58266 15.9738 6.21866 15.9738 5.77016V5.37366C15.9738 4.50158 15.2643 3.79199 14.3922 3.79199H11.5972C10.7251 3.79199 10.0155 4.50158 10.0155 5.37366V5.77016C10.0155 6.21866 9.6515 6.58266 9.203 6.58266C8.7545 6.58266 8.3905 6.21866 8.3905 5.77016V5.37366C8.3905 3.60566 9.82917 2.16699 11.5972 2.16699H14.3922C16.1602 2.16699 17.5988 3.60566 17.5988 5.37366V5.77016C17.5988 6.21866 17.2348 6.58266 16.7863 6.58266Z" fill="#666666"/>
</g>
<path fill-rule="evenodd" clip-rule="evenodd" d="M19.2778 23.5521H6.71111C4.4632 23.5521 2.57061 21.796 2.40053 19.5535L2.1947 16.8354C2.16111 16.388 2.49695 15.9969 2.94436 15.9633C3.39395 15.9471 3.78178 16.2645 3.81645 16.713L4.0212 19.43C4.12736 20.8297 5.3082 21.9271 6.71111 21.9271H19.2778C20.6807 21.9271 21.8626 20.8297 21.9677 19.43L22.1735 16.713C22.2082 16.2645 22.6058 15.946 23.0456 15.9633C23.493 15.9969 23.8278 16.388 23.7942 16.8354L23.5884 19.5535C23.4183 21.796 21.5257 23.5521 19.2778 23.5521Z" fill="#666666"/>
</svg>
