<svg width="35" height="35" viewBox="0 0 35 35" fill="none" xmlns="http://www.w3.org/2000/svg">
<circle cx="17.5" cy="17.5" r="17" fill="#F8F8F8" stroke="#F2F2F2"/>
<path d="M16.5344 22.1015C16.5344 22.7505 16.5434 23.816 16.5434 24H20.1628C20.1628 23.7385 20.1718 22.4502 20.1718 21.4139C20.1718 20.6874 19.9445 20.2225 19.6808 19.9804C21.2995 19.7867 23 19.1281 23 16.1546C23 15.3023 22.7181 14.6146 22.2543 14.0722C22.3271 13.8785 22.5817 13.0842 22.1816 12.0188C22.1816 12.0188 21.5723 11.8058 20.1809 12.8131C19.5989 12.6387 18.9806 12.5515 18.3622 12.5515C17.7438 12.5515 17.1254 12.6387 16.5434 12.8131C15.1521 11.8154 14.5428 12.0188 14.5428 12.0188C14.1427 13.0842 14.3973 13.8785 14.4701 14.0722C14.0063 14.6146 13.7244 15.3119 13.7244 16.1546C13.7244 19.1184 15.4158 19.7867 17.0345 19.9804C16.8254 20.1741 16.6344 20.5131 16.5707 21.0168C16.1524 21.2201 15.1066 21.5495 14.4519 20.3775C14.3155 20.145 13.9063 19.5736 13.3334 19.5833C12.7241 19.593 13.0878 19.9513 13.3425 20.0966C13.6516 20.2806 14.0063 20.9683 14.0881 21.1911C14.2336 21.6269 14.7065 22.4599 16.5344 22.1015Z" fill="#2F2F2F"/>
</svg>
