<svg width="35" height="35" viewBox="0 0 35 35" fill="none" xmlns="http://www.w3.org/2000/svg">
<circle cx="17.5" cy="17.5" r="17" fill="#F8F8F8" stroke="#F2F2F2"/>
<path d="M12.9375 12.9302L13.2943 13.2805L13.2943 13.2805L12.9375 12.9302ZM13.8921 12.3087L14.068 12.7767L14.0707 12.7757L13.8921 12.3087ZM12.9337 12.934L13.2841 13.2908L13.2905 13.2843L12.9337 12.934ZM12.9299 12.9378L13.2802 13.2946L13.2802 13.2945L12.9299 12.9378ZM12.3081 13.8924L12.776 14.0686L12.776 14.0686L12.3081 13.8924ZM12.3063 13.8973L12.7726 14.0777L12.7742 14.0735L12.3063 13.8973ZM12.039 15.3124L11.5395 15.2895L11.5395 15.2899L12.039 15.3124ZM13.8983 12.3063L14.0769 12.7733L14.0795 12.7723L13.8983 12.3063ZM12.9302 23.0704L12.5799 23.4272L12.5799 23.4272L12.9302 23.0704ZM12.934 23.0742L13.2908 22.7238L13.2843 22.7174L12.934 23.0742ZM12.9378 23.078L12.5811 23.4284L12.5811 23.4284L12.9378 23.078ZM13.8924 23.6998L14.0687 23.2319L14.0687 23.2319L13.8924 23.6998ZM13.8978 23.7018L14.0786 23.2357L14.0741 23.234L13.8978 23.7018ZM12.3063 22.1096L12.7733 21.9311L12.7723 21.9284L12.3063 22.1096ZM12.039 20.6956L11.5395 20.7184L11.5395 20.7184L12.039 20.6956ZM15.3123 12.039L15.2895 11.5395L15.2895 11.5395L15.3123 12.039ZM20.6953 12.039L20.7182 11.5395L20.7178 11.5395L20.6953 12.039ZM22.1106 12.3062L21.9303 12.7726L21.9324 12.7734L22.1106 12.3062ZM22.1155 12.3081L21.9372 12.7752L21.9393 12.776L22.1155 12.3081ZM23.0701 12.9299L22.7134 13.2802L22.7134 13.2802L23.0701 12.9299ZM23.0738 12.9337L22.717 13.2841L22.7235 13.2904L23.0738 12.9337ZM23.0776 12.9374L23.428 12.5807L23.4279 12.5806L23.0776 12.9374ZM23.6993 13.8922L23.2313 14.0683L23.2323 14.0708L23.6993 13.8922ZM23.7016 13.8983L23.2346 14.0769L23.2356 14.0795L23.7016 13.8983ZM23.7019 22.1101L23.2357 21.9293L23.2348 21.9316L23.7019 22.1101ZM23.6998 22.1155L23.2328 21.937L23.2319 21.9393L23.6998 22.1155ZM23.0781 23.0701L22.7277 22.7134L22.7277 22.7134L23.0781 23.0701ZM23.0742 23.0739L22.7238 22.7171L22.7174 22.7236L23.0742 23.0739ZM23.0704 23.0777L23.4272 23.428L23.4273 23.428L23.0704 23.0777ZM22.1158 23.6993L21.9399 23.2312L21.9373 23.2322L22.1158 23.6993ZM22.1096 23.7016L21.9311 23.2346L21.9284 23.2356L22.1096 23.7016ZM22.1072 12.3136L21.9251 12.7793L21.9265 12.7798L22.1072 12.3136ZM20.6959 12.0468L20.7188 11.5473L20.7186 11.5473L20.6959 12.0468ZM23.0684 12.9387L23.422 12.5851L23.4216 12.5848L23.0684 12.9387ZM23.6944 13.901L23.2282 14.0816L23.2285 14.0824L23.6944 13.901ZM23.9611 15.312L24.4606 15.2893L24.4606 15.2891L23.9611 15.312ZM23.9611 20.6957L24.4606 20.7186L24.4606 20.7184L23.9611 20.6957ZM23.696 22.1028L23.2301 21.9213L23.2272 21.9289L23.696 22.1028ZM23.0689 23.0688L22.7191 22.7113L22.7114 22.7192L23.0689 23.0688ZM22.1024 23.6962L21.9286 23.2273L21.9216 23.23L22.1024 23.6962ZM20.6959 23.9611L20.7186 24.4606L20.7188 24.4606L20.6959 23.9611ZM15.3122 23.9611L15.2893 24.4606L15.2895 24.4606L15.3122 23.9611ZM13.9051 23.696L14.0866 23.2301L14.079 23.2272L13.9051 23.696ZM12.939 23.0688L13.2965 22.7191L13.2887 22.7115L12.939 23.0688ZM12.3118 22.1024L12.7806 21.9285L12.7779 21.9216L12.3118 22.1024ZM12.0468 20.6959L11.5473 20.7186L11.5473 20.7188L12.0468 20.6959ZM12.0468 15.3122L11.5473 15.2893L11.5473 15.2895L12.0468 15.3122ZM12.3136 13.9007L12.7793 14.0827L12.7799 14.0813L12.3136 13.9007ZM12.936 12.9422L13.2903 13.2951L13.294 13.2912L12.936 12.9422ZM13.9055 12.3117L14.0794 12.7806L14.0864 12.7779L13.9055 12.3117ZM15.312 12.0468L15.2893 11.5473L15.2891 11.5473L15.312 12.0468ZM13.2943 13.2805C13.5127 13.058 13.7768 12.8862 14.068 12.7767L13.7161 11.8406C13.2888 12.0013 12.9012 12.2534 12.5807 12.5799L13.2943 13.2805ZM13.2905 13.2843L13.2943 13.2805L12.5807 12.5799L12.5769 12.5838L13.2905 13.2843ZM13.2802 13.2945L13.2841 13.2908L12.5833 12.5773L12.5795 12.5811L13.2802 13.2945ZM12.776 14.0686C12.8858 13.777 13.0579 13.5129 13.2802 13.2946L12.5795 12.5811C12.2535 12.9012 12.0012 13.2886 11.8402 13.7161L12.776 14.0686ZM12.7742 14.0735L12.776 14.0686L11.8402 13.7161L11.8383 13.721L12.7742 14.0735ZM12.5384 15.3353C12.5658 14.7376 12.6575 14.3752 12.7726 14.0776L11.8399 13.7169C11.6816 14.1261 11.5712 14.5963 11.5395 15.2895L12.5384 15.3353ZM14.0707 12.7757L14.0769 12.7733L13.7197 11.8393L13.7135 11.8416L14.0707 12.7757ZM13.2805 22.7136C13.058 22.4952 12.8862 22.2311 12.7767 21.9399L11.8406 22.2918C12.0013 22.7191 12.2534 23.1067 12.5799 23.4272L13.2805 22.7136ZM13.2843 22.7174L13.2805 22.7136L12.5799 23.4272L12.5838 23.431L13.2843 22.7174ZM13.2946 22.7277L13.2908 22.7239L12.5773 23.4245L12.5811 23.4284L13.2946 22.7277ZM14.0687 23.2319C13.7771 23.1221 13.5129 22.95 13.2945 22.7277L12.5811 23.4284C12.9012 23.7544 13.2886 24.0067 13.7161 24.1677L14.0687 23.2319ZM14.0741 23.234L14.0687 23.2319L13.7161 24.1677L13.7215 24.1697L14.0741 23.234ZM15.3352 23.4695C14.7367 23.4421 14.3751 23.3507 14.0786 23.2357L13.717 24.168C14.1262 24.3267 14.596 24.4367 15.2895 24.4684L15.3352 23.4695ZM12.7723 21.9284C12.6572 21.6325 12.5658 21.2713 12.5384 20.6728L11.5395 20.7184C11.5712 21.4119 11.6812 21.8817 11.8403 22.2909L12.7723 21.9284ZM12.7757 21.9373L12.7733 21.9311L11.8393 22.2882L11.8416 22.2944L12.7757 21.9373ZM12.7999 22.0226L12.7918 21.9799L11.8093 22.1665L11.8174 22.2091L12.7999 22.0226ZM12.7918 21.9799L12.5407 20.658L11.5583 20.8446L11.8093 22.1665L12.7918 21.9799ZM12.5407 20.658L12.5302 20.6023L11.5477 20.7889L11.5583 20.8446L12.5407 20.658ZM14.0795 12.7723C14.3754 12.6572 14.7366 12.5658 15.3351 12.5384L15.2895 11.5395C14.596 11.5712 14.1262 11.6812 13.717 11.8403L14.0795 12.7723ZM18.004 12.5C19.7894 12.5 19.9943 12.5079 20.6728 12.5385L20.7178 11.5395C20.017 11.5079 19.7947 11.5 18.004 11.5V12.5ZM15.3351 12.5384C16.0135 12.5075 16.2182 12.5 18.004 12.5V11.5C16.2135 11.5 15.9908 11.5075 15.2895 11.5395L15.3351 12.5384ZM15.3123 12.539L15.4867 12.539L15.4867 11.539L15.3123 11.539L15.3123 12.539ZM15.4867 12.539L20.5213 12.539L20.5213 11.539L15.4867 11.539L15.4867 12.539ZM20.5213 12.539L20.6953 12.539L20.6953 11.539L20.5213 11.539L20.5213 12.539ZM20.6725 12.5384C21.2703 12.5658 21.6327 12.6575 21.9303 12.7726L22.291 11.8399C21.8818 11.6816 21.4115 11.5712 20.7182 11.5395L20.6725 12.5384ZM21.9324 12.7734L21.9372 12.7752L22.2938 11.841L22.2889 11.8391L21.9324 12.7734ZM21.9393 12.776C22.2309 12.8858 22.495 13.0579 22.7134 13.2802L23.4268 12.5795C23.1067 12.2535 22.7193 12.0012 22.2918 11.8402L21.9393 12.776ZM22.7134 13.2802L22.7171 13.284L23.4305 12.5833L23.4268 12.5795L22.7134 13.2802ZM22.7235 13.2904L22.7273 13.2942L23.4279 12.5806L23.4241 12.5769L22.7235 13.2904ZM22.7273 13.2941C22.9496 13.5125 23.1216 13.7766 23.2313 14.0682L24.1673 13.7161C24.0063 13.2884 23.754 12.9009 23.428 12.5807L22.7273 13.2941ZM23.2323 14.0708L23.2346 14.0769L24.1686 13.7196L24.1663 13.7135L23.2323 14.0708ZM23.2356 14.0795C23.3507 14.3754 23.4421 14.7366 23.4695 15.3351L24.4684 15.2895C24.4367 14.596 24.3267 14.1262 24.1676 13.717L23.2356 14.0795ZM23.4695 20.6728C23.4421 21.2712 23.3507 21.6328 23.2357 21.9293L24.168 22.2909C24.3267 21.8817 24.4367 21.4119 24.4684 20.7184L23.4695 20.6728ZM23.2348 21.9316L23.2328 21.937L24.1669 22.294L24.1689 22.2886L23.2348 21.9316ZM23.2319 21.9393C23.1221 22.2309 22.95 22.495 22.7277 22.7134L23.4284 23.4268C23.7544 23.1067 24.0067 22.7193 24.1677 22.2918L23.2319 21.9393ZM22.7277 22.7134L22.7239 22.7171L23.4246 23.4306L23.4284 23.4268L22.7277 22.7134ZM22.7174 22.7236L22.7136 22.7275L23.4273 23.428L23.431 23.4241L22.7174 22.7236ZM22.7136 22.7274C22.4952 22.9499 22.2311 23.1218 21.9399 23.2312L22.2918 24.1673C22.7191 24.0066 23.1067 23.7545 23.4272 23.428L22.7136 22.7274ZM21.9373 23.2322L21.9311 23.2346L22.2882 24.1687L22.2944 24.1663L21.9373 23.2322ZM21.9284 23.2356C21.6325 23.3507 21.2713 23.4421 20.6728 23.4695L20.7184 24.4684C21.4119 24.4367 21.8817 24.3267 22.2909 24.1676L21.9284 23.2356ZM22.2893 11.8479C21.9456 11.7136 21.4794 11.5822 20.7188 11.5473L20.673 12.5463C21.3248 12.5761 21.6834 12.6848 21.9251 12.7793L22.2893 11.8479ZM23.4216 12.5848C23.0837 12.2475 22.7358 12.021 22.2878 11.8474L21.9265 12.7798C22.2455 12.9034 22.4757 13.0535 22.7152 13.2926L23.4216 12.5848ZM24.1607 13.7204C23.9873 13.2729 23.7609 12.9241 23.422 12.5851L22.7149 13.2923C22.9546 13.532 23.1046 13.7627 23.2282 14.0816L24.1607 13.7204ZM24.4606 15.2891C24.4257 14.527 24.2934 14.0613 24.1604 13.7196L23.2285 14.0824C23.3225 14.3239 23.4318 14.6826 23.4617 15.3349L24.4606 15.2891ZM24.5 18.004C24.5 16.2388 24.4934 16.01 24.4606 15.2893L23.4617 15.3348C23.4934 16.0323 23.5 16.243 23.5 18.004H24.5ZM24.4606 20.7184C24.4934 19.9977 24.5 19.7691 24.5 18.004H23.5C23.5 19.765 23.4934 19.9754 23.4617 20.673L24.4606 20.7184ZM24.1619 22.2843C24.2957 21.9409 24.4259 21.4753 24.4606 20.7186L23.4617 20.6728C23.4319 21.3215 23.3242 21.6799 23.2301 21.9213L24.1619 22.2843ZM23.4185 23.4262C23.7491 23.1028 24.0039 22.7103 24.1648 22.2767L23.2272 21.9289C23.1177 22.224 22.9442 22.4913 22.7192 22.7114L23.4185 23.4262ZM22.2761 24.165C22.71 24.0042 23.1028 23.7492 23.4263 23.4184L22.7114 22.7192C22.4912 22.9444 22.2239 23.1179 21.9286 23.2273L22.2761 24.165ZM20.7188 24.4606C21.4768 24.4259 21.9417 24.2948 22.2832 24.1623L21.9216 23.23C21.6803 23.3236 21.3221 23.4319 20.673 23.4617L20.7188 24.4606ZM18.004 24.5C19.7696 24.5 19.9979 24.4934 20.7186 24.4606L20.6732 23.4617C19.9756 23.4934 19.7654 23.5 18.004 23.5V24.5ZM15.2895 24.4606C16.0102 24.4934 16.2384 24.5 18.004 24.5V23.5C16.2425 23.5 16.0325 23.4934 15.3349 23.4617L15.2895 24.4606ZM13.7236 24.1619C14.067 24.2957 14.5326 24.4259 15.2893 24.4606L15.3351 23.4617C14.6864 23.4319 14.328 23.3242 14.0866 23.2301L13.7236 24.1619ZM12.5816 23.4185C12.905 23.749 13.2976 24.0039 13.7312 24.1648L14.079 23.2272C13.7839 23.1177 13.5166 22.9442 13.2965 22.7192L12.5816 23.4185ZM11.843 22.2763C12.0038 22.71 12.2587 23.1027 12.5894 23.4262L13.2887 22.7115C13.0636 22.4912 12.8901 22.2238 12.7805 21.9285L11.843 22.2763ZM11.5473 20.7188C11.5482 20.7387 11.5492 20.7585 11.5502 20.778L12.5488 20.7246C12.5479 20.7076 12.5471 20.6904 12.5463 20.673L11.5473 20.7188ZM11.5502 20.778C11.5876 21.4765 11.708 21.9202 11.8329 22.2502L12.7682 21.8962C12.6799 21.6629 12.5807 21.3206 12.5488 20.7246L11.5502 20.778ZM11.8329 22.2502C11.8372 22.2614 11.8414 22.2724 11.8456 22.2832L12.7779 21.9216C12.7747 21.9132 12.7714 21.9048 12.7682 21.8962L11.8329 22.2502ZM11.5079 18.004C11.5079 19.6143 11.5134 19.9469 11.5394 20.543L12.5385 20.4994C12.5135 19.9273 12.5079 19.6142 12.5079 18.004H11.5079ZM11.5394 20.543C11.5419 20.5989 11.5445 20.657 11.5473 20.7186L12.5463 20.6732C12.5435 20.6118 12.5409 20.5543 12.5385 20.4994L11.5394 20.543ZM11.5473 15.2895C11.5445 15.3509 11.5419 15.4088 11.5394 15.4645L12.5385 15.5082C12.5409 15.4534 12.5435 15.3961 12.5463 15.3349L11.5473 15.2895ZM11.5394 15.4645C11.5134 16.061 11.5079 16.3931 11.5079 18.004H12.5079C12.5079 16.3933 12.5135 16.0806 12.5385 15.5082L11.5394 15.4645ZM11.848 13.7186C11.7136 14.0623 11.5822 14.5287 11.5473 15.2893L12.5462 15.3351C12.5761 14.6833 12.6848 14.3244 12.7793 14.0827L11.848 13.7186ZM12.5817 12.5894C12.246 12.9264 12.0204 13.2735 11.8474 13.72L12.7799 14.0813C12.9031 13.7634 13.0526 13.5336 13.2902 13.2951L12.5817 12.5894ZM13.7318 11.8429C13.2963 12.0043 12.9021 12.2606 12.5779 12.5932L13.294 13.2912C13.5147 13.0649 13.7829 12.8904 14.0793 12.7806L13.7318 11.8429ZM15.2891 11.5473C14.5311 11.582 14.0662 11.7131 13.7247 11.8456L14.0864 12.7779C14.3276 12.6843 14.6859 12.576 15.3349 12.5463L15.2891 11.5473ZM18.004 11.5079C16.3936 11.5079 16.061 11.5134 15.4649 11.5394L15.5086 12.5385C16.0807 12.5135 16.3938 12.5079 18.004 12.5079V11.5079ZM15.4649 11.5394C15.409 11.5419 15.3509 11.5445 15.2893 11.5473L15.3348 12.5463C15.3961 12.5435 15.4536 12.5409 15.5086 12.5385L15.4649 11.5394ZM20.7186 11.5473C20.6571 11.5445 20.599 11.5419 20.5432 11.5394L20.4995 12.5385C20.5545 12.5409 20.6118 12.5435 20.6732 12.5463L20.7186 11.5473ZM20.5432 11.5394C19.9469 11.5134 19.6144 11.5079 18.004 11.5079V12.5079C19.6143 12.5079 19.9273 12.5135 20.4995 12.5385L20.5432 11.5394ZM12.5 18.004C12.5 16.2185 12.5079 16.0134 12.5385 15.3349L11.5395 15.2899C11.5079 15.9907 11.5 16.2132 11.5 18.004H12.5ZM12.5384 20.6728C12.5075 19.9944 12.5 19.7901 12.5 18.004H11.5C11.5 19.7949 11.5075 20.0171 11.5395 20.7184L12.5384 20.6728ZM12.539 20.6956L12.539 20.5212L11.539 20.5212L11.539 20.6956L12.539 20.6956ZM12.539 20.5212L12.539 15.4864L11.539 15.4864L11.539 20.5212L12.539 20.5212ZM12.539 15.4864L12.539 15.3124L11.539 15.3124L11.539 15.4864L12.539 15.4864Z" fill="#2F2F2F"/>
<path d="M22.1451 15.1196C22.2953 14.9694 22.3797 14.7656 22.3797 14.5531C22.3797 14.3406 22.2953 14.1368 22.1451 13.9866C21.9948 13.8363 21.791 13.7519 21.5785 13.7519C21.366 13.7519 21.1623 13.8363 21.012 13.9866C20.8617 14.1368 20.7773 14.3406 20.7773 14.5531C20.7773 14.7656 20.8617 14.9694 21.012 15.1196C21.1623 15.2699 21.366 15.3543 21.5785 15.3543C21.791 15.3543 21.9948 15.2699 22.1451 15.1196Z" fill="#2F2F2F"/>
<path d="M16.9364 20.582L16.7451 21.0439L16.9364 20.582ZM18.0043 20.7944V21.2944H18.0043L18.0043 20.7944ZM16.0312 19.9771L16.3847 19.6236L16.3847 19.6236L16.0312 19.9771ZM15.4263 19.0718L14.9643 19.2632L14.9643 19.2632L15.4263 19.0718ZM15.4263 16.9361L14.9643 16.7448L14.9643 16.7448L15.4263 16.9361ZM16.9364 15.426L16.7451 14.964L16.7451 14.964L16.9364 15.426ZM16.0249 16.0246L16.3785 16.3782L16.3785 16.3782L16.0249 16.0246ZM16.0249 19.9833L15.6714 20.3369H15.6714L16.0249 19.9833ZM19.9836 19.9833L20.3372 20.3369L20.3372 20.3369L19.9836 19.9833ZM19.9836 16.0246L20.3372 15.6711V15.6711L19.9836 16.0246ZM16.7451 21.0439C17.1443 21.2093 17.5722 21.2944 18.0043 21.2944V20.2944C17.7035 20.2944 17.4057 20.2352 17.1278 20.1201L16.7451 21.0439ZM15.6776 20.3307C15.9832 20.6362 16.3459 20.8786 16.7451 21.0439L17.1278 20.1201C16.8499 20.0049 16.5974 19.8362 16.3847 19.6236L15.6776 20.3307ZM14.9643 19.2632C15.1297 19.6624 15.3721 20.0251 15.6776 20.3307L16.3847 19.6236C16.172 19.4109 16.0033 19.1584 15.8882 18.8805L14.9643 19.2632ZM14.7139 18.004C14.7139 18.4361 14.799 18.864 14.9643 19.2632L15.8882 18.8805C15.7731 18.6026 15.7139 18.3048 15.7139 18.004H14.7139ZM14.9643 16.7448C14.799 17.144 14.7139 17.5719 14.7139 18.004H15.7139C15.7139 17.7032 15.7731 17.4054 15.8882 17.1275L14.9643 16.7448ZM15.6776 15.6773C15.3721 15.9828 15.1297 16.3456 14.9643 16.7448L15.8882 17.1275C16.0033 16.8496 16.172 16.5971 16.3847 16.3844L15.6776 15.6773ZM16.7451 14.964C16.3459 15.1294 15.9832 15.3718 15.6776 15.6773L16.3847 16.3844C16.5974 16.1717 16.8499 16.003 17.1278 15.8879L16.7451 14.964ZM18.0043 14.7136C17.5722 14.7136 17.1443 14.7987 16.7451 14.964L17.1278 15.8879C17.4057 15.7728 17.7035 15.7136 18.0043 15.7136V14.7136ZM20.331 15.6773C19.7139 15.0602 18.877 14.7136 18.0043 14.7136V15.7136C18.6117 15.7136 19.1943 15.9549 19.6239 16.3844L20.331 15.6773ZM21.2947 18.004C21.2947 17.1313 20.948 16.2944 20.331 15.6773L19.6239 16.3844C20.0534 16.8139 20.2947 17.3965 20.2947 18.004H21.2947ZM20.331 20.3307C20.948 19.7136 21.2947 18.8767 21.2947 18.004H20.2947C20.2947 18.6114 20.0534 19.194 19.6239 19.6236L20.331 20.3307ZM18.0043 21.2944C18.877 21.2944 19.7139 20.9477 20.331 20.3307L19.6239 19.6236C19.1943 20.0531 18.6117 20.2944 18.0043 20.2944L18.0043 21.2944ZM16.3785 16.3782C16.8097 15.947 17.3945 15.7048 18.0043 15.7048V14.7048C17.1293 14.7048 16.2901 15.0524 15.6714 15.6711L16.3785 16.3782ZM15.7051 18.004C15.7051 17.3942 15.9473 16.8094 16.3785 16.3782L15.6714 15.6711C15.0527 16.2898 14.7051 17.129 14.7051 18.004H15.7051ZM16.3785 19.6298C15.9473 19.1986 15.7051 18.6138 15.7051 18.004H14.7051C14.7051 18.879 15.0527 19.7182 15.6714 20.3369L16.3785 19.6298ZM18.0043 20.3032C17.3945 20.3032 16.8097 20.061 16.3785 19.6298L15.6714 20.3369C16.2901 20.9556 17.1293 21.3032 18.0043 21.3032V20.3032ZM19.6301 19.6298C19.1989 20.061 18.6141 20.3032 18.0043 20.3032V21.3032C18.8793 21.3032 19.7185 20.9556 20.3372 20.3369L19.6301 19.6298ZM20.3035 18.004C20.3035 18.6138 20.0613 19.1986 19.6301 19.6298L20.3372 20.3369C20.9559 19.7182 21.3035 18.879 21.3035 18.004H20.3035ZM19.6301 16.3782C20.0613 16.8094 20.3035 17.3942 20.3035 18.004H21.3035C21.3035 17.129 20.9559 16.2898 20.3372 15.6711L19.6301 16.3782ZM18.0043 15.7048C18.6141 15.7048 19.1989 15.947 19.6301 16.3782L20.3372 15.6711C19.7185 15.0524 18.8793 14.7048 18.0043 14.7048V15.7048Z" fill="#2F2F2F"/>
</svg>
