<svg width="35" height="35" viewBox="0 0 35 35" fill="none" xmlns="http://www.w3.org/2000/svg">
<circle cx="17.5" cy="17.5" r="17" fill="#F8F8F8" stroke="#F2F2F2"/>
<path d="M14.6557 15.1311H12.1967V23H14.6557V15.1311ZM14.877 12.4262C14.8783 12.2402 14.843 12.0558 14.773 11.8834C14.703 11.7111 14.5998 11.5542 14.4692 11.4218C14.3386 11.2894 14.1831 11.1839 14.0118 11.1116C13.8404 11.0392 13.6565 11.0013 13.4705 11H13.4262C13.048 11 12.6852 11.1503 12.4177 11.4177C12.1503 11.6852 12 12.048 12 12.4262C12 12.8045 12.1503 13.1673 12.4177 13.4347C12.6852 13.7022 13.048 13.8525 13.4262 13.8525C13.6122 13.857 13.7973 13.8249 13.9709 13.7579C14.1445 13.6909 14.3032 13.5904 14.438 13.4621C14.5727 13.3337 14.6808 13.1801 14.7562 13.01C14.8315 12.8398 14.8726 12.6565 14.877 12.4705V12.4262ZM24 18.2197C24 15.8541 22.4951 14.9344 21 14.9344C20.5105 14.9099 20.0231 15.0142 19.5864 15.2368C19.1498 15.4595 18.7791 15.7927 18.5115 16.2033H18.4426V15.1311H16.1311V23H18.5902V18.8148C18.5546 18.3861 18.6896 17.9608 18.9659 17.6311C19.2421 17.3014 19.6373 17.0941 20.0656 17.0541H20.159C20.941 17.0541 21.5213 17.5459 21.5213 18.7852V23H23.9803L24 18.2197Z" fill="#2F2F2F"/>
</svg>
