<svg width="26" height="26" viewBox="0 0 26 26" fill="none" xmlns="http://www.w3.org/2000/svg">
<path fill-rule="evenodd" clip-rule="evenodd" d="M13.2714 9.2085C12.226 9.2085 11.3755 10.0589 11.3755 11.1054C11.3755 12.1508 12.226 13.0002 13.2714 13.0002C14.3168 13.0002 15.1672 12.1508 15.1672 11.1054C15.1672 10.0589 14.3168 9.2085 13.2714 9.2085ZM13.2714 14.6252C11.33 14.6252 9.75055 13.0467 9.75055 11.1054C9.75055 9.163 11.33 7.5835 13.2714 7.5835C15.2127 7.5835 16.7922 9.163 16.7922 11.1054C16.7922 13.0467 15.2127 14.6252 13.2714 14.6252Z" fill="#666666"/>
<mask id="mask0_4513_7476" style="mask-type:alpha" maskUnits="userSpaceOnUse" x="4" y="2" width="19" height="22">
<path fill-rule="evenodd" clip-rule="evenodd" d="M4.33334 2.16675H22.2078V23.2917H4.33334V2.16675Z" fill="white"/>
</mask>
<g mask="url(#mask0_4513_7476)">
<path fill-rule="evenodd" clip-rule="evenodd" d="M13.2703 3.79175C9.23813 3.79175 5.95779 7.1035 5.95779 11.1725C5.95779 16.3497 12.0505 21.3937 13.2703 21.6624C14.4901 21.3927 20.5828 16.3487 20.5828 11.1725C20.5828 7.1035 17.3025 3.79175 13.2703 3.79175ZM13.2703 23.2917C11.3268 23.2917 4.33279 17.2771 4.33279 11.1725C4.33279 6.2065 8.34221 2.16675 13.2703 2.16675C18.1984 2.16675 22.2078 6.2065 22.2078 11.1725C22.2078 17.2771 15.2138 23.2917 13.2703 23.2917Z" fill="#666666"/>
</g>
</svg>
