<svg width="68" height="68" viewBox="0 0 68 68" fill="none" xmlns="http://www.w3.org/2000/svg">
<circle cx="34" cy="34" r="32" fill="#E7B900" stroke="white" stroke-width="4"/>
<path d="M21 36.7575C21.0558 35.0539 21.5529 33.2546 22.476 31.5622C23.5296 29.6279 25.0038 28.0166 26.7202 26.5924C27.7488 25.7455 28.8397 24.9692 29.9846 24.2694C30.077 24.2076 30.1729 24.1505 30.2718 24.0985C30.6258 23.9276 30.8761 23.9746 31.1346 24.2745C31.3777 24.5547 31.6127 24.8409 31.837 25.1348C32.0972 25.4766 32.0459 25.7406 31.683 25.9781C29.5946 27.345 27.8503 29.0418 26.3581 30.9761C25.9979 31.4374 25.7188 31.9517 25.4261 32.455C25.3336 32.6373 25.2728 32.8326 25.246 33.0334C25.1559 33.5101 25.3171 33.8236 25.7863 34.0107C26.1789 34.1662 26.5914 34.1919 26.9984 34.3106C27.8701 34.5669 28.7445 34.9001 29.4884 35.4213C30.5167 36.1364 31.2239 37.1922 31.4695 38.3791C31.9405 40.4765 30.7888 42.3638 29.2056 43.3608C28.007 44.1161 26.6913 44.1622 25.3604 43.7077C23.6539 43.125 22.5111 41.9631 21.7582 40.4355C21.2062 39.3419 21 38.1706 21 36.7575Z" fill="#F2F2F2"/>
<path d="M36 36.7575C36.0567 35.0539 36.553 33.2546 37.4762 31.5622C38.53 29.6279 40.0052 28.0166 41.721 26.5924C42.7492 25.7456 43.8397 24.9693 44.9841 24.2694C45.0766 24.2076 45.1725 24.1505 45.2714 24.0985C45.6254 23.9276 45.8758 23.9746 46.1351 24.2745C46.3774 24.5547 46.6134 24.8409 46.8377 25.1348C47.0971 25.4766 47.0457 25.7406 46.6827 25.9781C44.5941 27.345 42.8495 29.0418 41.3571 30.9761C40.9969 31.4374 40.7177 31.9517 40.425 32.455C40.3325 32.6373 40.2717 32.8326 40.2448 33.0334C40.1548 33.5101 40.316 33.8236 40.7897 34.0107C41.1815 34.1662 41.594 34.1919 42.0011 34.3106C42.873 34.5669 43.7484 34.9001 44.4923 35.4213C45.5206 36.1365 46.2278 37.1923 46.4738 38.3791C46.9448 40.4765 45.7929 42.3638 44.2095 43.3608C43.0108 44.1161 41.6949 44.1622 40.3637 43.7077C38.657 43.125 37.5149 41.9631 36.7611 40.4355C36.2027 39.3419 36 38.1706 36 36.7575Z" fill="#F2F2F2"/>
</svg>
