<svg width="35" height="35" viewBox="0 0 35 35" fill="none" xmlns="http://www.w3.org/2000/svg">
<circle cx="17.5" cy="17.5" r="17" fill="#F8F8F8" stroke="#F2F2F2"/>
<path d="M24 13.3024C23.5219 13.523 23.0084 13.672 22.4685 13.7394C23.0192 13.396 23.4418 12.8512 23.641 12.2027C23.1257 12.521 22.5549 12.7522 21.9475 12.8762C21.4608 12.3374 20.768 12 20.0008 12C18.5283 12 17.334 13.2434 17.334 14.7777C17.334 14.9947 17.358 15.2057 17.4027 15.4096C15.1852 15.2933 13.2209 14.1876 11.9052 12.5079C11.6762 12.9192 11.5445 13.396 11.5445 13.9039C11.5445 14.8671 12.0157 15.7177 12.7308 16.2155C12.2934 16.2006 11.8823 16.076 11.5227 15.8679V15.9037C11.5227 17.2491 12.4416 18.3715 13.6623 18.6266C13.4379 18.6898 13.2025 18.7232 12.9598 18.7232C12.788 18.7232 12.6203 18.7065 12.4577 18.6743C12.7972 19.777 13.782 20.5805 14.9494 20.602C14.0362 21.3471 12.8859 21.7912 11.6367 21.7912C11.4214 21.7912 11.209 21.778 11 21.7524C12.1806 22.541 13.5821 23 15.0879 23C19.9945 23 22.6769 18.769 22.6769 15.0996C22.6769 14.9804 22.674 14.86 22.6689 14.7408C23.1899 14.3485 23.6422 13.8604 23.9989 13.3042L24 13.3024Z" fill="#2F2F2F"/>
</svg>
