<svg width="35" height="35" viewBox="0 0 35 35" fill="none" xmlns="http://www.w3.org/2000/svg">
<circle cx="17.5" cy="17.5" r="17" fill="#F8F8F8" stroke="#F2F2F2"/>
<path fill-rule="evenodd" clip-rule="evenodd" d="M23.4695 13.2987C24.0722 13.4633 24.5459 13.9466 24.7073 14.5616C24.9988 15.6752 25 18 25 18C25 18 25 20.3248 24.7073 21.4384C24.5459 22.0534 24.0722 22.5367 23.4695 22.7013C22.3782 23 18 23 18 23C18 23 13.6218 23 12.5305 22.7013C11.9277 22.5367 11.4541 22.0534 11.2927 21.4384C11 20.3248 11 18 11 18C11 18 11 15.6752 11.2927 14.5616C11.4541 13.9466 11.9277 13.4633 12.5305 13.2987C13.6218 13 18 13 18 13C18 13 22.3782 13 23.4695 13.2987ZM20.2358 18.0002L16.5987 20.1427V15.8577L20.2358 18.0002Z" fill="#2F2F2F"/>
<path fill-rule="evenodd" clip-rule="evenodd" d="M20.2358 18L16.5986 20.1425V15.8574L20.2358 18Z" fill="white"/>
</svg>
