<svg width="64" height="64" viewBox="0 0 64 64" fill="none" xmlns="http://www.w3.org/2000/svg">
<path opacity="0.06" fill-rule="evenodd" clip-rule="evenodd" d="M2 2H62V11.7056H2V2ZM6.8528 56.1766H57.1472V62H6.8528V56.1766Z" fill="#212B35"/>
<path d="M21.54 38L26.184 25.4H27.786L32.412 38H30.81L29.658 34.76H24.294L23.124 38H21.54ZM24.744 33.536H29.208L26.976 27.308L24.744 33.536ZM36.8136 38.216C36.0696 38.216 35.4516 38.09 34.9596 37.838C34.4676 37.586 34.1016 37.25 33.8616 36.83C33.6216 36.41 33.5016 35.954 33.5016 35.462C33.5016 34.55 33.8496 33.848 34.5456 33.356C35.2416 32.864 36.1896 32.618 37.3896 32.618H39.8016V32.51C39.8016 31.73 39.5976 31.142 39.1896 30.746C38.7816 30.338 38.2356 30.134 37.5516 30.134C36.9636 30.134 36.4536 30.284 36.0216 30.584C35.6016 30.872 35.3376 31.298 35.2296 31.862H33.6816C33.7416 31.214 33.9576 30.668 34.3296 30.224C34.7136 29.78 35.1876 29.444 35.7516 29.216C36.3156 28.976 36.9156 28.856 37.5516 28.856C38.7996 28.856 39.7356 29.192 40.3596 29.864C40.9956 30.524 41.3136 31.406 41.3136 32.51V38H39.9636L39.8736 36.398C39.6216 36.902 39.2496 37.334 38.7576 37.694C38.2776 38.042 37.6296 38.216 36.8136 38.216ZM37.0476 36.938C37.6236 36.938 38.1156 36.788 38.5236 36.488C38.9436 36.188 39.2616 35.798 39.4776 35.318C39.6936 34.838 39.8016 34.334 39.8016 33.806V33.788H37.5156C36.6276 33.788 35.9976 33.944 35.6256 34.256C35.2656 34.556 35.0856 34.934 35.0856 35.39C35.0856 35.858 35.2536 36.236 35.5896 36.524C35.9376 36.8 36.4236 36.938 37.0476 36.938Z" fill="black"/>
<path d="M57.1472 62H6.8528M2 2H62V56.1766H2V2Z" stroke="#212B35"/>
<path d="M7.50181 7.82393C8.03784 7.82393 8.47237 7.3894 8.47237 6.85337C8.47237 6.31735 8.03784 5.88281 7.50181 5.88281C6.96578 5.88281 6.53125 6.31735 6.53125 6.85337C6.53125 7.3894 6.96578 7.82393 7.50181 7.82393Z" fill="#212B35"/>
<path d="M13.326 7.82393C13.8621 7.82393 14.2966 7.3894 14.2966 6.85337C14.2966 6.31735 13.8621 5.88281 13.326 5.88281C12.79 5.88281 12.3555 6.31735 12.3555 6.85337C12.3555 7.3894 12.79 7.82393 13.326 7.82393Z" fill="#212B35"/>
<path d="M10.4159 7.82393C10.9519 7.82393 11.3864 7.3894 11.3864 6.85337C11.3864 6.31735 10.9519 5.88281 10.4159 5.88281C9.87985 5.88281 9.44531 6.31735 9.44531 6.85337C9.44531 7.3894 9.87985 7.82393 10.4159 7.82393Z" fill="#212B35"/>
</svg>
