<svg width="44" height="48" viewBox="0 0 44 48" fill="none" xmlns="http://www.w3.org/2000/svg">
<rect x="1.09375" y="10.5176" width="9.51716" height="20.6205" fill="#F2F3F3"/>
<path d="M1.09375 11.5176C1.09375 10.9653 1.54147 10.5176 2.09375 10.5176H10.6109V31.1381H2.09375C1.54147 31.1381 1.09375 30.6904 1.09375 30.1381V11.5176Z" stroke="#212B35"/>
<path d="M10.6113 10.5172L29.6456 1V40.6548L10.6113 31.1377V10.5172Z" stroke="#212B35" stroke-linejoin="round"/>
<path d="M4.26465 31.1377H9.02323V45.9996C9.02323 46.5519 8.57551 46.9996 8.02323 46.9996H5.26465C4.71236 46.9996 4.26465 46.5519 4.26465 45.9996V31.1377Z" stroke="#212B35"/>
<path d="M29.6445 27.9662C33.1487 27.9662 35.9893 24.7704 35.9893 20.8283C35.9893 16.8862 33.1487 13.6904 29.6445 13.6904V27.9662Z" fill="#F2F3F3"/>
<path d="M29.6445 27.9662C33.1487 27.9662 35.9893 24.7704 35.9893 20.8283C35.9893 16.8862 33.1487 13.6904 29.6445 13.6904V27.9662Z" stroke="#212B35"/>
<path d="M38.3145 24.1797L42.7885 26.0314" stroke="#212B35" stroke-linecap="round"/>
<path d="M34.9209 7.05371L33.0692 11.5277" stroke="#212B35" stroke-linecap="round"/>
<path d="M33.0752 29.4229L34.9295 33.8958" stroke="#212B35" stroke-linecap="round"/>
<path d="M42.7842 14.9131L38.3112 16.7673" stroke="#212B35" stroke-linecap="round"/>
</svg>
