<svg width="172" height="64" viewBox="0 0 172 64" fill="none" xmlns="http://www.w3.org/2000/svg">
<path fill-rule="evenodd" clip-rule="evenodd" d="M57.4659 36.3708C56.6965 35.2851 55.3886 34.3973 53.8053 34.3973C50.8709 34.3973 48.7564 36.7281 48.7564 39.8823C48.7564 43.0395 50.8709 45.3687 53.8053 45.3687C55.1743 45.3687 56.457 44.76 57.1266 44.1543C57.1485 44.1341 57.166 44.1092 57.1778 44.0815C57.1896 44.0537 57.1955 44.0236 57.195 43.9933V42.282C57.195 42.2306 57.1753 42.1813 57.1402 42.1449C57.1051 42.1084 57.0574 42.0877 57.0075 42.0873H53.2354C53.1994 42.0871 53.1639 42.0796 53.1307 42.0652C53.0976 42.0509 53.0675 42.0299 53.0422 42.0036C53.0169 41.9772 52.9969 41.946 52.9834 41.9117C52.9698 41.8774 52.9629 41.8407 52.9631 41.8036V39.2643C52.9631 39.1079 53.0851 38.9806 53.2354 38.9806H60V35.2115L57.8155 36.4567C57.7569 36.4876 57.6894 36.4959 57.6253 36.4802C57.5612 36.4644 57.5047 36.4256 57.4659 36.3708ZM25.7098 38.1541H29.7394C30.8926 38.1541 31.6143 37.4794 31.6143 36.4015C31.6143 35.3741 30.8926 34.6488 29.7394 34.6488H25.7098C25.6768 34.649 25.6442 34.6559 25.6137 34.6691C25.5833 34.6823 25.5557 34.7016 25.5325 34.7258C25.5092 34.75 25.4909 34.7787 25.4784 34.8102C25.466 34.8417 25.4597 34.8754 25.4599 34.9095V37.895C25.4599 38.0376 25.5715 38.1541 25.7098 38.1541ZM42.093 47.9909C42.0934 48.0213 42.088 48.0516 42.0769 48.0798C42.0659 48.1081 42.0495 48.1338 42.0287 48.1555C42.008 48.1772 41.9832 48.1944 41.9559 48.2061C41.9287 48.2179 41.8994 48.2239 41.8698 48.2239H38.9027C38.8732 48.2237 38.844 48.2175 38.8168 48.2057C38.7896 48.1939 38.765 48.1767 38.7443 48.155C38.7235 48.1334 38.7071 48.1077 38.696 48.0796C38.6849 48.0514 38.6793 48.0213 38.6795 47.9909V31.7507C38.6795 31.6219 38.7777 31.5176 38.9027 31.5176H41.8683C41.9919 31.5176 42.0916 31.6219 42.0916 31.7507L42.093 47.9909ZM29.7245 31.5176H30.4834C33.5384 31.5176 35.1008 33.5463 35.1008 35.7743C35.1008 37.5086 34.2303 38.7905 33.0622 39.3563C33.0192 39.3775 32.9831 39.4111 32.9582 39.4531C32.9333 39.495 32.9207 39.5435 32.922 39.5926C32.9232 39.6417 32.9383 39.6894 32.9653 39.7299C32.9923 39.7705 33.0301 39.8021 33.0741 39.8209C34.4356 40.4005 35.4133 41.9186 35.4133 43.6897C35.4133 46.2198 33.8256 48.2239 30.7498 48.2239H22.2948C22.2618 48.2237 22.2291 48.2168 22.1987 48.2036C22.1683 48.1904 22.1406 48.1711 22.1174 48.1469C22.0942 48.1227 22.0759 48.0941 22.0634 48.0625C22.0509 48.031 22.0446 47.9973 22.0448 47.9632V37.3675L0.219912 53.991C-0.196736 54.31 0.01754 55 0.536862 55H59.4628C59.7604 55 59.9985 54.7501 59.9985 54.4418V46.0342C58.4227 47.5661 56.3498 48.5245 53.8053 48.5245C49.0927 48.5245 45.2462 45.1433 45.2462 39.8823C45.2462 34.5982 49.0927 31.2416 53.8053 31.2416C56.7665 31.2416 58.753 32.64 60 34.3482V9.55783C60.001 9.45531 59.9743 9.35451 59.9229 9.26674C59.8715 9.17897 59.7974 9.10768 59.7089 9.06088C59.6203 9.01407 59.5209 8.9936 59.4217 9.00175C59.3226 9.0099 59.2275 9.04635 59.1473 9.10701L29.7245 31.5176ZM25.7098 45.0927H29.8838C31.1575 45.0927 31.9268 44.392 31.9268 43.1898C31.9268 42.1379 31.2066 41.2853 29.8838 41.2853H25.7098C25.6768 41.2855 25.6442 41.2924 25.6137 41.3056C25.5833 41.3188 25.5557 41.3381 25.5325 41.3623C25.5092 41.3865 25.4909 41.4152 25.4784 41.4467C25.466 41.4782 25.4597 41.512 25.4599 41.546V44.8321C25.4599 44.9762 25.5715 45.0927 25.7098 45.0927Z" fill="black"/>
<path d="M139.424 5L116 18.511V45.4976L122.687 49.3604L122.639 22.3679L139.376 12.7138L156.114 22.3679V49.3486L162.8 45.4976V18.4874L139.424 5Z" fill="#F26322"/>
<path d="M142.74 49.3518L139.4 51.2921L136.042 49.3695V22.3652L129.361 26.2221L129.373 53.2146L139.394 59L149.427 53.2146V26.2221L142.74 22.3652V49.3518Z" fill="#F26322"/>
<path d="M76 31.5C75.7239 31.5 75.5 31.7239 75.5 32C75.5 32.2761 75.7239 32.5 76 32.5V31.5ZM76 32.5H96V31.5H76V32.5Z" fill="#212B35"/>
<path d="M89 25L96 32L89 39" stroke="#212B35" stroke-linecap="round" stroke-linejoin="round"/>
</svg>
