<svg width="64" height="64" viewBox="0 0 64 64" fill="none" xmlns="http://www.w3.org/2000/svg">
<path opacity="0.06" fill-rule="evenodd" clip-rule="evenodd" d="M2 2H62V11.7056H2V2ZM6.8528 56.1766H57.1472V62H6.8528V56.1766Z" fill="#212B35"/>
<path d="M57.1472 62H6.8528M2 2H62V56.1766H2V2Z" stroke="#212B35"/>
<path d="M7.50181 7.82296C8.03784 7.82296 8.47237 7.38842 8.47237 6.8524C8.47237 6.31637 8.03784 5.88184 7.50181 5.88184C6.96578 5.88184 6.53125 6.31637 6.53125 6.8524C6.53125 7.38842 6.96578 7.82296 7.50181 7.82296Z" fill="#212B35"/>
<path d="M13.326 7.82296C13.8621 7.82296 14.2966 7.38842 14.2966 6.8524C14.2966 6.31637 13.8621 5.88184 13.326 5.88184C12.79 5.88184 12.3555 6.31637 12.3555 6.8524C12.3555 7.38842 12.79 7.82296 13.326 7.82296Z" fill="#212B35"/>
<path d="M10.4159 7.82296C10.9519 7.82296 11.3864 7.38842 11.3864 6.8524C11.3864 6.31637 10.9519 5.88184 10.4159 5.88184C9.87985 5.88184 9.44531 6.31637 9.44531 6.8524C9.44531 7.38842 9.87985 7.82296 10.4159 7.82296Z" fill="#212B35"/>
<path d="M26.3613 31.5566C26.3613 29.8998 27.7045 28.5566 29.3613 28.5566H33.899C35.5558 28.5566 36.899 29.8998 36.899 31.5566V36.9891C36.899 39.899 34.54 42.2579 31.6301 42.2579V42.2579C28.7203 42.2579 26.3613 39.899 26.3613 36.9891V31.5566Z" stroke="#212B35" stroke-linecap="round" stroke-linejoin="round"/>
<path d="M28.4746 28.5566V27.5021C28.4746 25.7562 29.89 24.3409 31.6359 24.3409V24.3409C33.3818 24.3409 34.7972 25.7562 34.7972 27.5021V28.5566" stroke="#212B35" stroke-linecap="round" stroke-linejoin="round"/>
<path d="M29.5181 24.8663L28.4644 23.8124L27.9375 22.2314" stroke="#212B35" stroke-linejoin="round"/>
<path d="M33.7358 24.8663L34.7895 23.8124L35.3164 22.2314" stroke="#212B35" stroke-linejoin="round"/>
<path d="M26.6209 38.8311L23.9865 40.9389L23 44.001" stroke="#212B35" stroke-linejoin="round"/>
<path d="M36.8973 38.8311L39.5317 40.9389L40.0586 44.3643" stroke="#212B35" stroke-linejoin="round"/>
<path d="M26.3606 31.7166L23.8812 29.8861L22.9514 26.8352L21.0918 25.9199" stroke="#212B35" stroke-linejoin="round"/>
<path d="M36.9011 31.7166L39.3806 29.8861L40.3103 26.8352L42.1699 25.9199" stroke="#212B35" stroke-linejoin="round"/>
<path d="M26.3576 34.8779H24.777L22.1426 36.4588" stroke="#212B35" stroke-linejoin="round"/>
<path d="M36.8963 34.8779H38.4769L41.1113 36.4588" stroke="#212B35" stroke-linejoin="round"/>
<rect x="40.5751" y="20.2956" width="2" height="31" transform="rotate(40 40.5751 20.2956)" fill="#212B35" stroke="white"/>
</svg>
