<svg width="64" height="64" viewBox="0 0 64 64" fill="none" xmlns="http://www.w3.org/2000/svg">
<path opacity="0.06" fill-rule="evenodd" clip-rule="evenodd" d="M2 2H62V11.7056H2V2ZM6.8528 56.1766H57.1472V62H6.8528V56.1766Z" fill="#212B35"/>
<path d="M57.1472 62H6.8528M2 2H62V56.1766H2V2Z" stroke="#212B35"/>
<path d="M7.50181 7.82296C8.03784 7.82296 8.47237 7.38842 8.47237 6.8524C8.47237 6.31637 8.03784 5.88184 7.50181 5.88184C6.96578 5.88184 6.53125 6.31637 6.53125 6.8524C6.53125 7.38842 6.96578 7.82296 7.50181 7.82296Z" fill="#212B35"/>
<path d="M13.326 7.82296C13.8621 7.82296 14.2966 7.38842 14.2966 6.8524C14.2966 6.31637 13.8621 5.88184 13.326 5.88184C12.79 5.88184 12.3555 6.31637 12.3555 6.8524C12.3555 7.38842 12.79 7.82296 13.326 7.82296Z" fill="#212B35"/>
<path d="M10.4159 7.82296C10.9519 7.82296 11.3864 7.38842 11.3864 6.8524C11.3864 6.31637 10.9519 5.88184 10.4159 5.88184C9.87985 5.88184 9.44531 6.31637 9.44531 6.8524C9.44531 7.38842 9.87985 7.82296 10.4159 7.82296Z" fill="#212B35"/>
<path d="M39.0158 40.378C39.0331 40.4577 39.0299 42.9324 39.0142 42.9969H34.4261C34.4201 42.97 34.4161 42.9427 34.414 42.9151C34.414 41.1963 34.4138 39.4774 34.4133 37.7587C34.4133 37.5869 34.4085 37.4147 34.3969 37.2432C34.378 36.9666 34.3453 36.6914 34.2688 36.4238C34.2042 36.1974 34.126 35.9755 33.9986 35.7765C33.9022 35.6231 33.7833 35.4853 33.646 35.3677C33.4207 35.1765 33.1603 35.063 32.8782 34.9943C32.7539 34.964 32.6288 34.9377 32.4991 34.9344C32.3361 34.9305 32.1732 34.9162 32.01 34.9132C31.936 34.9119 31.8619 34.9274 31.7877 34.9344C31.7645 34.9366 31.7408 34.9344 31.7175 34.9368C31.6622 34.9431 31.607 34.9502 31.5521 34.9583C31.4784 34.9691 31.4042 34.9779 31.3313 34.9929C30.9741 35.0653 30.6327 35.2022 30.3238 35.397C30.0857 35.5467 29.8721 35.7329 29.6907 35.9488C29.5657 36.0947 29.4538 36.2515 29.3562 36.4173C29.238 36.6225 29.1329 36.8353 29.0557 37.0604C29.0154 37.1778 28.9759 37.2957 28.94 37.4141C28.8874 37.589 28.846 37.7671 28.8161 37.9473C28.7881 38.1159 28.764 38.2853 28.7441 38.4555C28.7229 38.6372 28.7079 38.8197 28.6916 39.002C28.6875 39.0488 28.6889 39.0962 28.6879 39.1435C28.6639 40.3668 28.6811 41.5902 28.6764 42.8135C28.6764 42.872 28.6764 42.9304 28.6764 42.9863C28.6145 43.0024 24.1423 43.004 24.075 42.9903C24.0624 42.9376 24.0572 40.5 24.0697 40.3895C24.1118 40.3583 24.1616 40.3656 24.2101 40.3674C24.2472 40.3688 24.2839 40.3764 24.3209 40.3764C24.6766 40.3771 25.0323 40.3771 25.3881 40.3764H25.4932C25.4988 40.3645 25.5027 40.3518 25.5049 40.3388C25.5038 40.2611 25.4997 40.1832 25.4997 40.106C25.4997 35.8999 25.4997 31.6937 25.4997 27.4874C25.4997 27.4388 25.5066 27.3901 25.5104 27.3389H28.675C28.6781 27.6469 28.676 27.9503 28.6764 28.2535C28.6768 28.5567 28.6764 28.8571 28.6764 29.1591V32.8008C28.7076 32.8219 28.7282 32.8027 28.7489 32.7895C28.9446 32.6657 29.1373 32.5368 29.3361 32.4184C29.5652 32.2822 29.7972 32.151 30.0322 32.0249C30.3167 31.8723 30.6124 31.742 30.9168 31.6352C31.0353 31.5936 31.153 31.5475 31.2742 31.5159C31.4499 31.4704 31.6271 31.4273 31.806 31.3992C31.9968 31.3692 32.191 31.363 32.3825 31.3371C32.6901 31.2956 32.9984 31.3144 33.3065 31.3133C33.3969 31.3133 33.4876 31.326 33.5776 31.3371C33.7254 31.3552 33.8725 31.374 34.0201 31.3978C34.1117 31.4119 34.2027 31.435 34.2925 31.4579C34.5092 31.513 34.7225 31.5789 34.9271 31.6702C35.1902 31.7879 35.4413 31.9272 35.6713 32.1034C36.1309 32.4557 36.482 32.899 36.7541 33.41C36.9339 33.7505 37.0794 34.1084 37.1883 34.4783C37.2652 34.7347 37.3289 34.9951 37.3791 35.2582C37.4035 35.3866 37.4283 35.5153 37.4483 35.6444C37.4663 35.7605 37.4794 35.8773 37.4923 35.9942C37.5077 36.1342 37.5218 36.2743 37.5344 36.4145C37.5494 36.5783 37.5625 36.7424 37.5765 36.9066C37.5765 36.9135 37.5765 36.9207 37.5765 36.9277C37.5813 37.2248 37.5896 37.5212 37.5906 37.8179C37.5924 38.6386 37.5906 39.4593 37.5906 40.2799C37.5906 40.2964 37.5868 40.3148 37.5928 40.3289C37.5958 40.3369 37.6004 40.3443 37.6062 40.3506C37.6121 40.3568 37.6191 40.3618 37.6269 40.3653C37.6609 40.3733 37.6956 40.3772 37.7304 40.3772C38.1304 40.378 38.5305 40.3783 38.9307 40.3781L39.0158 40.378Z" fill="#212B35"/>
<path d="M38.7371 25.8954H34.4238L34.9932 23.0052L39.3131 23L38.7371 25.8954Z" fill="#212B35"/>
<path d="M29.2489 23.0029L28.6469 25.8911H24.3281L24.9294 23.0049L29.2489 23.0029Z" fill="#212B35"/>
</svg>
