<svg width="62" height="62" viewBox="0 0 62 62" fill="none" xmlns="http://www.w3.org/2000/svg">
<path opacity="0.06" fill-rule="evenodd" clip-rule="evenodd" d="M1 1H61V10.7056H1V1ZM5.8528 55.1766H56.1472V61H5.8528V55.1766Z" fill="#212B35"/>
<path d="M56.1472 61H5.8528M1 1H61V55.1766H1V1Z" stroke="#212B35"/>
<path d="M6.50279 6.82296C7.03881 6.82296 7.47335 6.38842 7.47335 5.8524C7.47335 5.31637 7.03881 4.88184 6.50279 4.88184C5.96676 4.88184 5.53223 5.31637 5.53223 5.8524C5.53223 6.38842 5.96676 6.82296 6.50279 6.82296Z" fill="#212B35"/>
<path d="M12.3265 6.82296C12.8625 6.82296 13.2971 6.38842 13.2971 5.8524C13.2971 5.31637 12.8625 4.88184 12.3265 4.88184C11.7905 4.88184 11.356 5.31637 11.356 5.8524C11.356 6.38842 11.7905 6.82296 12.3265 6.82296Z" fill="#212B35"/>
<path d="M9.4149 6.82296C9.95092 6.82296 10.3855 6.38842 10.3855 5.8524C10.3855 5.31637 9.95092 4.88184 9.4149 4.88184C8.87887 4.88184 8.44434 5.31637 8.44434 5.8524C8.44434 6.38842 8.87887 6.82296 9.4149 6.82296Z" fill="#212B35"/>
<path d="M25.3618 30.5566C25.3618 28.8998 26.705 27.5566 28.3618 27.5566H32.8994C34.5563 27.5566 35.8994 28.8998 35.8994 30.5566V35.9891C35.8994 38.899 33.5405 41.2579 30.6306 41.2579V41.2579C27.7207 41.2579 25.3618 38.899 25.3618 35.9891V30.5566Z" stroke="#212B35" stroke-linecap="round" stroke-linejoin="round"/>
<path d="M27.4736 27.5566V26.5021C27.4736 24.7562 28.889 23.3409 30.6349 23.3409V23.3409C32.3808 23.3409 33.7962 24.7562 33.7962 26.5021V27.5566" stroke="#212B35" stroke-linecap="round" stroke-linejoin="round"/>
<path d="M28.5191 23.8663L27.4654 22.8124L26.9385 21.2314" stroke="#212B35" stroke-linejoin="round"/>
<path d="M32.7353 23.8663L33.789 22.8124L34.3159 21.2314" stroke="#212B35" stroke-linejoin="round"/>
<path d="M25.6209 37.8311L22.9865 39.9389L22 43.001" stroke="#212B35" stroke-linejoin="round"/>
<path d="M35.8973 37.8311L38.5317 39.9389L39.0586 43.3643" stroke="#212B35" stroke-linejoin="round"/>
<path d="M25.3606 30.7166L22.8812 28.8861L21.9514 25.8352L20.0918 24.9199" stroke="#212B35" stroke-linejoin="round"/>
<path d="M35.9021 30.7166L38.3815 28.8861L39.3113 25.8352L41.1709 24.9199" stroke="#212B35" stroke-linejoin="round"/>
<path d="M25.3567 33.8779H23.776L21.1416 35.4588" stroke="#212B35" stroke-linejoin="round"/>
<path d="M35.8973 33.8779H37.4779L40.1123 35.4588" stroke="#212B35" stroke-linejoin="round"/>
<rect x="39.5746" y="19.2956" width="2" height="31" transform="rotate(40 39.5746 19.2956)" fill="#212B35" stroke="white"/>
</svg>
