<svg xmlns="http://www.w3.org/2000/svg" width="61" height="60" fill="none" xmlns:v="https://vecta.io/nano"><style><![CDATA[.B{stroke-linejoin:round}.C{stroke-linecap:round}]]></style><path opacity=".06" d="M30.44 31.519c6.281 0 11.372-5.07 11.372-11.325S36.721 8.869 30.44 8.869s-11.372 5.07-11.372 11.325S24.16 31.519 30.44 31.519z" fill="#fff"/><g stroke="#fff"><g class="C"><path d="M29.766 24.082v-5.279m2.813 5.279v-8.437m-5.625 8.438v-2.64"/><path d="M59.528 42.75L48.906 53.372 43.6 48.056" class="B"/></g><path d="M30.438 31.519c6.26 0 11.334-5.07 11.334-11.325S36.698 8.869 30.438 8.869s-11.334 5.07-11.334 11.325 5.075 11.325 11.334 11.325z" class="B"/><path d="M49.255 58.453H11.773V.938h37.481v41.138" class="B C"/></g><path opacity=".06" fill-rule="evenodd" d="M1.875 5.326h9.9v48.769h-9.9V5.326z" fill="#fff"/><g stroke="#fff" class="B C"><path d="M7.613 54.091H1.875V5.322h5.738M19.256 35.68h22.669m-22.669 8.25h22.669"/><path d="M19.256 39.803h22.669m-22.669 8.25H30.59"/></g></svg>