<svg width="26" height="30" viewBox="0 0 26 30" fill="none" xmlns="http://www.w3.org/2000/svg">
<path opacity="0.4" d="M1.125 11.539H24.8903" stroke="white" stroke-width="1.4611" stroke-linecap="round" stroke-linejoin="round"/>
<path opacity="0.4" fill-rule="evenodd" clip-rule="evenodd" d="M6.16406 16.7463C6.16406 16.242 6.57291 15.8331 7.07725 15.8331H7.0896C7.59394 15.8331 8.00278 16.242 8.00278 16.7463C8.00278 17.2507 7.59394 17.6595 7.0896 17.6595H7.07725C6.57291 17.6595 6.16406 17.2507 6.16406 16.7463ZM13.0082 15.8331C12.5039 15.8331 12.095 16.242 12.095 16.7463C12.095 17.2507 12.5039 17.6595 13.0082 17.6595H13.0205C13.5249 17.6595 13.9337 17.2507 13.9337 16.7463C13.9337 16.242 13.5249 15.8331 13.0205 15.8331H13.0082ZM18.9201 15.8331C18.4158 15.8331 18.0069 16.242 18.0069 16.7463C18.0069 17.2507 18.4158 17.6595 18.9201 17.6595H18.9325C19.4368 17.6595 19.8456 17.2507 19.8456 16.7463C19.8456 16.242 19.4368 15.8331 18.9325 15.8331H18.9201ZM18.9201 21.0151C18.4158 21.0151 18.0069 21.4239 18.0069 21.9282C18.0069 22.4326 18.4158 22.8414 18.9201 22.8414H18.9325C19.4368 22.8414 19.8456 22.4326 19.8456 21.9282C19.8456 21.4239 19.4368 21.0151 18.9325 21.0151H18.9201ZM12.095 21.9282C12.095 21.4239 12.5039 21.0151 13.0082 21.0151H13.0205C13.5249 21.0151 13.9337 21.4239 13.9337 21.9282C13.9337 22.4326 13.5249 22.8414 13.0205 22.8414H13.0082C12.5039 22.8414 12.095 22.4326 12.095 21.9282ZM7.07725 21.0151C6.57291 21.0151 6.16406 21.4239 6.16406 21.9282C6.16406 22.4326 6.57291 22.8414 7.07725 22.8414H7.0896C7.59394 22.8414 8.00278 22.4326 8.00278 21.9282C8.00278 21.4239 7.59394 21.0151 7.0896 21.0151H7.07725Z" fill="white"/>
<path d="M18.391 1.66666V6.05436" stroke="white" stroke-width="1.4611" stroke-linecap="round" stroke-linejoin="round"/>
<path d="M7.62151 1.66666V6.05436" stroke="white" stroke-width="1.4611" stroke-linecap="round" stroke-linejoin="round"/>
<path fill-rule="evenodd" clip-rule="evenodd" d="M18.651 3.77222H7.36128C3.4457 3.77222 1 5.95346 1 9.96292V22.0291C1 26.1016 3.4457 28.3333 7.36128 28.3333H18.6387C22.5666 28.3333 25 26.1394 25 22.13V9.96292C25.0123 5.95346 22.579 3.77222 18.651 3.77222Z" stroke="white" stroke-width="1.4611" stroke-linecap="round" stroke-linejoin="round"/>
</svg>
