<svg width="51" height="63" viewBox="0 0 51 63" fill="none" xmlns="http://www.w3.org/2000/svg">
<path d="M38.2266 11.6652V2L48.9091 13.6999H39.7526L38.2266 11.6652Z" fill="#212B35" fill-opacity="0.06" stroke="white"/>
<path d="M38.2996 2.02759H3.00977C1.9052 2.02759 1.00977 2.92302 1.00977 4.02759V59.9998C1.00977 61.1043 1.90519 61.9998 3.00976 61.9998H46.9875C48.0921 61.9998 48.9875 61.1043 48.9875 59.9998V13.6151M38.2996 2.02759L48.9875 13.6151M38.2996 2.02759V11.6151C38.2996 12.7196 39.195 13.6151 40.2996 13.6151H48.9875" stroke="white"/>
<path d="M8.80078 24.0616L11.0608 26.3105L16.1836 21.2129" stroke="white" stroke-linecap="round" stroke-linejoin="round"/>
<path d="M20.7344 25.1191H40.02" stroke="white" stroke-linecap="round"/>
<path d="M8.80078 36.3565L11.0608 38.6054L16.1836 33.5078" stroke="white" stroke-linecap="round" stroke-linejoin="round"/>
<path d="M20.7344 37.4062H40.02" stroke="white" stroke-linecap="round"/>
<path d="M8.80078 48.6612L11.0608 50.9101L16.1836 45.8125" stroke="white" stroke-linecap="round" stroke-linejoin="round"/>
<path d="M20.7344 49.7148H40.02" stroke="white" stroke-linecap="round"/>
</svg>
