<svg width="58" height="52" viewBox="0 0 58 52" fill="none" xmlns="http://www.w3.org/2000/svg">
<path d="M7.94678 25.1593C7.94678 11.672 18.8805 0.738281 32.3678 0.738281C45.8552 0.738281 56.7889 11.672 56.7889 25.1593C56.7889 38.6467 45.8552 49.5804 32.3678 49.5804C28.4318 49.5804 25.2923 48.6599 21.9995 47.0059" stroke="#212B35" stroke-linecap="round" stroke-linejoin="round"/>
<path d="M18.9898 41.6081H10.2656" stroke="#212B35" stroke-linecap="round" stroke-linejoin="round"/>
<path d="M18.9898 36.5495H10.2656" stroke="#212B35" stroke-linecap="round" stroke-linejoin="round"/>
<path d="M13.5946 31.5026H10.2656" stroke="#212B35" stroke-linecap="round" stroke-linejoin="round"/>
<path fill-rule="evenodd" clip-rule="evenodd" d="M19.2222 25.3281C19.2222 25.3281 9.94579 25.333 9.93129 25.333C6.59629 25.3535 4.53125 27.5478 4.53125 30.8949V42.0068C4.53125 45.3708 6.612 47.5735 9.976 47.5735C9.976 47.5735 19.2512 47.5699 19.2669 47.5699C22.6019 47.5494 24.6681 45.3538 24.6681 42.0068V30.8949C24.6681 27.5309 22.5862 25.3281 19.2222 25.3281Z" fill="#212B35" fill-opacity="0.06" stroke="#212B35" stroke-linecap="round" stroke-linejoin="round"/>
<path d="M32.8682 4.10742C32.8682 3.83128 32.6443 3.60742 32.3682 3.60742C32.092 3.60742 31.8682 3.83128 31.8682 4.10742H32.8682ZM31.8682 6.10742C31.8682 6.38356 32.092 6.60742 32.3682 6.60742C32.6443 6.60742 32.8682 6.38356 32.8682 6.10742H31.8682ZM31.8682 4.10742V6.10742H32.8682V4.10742H31.8682Z" fill="#212B35"/>
<path d="M32.8682 43.8438C32.8682 43.5676 32.6443 43.3438 32.3682 43.3438C32.092 43.3438 31.8682 43.5676 31.8682 43.8438H32.8682ZM31.8682 45.8438C31.8682 46.1199 32.092 46.3438 32.3682 46.3438C32.6443 46.3438 32.8682 46.1199 32.8682 45.8438H31.8682ZM31.8682 43.8438V45.8438H32.8682V43.8438H31.8682Z" fill="#212B35"/>
<path d="M41.6304 26.0023L32.3672 25.1602" stroke="#212B35" stroke-linecap="round"/>
<path d="M23.1045 15.0547L32.3677 25.16" stroke="#212B35" stroke-linecap="round"/>
<path d="M53.4209 25.6602C53.697 25.6602 53.9209 25.4363 53.9209 25.1602C53.9209 24.884 53.697 24.6602 53.4209 24.6602L53.4209 25.6602ZM51.4209 24.6602C51.1448 24.6602 50.9209 24.884 50.9209 25.1602C50.9209 25.4363 51.1448 25.6602 51.4209 25.6602L51.4209 24.6602ZM53.4209 24.6602L51.4209 24.6602L51.4209 25.6602L53.4209 25.6602L53.4209 24.6602Z" fill="#212B35"/>
<path d="M42.4615 43.6406C42.5996 43.8798 42.9054 43.9617 43.1445 43.8236C43.3837 43.6856 43.4656 43.3798 43.3275 43.1406L42.4615 43.6406ZM42.3275 41.4086C42.1895 41.1694 41.8837 41.0875 41.6445 41.2256C41.4054 41.3636 41.3234 41.6694 41.4615 41.9086L42.3275 41.4086ZM43.3275 43.1406L42.3275 41.4086L41.4615 41.9086L42.4615 43.6406L43.3275 43.1406Z" fill="#212B35"/>
<path d="M23.0924 9.0957C23.2304 9.33485 23.5362 9.41679 23.7754 9.27872C24.0145 9.14064 24.0965 8.83485 23.9584 8.5957L23.0924 9.0957ZM22.9584 6.86365C22.8203 6.62451 22.5145 6.54257 22.2754 6.68064C22.0362 6.81871 21.9543 7.12451 22.0924 7.36365L22.9584 6.86365ZM23.9584 8.5957L22.9584 6.86365L22.0924 7.36365L23.0924 9.0957L23.9584 8.5957Z" fill="#212B35"/>
<path d="M41.7769 8.5957C41.6389 8.83485 41.7208 9.14064 41.96 9.27872C42.1991 9.41679 42.5049 9.33485 42.643 9.0957L41.7769 8.5957ZM43.643 7.36365C43.781 7.12451 43.6991 6.81871 43.46 6.68064C43.2208 6.54257 42.915 6.62451 42.7769 6.86365L43.643 7.36365ZM42.643 9.0957L43.643 7.36365L42.7769 6.86365L41.7769 8.5957L42.643 9.0957Z" fill="#212B35"/>
<path d="M48.4336 15.8834C48.1944 16.0215 48.1125 16.3273 48.2506 16.5664C48.3887 16.8056 48.6944 16.8875 48.9336 16.7494L48.4336 15.8834ZM50.6656 15.7494C50.9048 15.6113 50.9867 15.3056 50.8487 15.0664C50.7106 14.8273 50.4048 14.7453 50.1656 14.8834L50.6656 15.7494ZM48.9336 16.7494L50.6656 15.7494L50.1656 14.8834L48.4336 15.8834L48.9336 16.7494Z" fill="#212B35"/>
<path d="M14.3848 14.1978C14.1456 14.0598 13.8398 14.1417 13.7018 14.3809C13.5637 14.62 13.6456 14.9258 13.8848 15.0639L14.3848 14.1978ZM15.6168 16.0639C15.856 16.2019 16.1618 16.12 16.2998 15.8809C16.4379 15.6417 16.356 15.3359 16.1168 15.1978L15.6168 16.0639ZM13.8848 15.0639L15.6168 16.0639L16.1168 15.1978L14.3848 14.1978L13.8848 15.0639Z" fill="#212B35"/>
<path d="M48.9336 34.5689C48.6944 34.4309 48.3887 34.5128 48.2506 34.752C48.1125 34.9911 48.1944 35.2969 48.4336 35.435L48.9336 34.5689ZM50.1656 36.435C50.4048 36.573 50.7106 36.4911 50.8487 36.252C50.9867 36.0128 50.9048 35.707 50.6656 35.5689L50.1656 36.435ZM48.4336 35.435L50.1656 36.435L50.6656 35.5689L48.9336 34.5689L48.4336 35.435Z" fill="#212B35"/>
</svg>
