<svg width="64" height="64" viewBox="0 0 64 64" fill="none" xmlns="http://www.w3.org/2000/svg">
<path opacity="0.06" fill-rule="evenodd" clip-rule="evenodd" d="M2 2H62V11.7056H2V2ZM6.8528 56.1766H57.1472V62H6.8528V56.1766Z" fill="#212B35"/>
<path d="M57.1472 62H6.8528M2 2H62V56.1766H2V2Z" stroke="#212B35"/>
<path d="M20.5375 24.8854L11.6084 33.7563L20.5375 42.6175M43.0351 42.6175L51.9643 33.7563L43.0351 24.8854M38.095 23.4102L25.4777 44.0928" stroke="#212B35"/>
<path d="M7.50279 7.82393C8.03881 7.82393 8.47335 7.3894 8.47335 6.85337C8.47335 6.31735 8.03881 5.88281 7.50279 5.88281C6.96676 5.88281 6.53223 6.31735 6.53223 6.85337C6.53223 7.3894 6.96676 7.82393 7.50279 7.82393Z" fill="#212B35"/>
<path d="M13.326 7.82393C13.8621 7.82393 14.2966 7.3894 14.2966 6.85337C14.2966 6.31735 13.8621 5.88281 13.326 5.88281C12.79 5.88281 12.3555 6.31735 12.3555 6.85337C12.3555 7.3894 12.79 7.82393 13.326 7.82393Z" fill="#212B35"/>
<path d="M10.4149 7.82393C10.9509 7.82393 11.3855 7.3894 11.3855 6.85337C11.3855 6.31735 10.9509 5.88281 10.4149 5.88281C9.87887 5.88281 9.44434 6.31735 9.44434 6.85337C9.44434 7.3894 9.87887 7.82393 10.4149 7.82393Z" fill="#212B35"/>
</svg>
