<svg width="64" height="64" viewBox="0 0 64 64" fill="none" xmlns="http://www.w3.org/2000/svg">
<path d="M39 34.5189V52.0857C39 52.2593 38.8593 52.4 38.6857 52.4H20.1102C20.0389 52.4 19.9696 52.4243 19.9139 52.4689L11.0106 59.5915C10.8048 59.7561 10.5 59.6096 10.5 59.3461V52.7143C10.5 52.5407 10.3593 52.4 10.1857 52.4H1.31429C1.14071 52.4 1 52.2593 1 52.0857V22.3143C1 22.1407 1.14071 22 1.31429 22H25" stroke="#212B35"/>
<path d="M63 4.31428C63 4.14071 62.8593 4 62.6857 4H25.3143C25.1407 4 25 4.14071 25 4.31429V34.0857C25 34.2593 25.1407 34.4 25.3143 34.4H34.5H43.8898C43.9611 34.4 44.0304 34.4243 44.0861 34.4689L52.9894 41.5915C53.1952 41.7561 53.5 41.6096 53.5 41.3461V34.7143C53.5 34.5407 53.6407 34.4 53.8143 34.4H62.6857C62.8593 34.4 63 34.2593 63 34.0857V4.31428Z" stroke="#212B35"/>
<path d="M37.4048 18.8604C37.4048 20.216 36.3065 21.3145 34.9524 21.3145C33.5982 21.3145 32.5 20.216 32.5 18.8604C32.5 17.5047 33.5982 16.4062 34.9524 16.4062C36.3065 16.4062 37.4048 17.5047 37.4048 18.8604Z" fill="#212B35" fill-opacity="0.06" stroke="#212B35"/>
<path d="M46.2387 18.8604C46.2387 20.216 45.1405 21.3145 43.7864 21.3145C42.4322 21.3145 41.334 20.216 41.334 18.8604C41.334 17.5047 42.4322 16.4062 43.7864 16.4062C45.1405 16.4062 46.2387 17.5047 46.2387 18.8604Z" fill="#212B35" fill-opacity="0.06" stroke="#212B35"/>
<path d="M55.1548 18.8604C55.1548 20.216 54.0565 21.3145 52.7024 21.3145C51.3482 21.3145 50.25 20.216 50.25 18.8604C50.25 17.5047 51.3482 16.4062 52.7024 16.4062C54.0565 16.4062 55.1548 17.5047 55.1548 18.8604Z" fill="#212B35" fill-opacity="0.06" stroke="#212B35"/>
</svg>
