<svg width="30" height="30" viewBox="0 0 30 30" fill="none" xmlns="http://www.w3.org/2000/svg">
<path d="M10.7143 12.8567C13.3771 12.8567 15.5357 10.6981 15.5357 8.0353C15.5357 5.37249 13.3771 3.21387 10.7143 3.21387C8.05145 3.21387 5.89282 5.37249 5.89282 8.0353C5.89282 10.6981 8.05145 12.8567 10.7143 12.8567Z" stroke="#E7B900" stroke-width="1.71429" stroke-linecap="round" stroke-linejoin="round"/>
<path d="M20.3571 28.9283H1.07141V26.7854C1.07141 24.228 2.08735 21.7753 3.89574 19.9669C5.70413 18.1585 8.15682 17.1426 10.7143 17.1426C13.2717 17.1426 15.7244 18.1585 17.5328 19.9669C19.3412 21.7753 20.3571 24.228 20.3571 26.7854V28.9283Z" stroke="#E7B900" stroke-width="1.71429" stroke-linecap="round" stroke-linejoin="round"/>
<path d="M19.2856 3.21387C20.5644 3.21387 21.7907 3.72184 22.6949 4.62603C23.5991 5.53022 24.1071 6.75657 24.1071 8.0353C24.1071 9.31402 23.5991 10.5404 22.6949 11.4446C21.7907 12.3488 20.5644 12.8567 19.2856 12.8567" stroke="#E7B900" stroke-width="1.71429" stroke-linecap="round" stroke-linejoin="round"/>
<path d="M22.7144 17.5498C24.5397 18.2442 26.1112 19.4765 27.2209 21.0836C28.3305 22.6907 28.9261 24.5968 28.9286 26.5498V28.9284H25.7144" stroke="#E7B900" stroke-width="1.71429" stroke-linecap="round" stroke-linejoin="round"/>
</svg>
