<svg width="30" height="30" viewBox="0 0 30 30" fill="none" xmlns="http://www.w3.org/2000/svg">
<path d="M10.7145 12.8567C13.3773 12.8567 15.5359 10.6981 15.5359 8.0353C15.5359 5.37249 13.3773 3.21387 10.7145 3.21387C8.05169 3.21387 5.89307 5.37249 5.89307 8.0353C5.89307 10.6981 8.05169 12.8567 10.7145 12.8567Z" stroke="#A1A1A1" stroke-width="1.71429" stroke-linecap="round" stroke-linejoin="round"/>
<path d="M20.357 28.9283H1.07129V26.7854C1.07129 24.228 2.08723 21.7753 3.89562 19.9669C5.704 18.1585 8.1567 17.1426 10.7141 17.1426C13.2716 17.1426 15.7243 18.1585 17.5327 19.9669C19.3411 21.7753 20.357 24.228 20.357 26.7854V28.9283Z" stroke="#A1A1A1" stroke-width="1.71429" stroke-linecap="round" stroke-linejoin="round"/>
<path d="M19.2856 3.21387C20.5644 3.21387 21.7907 3.72184 22.6949 4.62603C23.5991 5.53022 24.1071 6.75657 24.1071 8.0353C24.1071 9.31402 23.5991 10.5404 22.6949 11.4446C21.7907 12.3488 20.5644 12.8567 19.2856 12.8567" stroke="#A1A1A1" stroke-width="1.71429" stroke-linecap="round" stroke-linejoin="round"/>
<path d="M22.7144 17.5497C24.5397 18.2441 26.1112 19.4764 27.2209 21.0835C28.3305 22.6905 28.9261 24.5967 28.9286 26.5497V28.9283H25.7144" stroke="#A1A1A1" stroke-width="1.71429" stroke-linecap="round" stroke-linejoin="round"/>
</svg>
