<svg width="64" height="64" viewBox="0 0 64 64" fill="none" xmlns="http://www.w3.org/2000/svg">
<path fill-rule="evenodd" clip-rule="evenodd" d="M43.8214 16.6743L43.0465 15.3257C42.3909 14.1846 40.9382 13.791 39.7988 14.4457C39.2565 14.7661 38.6093 14.857 38.0001 14.6984C37.3909 14.5397 36.8696 14.1446 36.5512 13.6C36.3463 13.2539 36.2363 12.8596 36.2321 12.4571C36.2506 11.8119 36.0078 11.1865 35.5592 10.7237C35.1105 10.2608 34.4941 9.99973 33.8505 10H32.2893C31.6587 9.99999 31.0541 10.252 30.6093 10.7003C30.1644 11.1486 29.9161 11.7561 29.9191 12.3886C29.9004 13.6943 28.8396 14.743 27.5375 14.7429C27.1362 14.7387 26.7431 14.6283 26.3979 14.4229C25.2586 13.7681 23.8058 14.1618 23.1503 15.3029L22.3184 16.6743C21.6637 17.814 22.0508 19.2701 23.1845 19.9314C23.9214 20.3581 24.3753 21.1466 24.3753 22C24.3753 22.8534 23.9214 23.6419 23.1845 24.0686C22.0523 24.7255 21.6647 26.1781 22.3184 27.3143L23.1047 28.6743C23.4119 29.2301 23.9272 29.6403 24.5367 29.814C25.1462 29.9878 25.7996 29.9107 26.3524 29.6C26.8957 29.282 27.5432 29.1949 28.151 29.358C28.7587 29.5211 29.2762 29.9209 29.5886 30.4686C29.7935 30.8147 29.9035 31.2089 29.9077 31.6114C29.9077 32.9306 30.974 34 32.2893 34H33.8505C35.1614 34 36.2258 32.9376 36.2321 31.6229C36.229 30.9884 36.479 30.3791 36.9263 29.9305C37.3736 29.4819 37.9811 29.2312 38.6137 29.2343C39.0141 29.245 39.4055 29.355 39.7532 29.5543C40.8896 30.211 42.3414 29.8227 43.0009 28.6857L43.8214 27.3143C44.1389 26.7676 44.2261 26.1165 44.0636 25.5051C43.901 24.8938 43.5021 24.3727 42.9553 24.0571C42.4085 23.7416 42.0096 23.2205 41.8471 22.6092C41.6845 21.9978 41.7717 21.3467 42.0893 20.8C42.2958 20.4384 42.5947 20.1386 42.9553 19.9314C44.0822 19.2704 44.4684 17.8228 43.8214 16.6857V16.6743Z" fill="#212B35" fill-opacity="0.05" stroke="#212B35" stroke-linecap="round" stroke-linejoin="round"/>
<path fill-rule="evenodd" clip-rule="evenodd" d="M33.6512 17C33.6512 16.7239 33.4273 16.5 33.1512 16.5C32.875 16.5 32.6512 16.7239 32.6512 17V18.4245C31.7157 18.6424 31.0031 19.4581 31.0031 20.4573C31.0031 21.6155 31.9604 22.5271 33.1126 22.5471C33.1243 22.5479 33.1361 22.5483 33.148 22.5483C33.7991 22.5483 34.2961 23.0531 34.2961 23.6384C34.2961 24.2237 33.7991 24.7285 33.148 24.7285C32.497 24.7285 32 24.2237 32 23.6384C32 23.3623 31.7761 23.1384 31.5 23.1384C31.2239 23.1384 31 23.3623 31 23.6384C31 24.6376 31.7125 25.4533 32.648 25.6712V27C32.648 27.2761 32.8719 27.5 33.148 27.5C33.4242 27.5 33.648 27.2761 33.648 27V25.6712C34.5835 25.4533 35.2961 24.6376 35.2961 23.6384C35.2961 22.4802 34.3388 21.5686 33.1866 21.5486C33.1749 21.5478 33.1631 21.5474 33.1512 21.5474C32.5001 21.5474 32.0031 21.0426 32.0031 20.4573C32.0031 19.872 32.5001 19.3672 33.1512 19.3672C33.8022 19.3672 34.2992 19.872 34.2992 20.4573C34.2992 20.7334 34.5231 20.9573 34.7992 20.9573C35.0753 20.9573 35.2992 20.7334 35.2992 20.4573C35.2992 19.4581 34.5867 18.6424 33.6512 18.4245V17Z" fill="#212B35"/>
<path d="M61.5277 44.75L50.9059 55.3719L45.5996 50.0562" stroke="#212B35" stroke-linecap="round" stroke-linejoin="round"/>
<path d="M51.2547 60.4531H13.7734V2.9375H51.2547V44.075" stroke="#212B35" stroke-linecap="round" stroke-linejoin="round"/>
<path opacity="0.06" fill-rule="evenodd" clip-rule="evenodd" d="M3.875 7.32617H13.775V56.0949H3.875V7.32617Z" fill="#212B35"/>
<path d="M9.6125 56.091H3.875V7.32227H9.6125" stroke="#212B35" stroke-linecap="round" stroke-linejoin="round"/>
<path d="M21.2559 45.9297H43.9246" stroke="#212B35" stroke-linecap="round" stroke-linejoin="round"/>
<path d="M21.2559 41.8027H43.9246" stroke="#212B35" stroke-linecap="round" stroke-linejoin="round"/>
<path d="M21.2559 50.0527H32.5902" stroke="#212B35" stroke-linecap="round" stroke-linejoin="round"/>
</svg>
