<svg width="64" height="64" viewBox="0 0 64 64" fill="none" xmlns="http://www.w3.org/2000/svg">
<path d="M53.97 10.2275H24.8431C24.3828 10.2275 24.154 10.7856 24.4818 11.1088L28.4565 15.0273C28.5528 15.1223 28.6826 15.1755 28.8178 15.1755H54.7403C55.0245 15.1755 55.255 14.945 55.255 14.6608V11.8708C55.255 11.7673 55.2238 11.6662 55.1654 11.5807L54.3951 10.4521C54.2992 10.3116 54.1401 10.2275 53.97 10.2275Z" fill="#212B35" fill-opacity="0.06"/>
<path d="M55.3336 31.1668V16.8C55.3336 15.6955 54.4382 14.8 53.3336 14.8H29.038C28.5236 14.8 28.0291 14.6019 27.6571 14.2468L20.6442 7.55324C20.2722 7.19813 19.7776 7 19.2633 7H4C2.89543 7 2 7.89543 2 9V48.3335C2 49.4381 2.89543 50.3335 4 50.3335H39.5002" stroke="#212B35" stroke-linecap="round"/>
<path d="M24.084 10.334H53.3348C54.4393 10.334 55.3348 11.2294 55.3348 12.334V18.6674" stroke="#212B35" stroke-linecap="square"/>
<path d="M51.6012 34.056L42.22 37.8084C42.0246 37.8866 41.8965 38.0759 41.8965 38.2863V45.2932C41.8965 45.3374 41.9024 45.3822 41.9137 45.4249C43.8699 52.7597 49.1245 55.9619 51.6512 56.7005C51.7447 56.7279 51.8427 56.7246 51.9353 56.6944C58.132 54.6761 60.999 48.3823 61.6762 45.4132C61.6846 45.3766 61.6882 45.3408 61.6882 45.3033V38.2863C61.6882 38.0759 61.5601 37.8866 61.3647 37.8084L51.9835 34.056C51.8608 34.0069 51.7239 34.0069 51.6012 34.056Z" fill="#212B35" fill-opacity="0.06"/>
<path d="M41.6599 38.1143C40.9139 42.7439 41.8837 53.0032 51.7312 57.0032" stroke="#212B35" stroke-linecap="round"/>
<path d="M61.803 38.1143C62.549 42.7439 61.5792 53.0032 51.7317 57.0032" stroke="#212B35" stroke-linecap="round"/>
<path d="M41.6562 38.1134L50.92 34.0253C51.4344 33.7983 52.0206 33.7983 52.535 34.0253L61.7987 38.1134" stroke="#212B35" stroke-linecap="round"/>
<path d="M48.1758 45.8027L50.2767 47.9027L56.1516 42.0693" stroke="#212B35" stroke-linecap="round" stroke-linejoin="round"/>
</svg>
