<svg width="64" height="64" viewBox="0 0 64 64" fill="none" xmlns="http://www.w3.org/2000/svg">
<path d="M27.1992 1.60156V1.10156C26.9231 1.10156 26.6992 1.32542 26.6992 1.60156H27.1992ZM36.7992 1.60156H37.2992C37.2992 1.32542 37.0754 1.10156 36.7992 1.10156V1.60156ZM27.1992 20.002V20.502C27.4754 20.502 27.6992 20.2781 27.6992 20.002H27.1992ZM23.1992 20.002V19.502C23.0184 19.502 22.8516 19.5996 22.7631 19.7574C22.6747 19.9151 22.6783 20.1084 22.7726 20.2627L23.1992 20.002ZM31.9992 34.402L31.5726 34.6627C31.6634 34.8113 31.825 34.902 31.9992 34.902C32.1734 34.902 32.335 34.8113 32.4259 34.6627L31.9992 34.402ZM40.7992 20.002L41.2259 20.2627C41.3202 20.1084 41.3238 19.9151 41.2353 19.7574C41.1468 19.5996 40.9801 19.502 40.7992 19.502V20.002ZM36.7992 20.002H36.2992C36.2992 20.2781 36.5231 20.502 36.7992 20.502V20.002ZM27.1992 2.10156H36.7992V1.10156H27.1992V2.10156ZM27.6992 20.002V1.60156H26.6992V20.002H27.6992ZM27.1992 19.502H23.1992V20.502H27.1992V19.502ZM22.7726 20.2627L31.5726 34.6627L32.4259 34.1412L23.6259 19.7412L22.7726 20.2627ZM32.4259 34.6627L41.2259 20.2627L40.3726 19.7412L31.5726 34.1412L32.4259 34.6627ZM40.7992 19.502H36.7992V20.502H40.7992V19.502ZM36.2992 1.60156V20.002H37.2992V1.60156H36.2992Z" fill="#212B35"/>
<path d="M5.59766 15.2012V14.7012C5.32151 14.7012 5.09766 14.925 5.09766 15.2012H5.59766ZM15.1977 15.2012H15.6977C15.6977 14.925 15.4738 14.7012 15.1977 14.7012V15.2012ZM5.59766 36.8008V37.3008C5.8738 37.3008 6.09766 37.0769 6.09766 36.8008H5.59766ZM1.59766 36.8008V36.3008C1.41679 36.3008 1.25003 36.3985 1.16156 36.5562C1.07309 36.714 1.0767 36.9072 1.17102 37.0615L1.59766 36.8008ZM10.3977 51.2008L9.97102 51.4615C10.0618 51.6101 10.2235 51.7008 10.3977 51.7008C10.5718 51.7008 10.7335 51.6101 10.8243 51.4615L10.3977 51.2008ZM19.1977 36.8008L19.6243 37.0615C19.7186 36.9072 19.7222 36.714 19.6338 36.5562C19.5453 36.3985 19.3785 36.3008 19.1977 36.3008V36.8008ZM15.1977 36.8008H14.6977C14.6977 37.0769 14.9215 37.3008 15.1977 37.3008V36.8008ZM5.59766 15.7012H15.1977V14.7012H5.59766V15.7012ZM6.09766 36.8008V15.2012H5.09766V36.8008H6.09766ZM5.59766 36.3008H1.59766V37.3008H5.59766V36.3008ZM1.17102 37.0615L9.97102 51.4615L10.8243 50.9401L2.0243 36.5401L1.17102 37.0615ZM10.8243 51.4615L19.6243 37.0615L18.771 36.5401L9.97102 50.9401L10.8243 51.4615ZM19.1977 36.3008H15.1977V37.3008H19.1977V36.3008ZM14.6977 15.2012V36.8008H15.6977V15.2012H14.6977Z" fill="#212B35"/>
<path d="M48.7988 11.2012V10.7012C48.5227 10.7012 48.2988 10.925 48.2988 11.2012H48.7988ZM58.3988 11.2012H58.8988C58.8988 10.925 58.675 10.7012 58.3988 10.7012V11.2012ZM48.7988 32.8008V33.3008C49.075 33.3008 49.2988 33.0769 49.2988 32.8008H48.7988ZM44.7988 32.8008V32.3008C44.618 32.3008 44.4512 32.3985 44.3627 32.5562C44.2743 32.714 44.2779 32.9072 44.3722 33.0615L44.7988 32.8008ZM53.5988 47.2008L53.1722 47.4615C53.263 47.6101 53.4246 47.7008 53.5988 47.7008C53.773 47.7008 53.9346 47.6101 54.0255 47.4615L53.5988 47.2008ZM62.3988 32.8008L62.8255 33.0615C62.9198 32.9072 62.9234 32.714 62.8349 32.5562C62.7465 32.3985 62.5797 32.3008 62.3988 32.3008V32.8008ZM58.3988 32.8008H57.8988C57.8988 33.0769 58.1227 33.3008 58.3988 33.3008V32.8008ZM48.7988 11.7012H58.3988V10.7012H48.7988V11.7012ZM49.2988 32.8008V11.2012H48.2988V32.8008H49.2988ZM48.7988 32.3008H44.7988V33.3008H48.7988V32.3008ZM44.3722 33.0615L53.1722 47.4615L54.0255 46.9401L45.2255 32.5401L44.3722 33.0615ZM54.0255 47.4615L62.8255 33.0615L61.9722 32.5401L53.1722 46.9401L54.0255 47.4615ZM62.3988 32.3008H58.3988V33.3008H62.3988V32.3008ZM57.8988 11.2012V32.8008H58.8988V11.2012H57.8988Z" fill="#212B35"/>
<circle cx="32.402" cy="52.4" r="10.4" fill="#212B35" fill-opacity="0.05" stroke="#212B35" stroke-linecap="round" stroke-linejoin="round"/>
<path fill-rule="evenodd" clip-rule="evenodd" d="M31.0043 50.8567C31.0043 50.1284 31.6213 49.5078 32.4205 49.5078C33.2197 49.5078 33.8367 50.1284 33.8367 50.8567C33.8367 51.1328 34.0606 51.3567 34.3367 51.3567C34.6128 51.3567 34.8367 51.1328 34.8367 50.8567C34.8367 49.5427 33.7379 48.5078 32.4205 48.5078C31.1031 48.5078 30.0043 49.5427 30.0043 50.8567C30.0043 52.1562 31.0791 53.1828 32.3772 53.2051C32.3901 53.2061 32.4031 53.2066 32.4162 53.2066C33.2154 53.2066 33.8324 53.8272 33.8324 54.5555C33.8324 55.2837 33.2154 55.9043 32.4162 55.9043C31.617 55.9043 31 55.2837 31 54.5555C31 54.2793 30.7761 54.0555 30.5 54.0555C30.2239 54.0555 30 54.2793 30 54.5555C30 55.8694 31.0988 56.9043 32.4162 56.9043C33.7336 56.9043 34.8324 55.8694 34.8324 54.5555C34.8324 53.2559 33.7576 52.2293 32.4594 52.207C32.4466 52.206 32.4336 52.2055 32.4205 52.2055C31.6213 52.2055 31.0043 51.5849 31.0043 50.8567Z" fill="#212B35"/>
<path d="M32.416 49.008V48" stroke="#212B35" stroke-linecap="round" stroke-linejoin="round"/>
<path d="M32.416 57.4123V56.4043" stroke="#212B35" stroke-linecap="round" stroke-linejoin="round"/>
</svg>
