<svg width="66" height="64" viewBox="0 0 66 64" fill="none" xmlns="http://www.w3.org/2000/svg">
<rect x="6.53955" y="9.78906" width="9.06574" height="25.3841" rx="2" transform="rotate(12.605 6.53955 9.78906)" fill="#212B35" fill-opacity="0.06" stroke="#212B35" stroke-linecap="square"/>
<circle cx="6" cy="32" r="1" fill="#212B35"/>
<circle cx="60" cy="33" r="1" fill="#212B35"/>
<rect width="9.06574" height="25.3841" rx="2" transform="matrix(-0.975898 0.218228 0.218228 0.975898 59.4604 10.6953)" fill="#212B35" fill-opacity="0.06" stroke="#212B35" stroke-linecap="square"/>
<path d="M51.3002 15.6812C50.0915 16.4367 47.13 17.6757 44.9542 16.5878C42.2345 15.2279 38.1549 12.0549 34.5286 11.6017C31.3711 11.207 26.4954 19.4037 21.9959 23.0259C21.0356 23.799 20.6616 25.2431 21.663 25.9622C23.4293 27.2307 26.2058 27.9635 29.5425 25.6536C35.4352 21.574 36.7951 22.9338 41.3279 27.4667C44.4448 30.5836 47.6733 33.8121 49.5743 35.7131C50.0818 36.2206 50.821 36.4159 51.5134 36.2271L55.3798 35.1726" stroke="#212B35" stroke-linejoin="round"/>
<path d="M15.0361 14.3223L28.6347 15.2288" stroke="#212B35" stroke-linecap="round" stroke-linejoin="round"/>
<path d="M26.4515 40.6126L32.7197 46.8808C34.0031 48.1642 34.0031 50.245 32.7197 51.5284V51.5284C31.4363 52.8118 29.3555 52.8118 28.0721 51.5284L10.5038 33.9601" stroke="#212B35" stroke-linejoin="round"/>
<path d="M32.2643 37.1271L40.2754 45.1381C41.5587 46.4215 41.5587 48.5023 40.2754 49.7857V49.7857C38.992 51.0691 36.9112 51.0691 35.6278 49.7857L26.4545 40.6124" stroke="#212B35" stroke-linecap="round" stroke-linejoin="round"/>
<path d="M36.7959 32.3672L46.6626 42.2339C47.946 43.5173 47.946 45.598 46.6626 46.8814V46.8814C45.3792 48.1648 43.2984 48.1648 42.015 46.8814L32.263 37.1295" stroke="#212B35" stroke-linecap="round" stroke-linejoin="round"/>
<path d="M36.7962 32.3636L45.4966 41.064C46.7838 42.3512 48.8708 42.3512 50.1581 41.064V41.064C51.4399 39.7822 51.4461 37.7059 50.172 36.4165L41.3291 27.4668" stroke="#212B35" stroke-linecap="round" stroke-linejoin="round"/>
</svg>
