<svg width="64" height="64" viewBox="0 0 64 64" fill="none" xmlns="http://www.w3.org/2000/svg">
<path fill-rule="evenodd" clip-rule="evenodd" d="M44.772 21.6825L43.8513 20.1117C43.0724 18.7825 41.3462 18.324 39.9924 19.0866C39.348 19.4599 38.5791 19.5658 37.8552 19.381C37.1313 19.1962 36.5119 18.7359 36.1335 18.1015C35.8902 17.6984 35.7594 17.2391 35.7544 16.7703C35.7764 16.0187 35.488 15.2903 34.9549 14.7511C34.4218 14.212 33.6894 13.9079 32.9246 13.9082H31.0696C30.3203 13.9082 29.6019 14.2017 29.0734 14.7239C28.5448 15.2461 28.2497 15.9538 28.2533 16.6905C28.2311 18.2114 26.9706 19.4329 25.4234 19.4328C24.9466 19.4279 24.4795 19.2993 24.0694 19.06C22.7157 18.2974 20.9895 18.7559 20.2105 20.0851L19.2221 21.6825C18.4441 23.01 18.9042 24.7061 20.2512 25.4765C21.1267 25.9735 21.6661 26.892 21.6661 27.886C21.6661 28.88 21.1267 29.7985 20.2512 30.2955C18.9059 31.0607 18.4453 32.7527 19.2221 34.0762L20.1564 35.6603C20.5213 36.3078 21.1337 36.7856 21.8579 36.9879C22.5821 37.1903 23.3585 37.1006 24.0153 36.7386C24.6609 36.3682 25.4303 36.2668 26.1524 36.4567C26.8744 36.6467 27.4894 37.1124 27.8606 37.7503C28.104 38.1535 28.2348 38.6128 28.2397 39.0816C28.2397 40.6182 29.5067 41.8638 31.0696 41.8638H32.9246C34.4822 41.8638 35.747 40.6263 35.7544 39.0949C35.7508 38.3559 36.0478 37.6461 36.5793 37.1236C37.1108 36.6011 37.8326 36.3091 38.5843 36.3126C39.06 36.3251 39.5251 36.4532 39.9383 36.6854C41.2885 37.4503 43.0136 36.998 43.7972 35.6736L44.772 34.0762C45.1494 33.4394 45.253 32.681 45.0598 31.9688C44.8667 31.2567 44.3928 30.6497 43.743 30.2822C43.0933 29.9147 42.6193 29.3077 42.4262 28.5956C42.233 27.8835 42.3366 27.125 42.714 26.4882C42.9594 26.067 43.3146 25.7178 43.743 25.4765C45.0819 24.7065 45.5409 23.0204 44.772 21.6958V21.6825Z" fill="#212B35" fill-opacity="0.06" stroke="#212B35" stroke-linecap="round" stroke-linejoin="round"/>
<ellipse cx="32.0284" cy="27.8847" rx="3.89951" ry="3.83391" stroke="#212B35" stroke-linecap="round" stroke-linejoin="round"/>
<path d="M56.6655 27.0652C56.6655 13.4421 45.6218 2.39844 31.9987 2.39844C18.3757 2.39844 7.33203 13.4421 7.33203 27.0652" stroke="#212B35" stroke-linecap="round"/>
<path d="M2.39844 34.9578C2.39844 30.5984 5.93241 27.0645 10.2918 27.0645V27.0645C11.3816 27.0645 12.2651 27.9479 12.2651 29.0378V44.0023C12.2651 45.0921 11.3816 45.9756 10.2918 45.9756V45.9756C5.93241 45.9756 2.39844 42.4416 2.39844 38.0823V34.9578Z" stroke="#212B35" stroke-linecap="round"/>
<path d="M61.5977 34.9578C61.5977 30.5984 58.0637 27.0645 53.7043 27.0645V27.0645C52.6145 27.0645 51.731 27.9479 51.731 29.0378V44.0023C51.731 45.0921 52.6145 45.9756 53.7043 45.9756V45.9756C58.0637 45.9756 61.5977 42.4416 61.5977 38.0823V34.9578Z" stroke="#212B35" stroke-linecap="round"/>
<path d="M56.6653 46.0254V48.1987C56.6653 53.81 52.1165 58.3587 46.5053 58.3587H41.8652" stroke="#212B35" stroke-linecap="round"/>
<rect x="30.3555" y="55.0195" width="11.5111" height="6.57779" rx="3.2889" stroke="#212B35" stroke-linecap="round"/>
</svg>
