<svg xmlns="http://www.w3.org/2000/svg" width="64" height="64" fill="none" stroke="#fff" xmlns:v="https://vecta.io/nano"><g stroke-linejoin="round"><path fill-rule="evenodd" d="M44.514 21.891l-.902-1.539a2.8 2.8 0 0 0-3.781-1.004 2.8 2.8 0 0 1-2.094.288c-.709-.181-1.316-.632-1.687-1.254-.239-.395-.367-.845-.371-1.304a2.7 2.7 0 0 0-.783-1.978c-.522-.528-1.24-.826-1.989-.826h-1.818c-.734 0-1.438.288-1.956.799A2.69 2.69 0 0 0 28.329 17c-.022 1.49-1.257 2.687-2.773 2.687a2.69 2.69 0 0 1-1.327-.365 2.8 2.8 0 0 0-3.781 1.004l-.968 1.565c-.762 1.301-.311 2.963 1.008 3.717.858.487 1.386 1.387 1.386 2.361s-.529 1.874-1.386 2.361c-1.318.75-1.769 2.408-1.008 3.704l.915 1.552c.358.634.958 1.102 1.667 1.301s1.47.11 2.114-.244c.633-.363 1.386-.462 2.094-.276a2.74 2.74 0 0 1 1.674 1.267c.238.395.367.845.371 1.304 0 1.506 1.241 2.726 2.773 2.726h1.818c1.526 0 2.765-1.213 2.773-2.713a2.69 2.69 0 0 1 .808-1.931c.521-.512 1.228-.798 1.965-.795.466.012.922.138 1.327.365a2.8 2.8 0 0 0 3.781-.991l.955-1.565c.37-.624.471-1.367.282-2.065a2.72 2.72 0 0 0-1.29-1.653 2.72 2.72 0 0 1-1.29-1.653c-.189-.698-.088-1.441.282-2.065.241-.413.589-.755 1.008-.991 1.312-.755 1.762-2.407 1.008-3.704v-.013z" fill="#212b35" fill-opacity=".06"/><ellipse cx="32.028" cy="27.967" rx="3.821" ry="3.757"/></g><path d="M56.167 27.165c0-13.348-10.821-24.169-24.169-24.169S7.83 13.817 7.83 27.165" stroke-linecap="round"/><path d="M2.996 34.898c0-4.271 3.463-7.734 7.734-7.734h0c1.068 0 1.934.866 1.934 1.933V43.76c0 1.068-.866 1.933-1.934 1.933h0c-4.271 0-7.734-3.463-7.734-7.734v-3.061zm58.004 0c0-4.271-3.463-7.734-7.734-7.734h0c-1.068 0-1.933.866-1.933 1.933V43.76c0 1.068.866 1.933 1.933 1.933h0c4.271 0 7.734-3.463 7.734-7.734v-3.061z"/><path d="M56.167 45.742v1.924c0 5.611-4.549 10.16-10.16 10.16h-4.341" stroke-linecap="round"/><rect x="30.389" y="54.555" width="11.279" height="6.445" rx="3.222"/></svg>