<svg width="60" height="60" viewBox="0 0 60 60" fill="none" xmlns="http://www.w3.org/2000/svg">
<path d="M2 50.0018V9.28753C2 8.15089 2.45153 7.0608 3.25526 6.25708C4.05898 5.45335 5.14907 5.00182 6.28571 5.00182H22.1C23.079 4.9733 24.0382 5.28096 24.818 5.87359C25.5978 6.46622 26.1511 7.30806 26.3857 8.25896L27.7143 13.5732H53.4286C54.5652 13.5732 55.6553 14.0248 56.459 14.8285C57.2628 15.6322 57.7143 16.7223 57.7143 17.859V50.0018C57.7143 51.1385 57.2628 52.2285 56.459 53.0323C55.6553 53.836 54.5652 54.2875 53.4286 54.2875H6.28571C5.14907 54.2875 4.05898 53.836 3.25526 53.0323C2.45153 52.2285 2 51.1385 2 50.0018Z" stroke="#000001" stroke-linecap="round" stroke-linejoin="round"/>
<path d="M25.6359 25.2859C26.1764 25.8138 26.4978 26.5263 26.5359 27.2809L29.2809 24.5509C29.3751 24.4452 29.4907 24.3606 29.62 24.3027C29.7492 24.2448 29.8892 24.2148 30.0309 24.2148C30.1725 24.2148 30.3125 24.2448 30.4418 24.3027C30.571 24.3606 30.6866 24.4452 30.7809 24.5509L33.0009 26.8609C32.6856 27.0138 32.3969 27.2164 32.1459 27.4609C31.6116 28.0484 31.324 28.8191 31.3429 29.613C31.3617 30.4069 31.6855 31.1631 32.2471 31.7247C32.8086 32.2862 33.5648 32.61 34.3587 32.6288C35.1526 32.6477 35.9233 32.3601 36.5109 31.8259C36.7554 31.5749 36.958 31.2862 37.1109 30.9709L39.4509 33.2809C39.5566 33.3751 39.6411 33.4907 39.6991 33.62C39.757 33.7492 39.7869 33.8892 39.7869 34.0309C39.7869 34.1725 39.757 34.3125 39.6991 34.4418C39.6411 34.571 39.5566 34.6866 39.4509 34.7809L36.7209 37.4659C37.3122 37.5016 37.8805 37.7074 38.3577 38.0585C38.8348 38.4095 39.2004 38.891 39.4104 39.4448C39.6205 39.9987 39.6661 40.6015 39.5418 41.1806C39.4175 41.7598 39.1285 42.2907 38.7096 42.7096C38.2907 43.1285 37.7598 43.4175 37.1806 43.5418C36.6015 43.6661 35.9987 43.6205 35.4448 43.4104C34.891 43.2004 34.4095 42.8348 34.0585 42.3577C33.7074 41.8805 33.5016 41.3122 33.4659 40.7209L30.7209 43.4509C30.6266 43.5566 30.511 43.6411 30.3818 43.6991C30.2525 43.757 30.1125 43.7869 29.9709 43.7869C29.8292 43.7869 29.6892 43.757 29.56 43.6991C29.4307 43.6411 29.3151 43.5566 29.2209 43.4509L27.0009 41.1409C27.3162 40.988 27.6049 40.7854 27.8559 40.5409C28.4347 39.9581 28.7583 39.1692 28.7555 38.3478C28.7527 37.5264 28.4237 36.7397 27.8409 36.1609C27.2581 35.582 26.4692 35.2584 25.6478 35.2612C24.8264 35.2641 24.0397 35.5931 23.4609 36.1759C23.2164 36.4269 23.0138 36.7156 22.8609 37.0309L20.5509 34.7209C20.4452 34.6266 20.3606 34.511 20.3027 34.3818C20.2448 34.2525 20.2148 34.1125 20.2148 33.9709C20.2148 33.8292 20.2448 33.6892 20.3027 33.56C20.3606 33.4307 20.4452 33.3151 20.5509 33.2209L23.2809 30.5359C22.5263 30.4978 21.8138 30.1764 21.2859 29.6359C20.709 29.059 20.385 28.2767 20.385 27.4609C20.385 26.6451 20.709 25.8627 21.2859 25.2859C21.8627 24.709 22.6451 24.385 23.4609 24.385C24.2767 24.385 25.059 24.709 25.6359 25.2859Z" fill="#212B35" fill-opacity="0.06" stroke="#212B35" stroke-linecap="round" stroke-linejoin="round"/>
</svg>
