<svg width="60" height="60" viewBox="0 0 60 60" fill="none" xmlns="http://www.w3.org/2000/svg">
<path d="M56.1925 56.9989H3.80967C3.7487 56.9989 3.70079 56.9989 3.66051 56.9989C3.49128 56.9916 3.33077 56.9218 3.21009 56.8029C3.08941 56.684 3.01715 56.5246 3.00733 56.3555C2.99997 56.2566 2.99815 56.1573 3.00188 56.0583V56.0419C3.00188 56.0027 3.00188 55.9635 3.00188 55.9243V7.6184C3.00188 7.54328 3.00188 7.46815 3.00188 7.39303C3.02148 6.90419 3.26316 6.65596 3.74216 6.63092C3.79006 6.63092 3.83796 6.63092 3.88586 6.63092H4.12863H17.5188V5.57921C17.5188 4.96625 17.5188 4.3816 17.5188 3.80022C17.5188 3.45835 17.6135 3.25585 17.8345 3.12956C17.9891 3.05482 18.1582 3.01469 18.3298 3.01197C18.4942 3.00435 18.6738 3 18.8948 3C19.0255 3 19.155 3 19.2857 3H19.6798H41.2804H41.5602C41.6146 3 41.6691 3 41.7246 3C42.2134 3.0196 42.4659 3.26892 42.4757 3.74034C42.4855 4.21176 42.4834 4.70931 42.4823 5.18291V5.19924C42.4823 5.41699 42.4823 5.62167 42.4823 5.83397V6.62765H56.0554H56.1805C56.2383 6.627 56.2961 6.62954 56.3536 6.63528C56.5223 6.64518 56.6812 6.71759 56.7994 6.83838C56.9176 6.95916 56.9865 7.11965 56.9927 7.28852C57 7.38741 57.0018 7.48664 56.9981 7.58574C56.9981 7.63146 56.9981 7.6761 56.9981 7.72074V55.9156C56.9981 55.9592 56.9981 56.0038 56.9981 56.0485C57.0019 56.1479 57.0001 56.2475 56.9927 56.3468C56.9834 56.5162 56.9113 56.676 56.7905 56.7952C56.6698 56.9143 56.509 56.9842 56.3395 56.9913C56.2907 56.9963 56.2416 56.9989 56.1925 56.9989ZM40.7034 55.5716L40.9048 55.589C41.558 55.6445 44.8903 55.65 46.2936 55.65C49.1327 55.65 55.1028 55.6217 55.4381 55.5313L55.5905 55.4899L55.6003 55.3332C55.7244 53.3255 55.6547 12.2542 55.5263 11.822L55.4805 11.6641H42.4801V12.1192C42.4801 12.2782 42.4801 12.4284 42.4801 12.5787C42.4725 13.2025 42.2428 13.4388 41.6342 13.4497H40.7045L40.7034 55.5716ZM4.4095 55.601H39.2556V13.4486H20.3536C20.1577 13.4486 19.9617 13.4486 19.7668 13.4486H19.7396C19.5328 13.4486 19.327 13.4486 19.1202 13.4486C18.8056 13.4486 18.5454 13.4486 18.3026 13.4649H18.27C18.163 13.4637 18.0575 13.4407 17.9598 13.3973C17.8621 13.3538 17.7742 13.2909 17.7017 13.2123C17.6341 13.1398 17.5826 13.0538 17.5507 12.96C17.5188 12.8662 17.5072 12.7666 17.5166 12.6679C17.528 12.4838 17.528 12.299 17.5166 12.1149C17.5166 12.0365 17.5112 11.9592 17.5112 11.8841V11.6663H4.4095V55.601ZM33.0242 4.3435C28.7971 4.3435 19.4163 4.37507 19.0832 4.47088L18.9231 4.51551V12.0517H41.0681V4.42406L40.8656 4.40882C40.108 4.35003 35.1285 4.3435 33.0242 4.3435ZM42.5128 10.2411H55.5764V8.0332H42.5128V10.2411ZM4.40297 10.2226H17.4764V8.03429H4.40079L4.40297 10.2226Z" fill="#212B35"/>
<path d="M18.7912 53.7641V52.4424C18.997 52.4315 19.2267 52.4272 19.5086 52.4272H19.9855H20.0159H20.4775C20.7704 52.4272 21.0099 52.4272 21.233 52.4119L21.4421 52.4011V44.7375L16.2515 44.7244H16.0392H15.9183C15.6288 44.7146 15.4056 44.6253 15.2728 44.4631C15.2075 44.3732 15.1623 44.2702 15.1403 44.1613C15.1183 44.0523 15.12 43.9399 15.1454 43.8316C15.3207 42.7647 17.4664 29.9296 17.6885 28.6689C17.7973 28.045 17.7505 27.5671 17.5262 27.0728C16.9961 25.897 16.4833 24.6896 15.9869 23.5235L15.9651 23.4713C15.7336 22.9255 15.501 22.3811 15.2673 21.8382C15.0877 21.4212 15.0823 21.2013 15.2488 20.9955C15.3783 20.851 15.5357 20.7344 15.7115 20.6525C16.7446 20.1212 17.6112 19.689 18.4331 19.2916C18.5798 19.227 18.7104 19.1307 18.8156 19.0097C18.9208 18.8887 18.998 18.7459 19.0416 18.5916C19.2332 17.9699 19.4444 17.3537 19.6447 16.7745C19.8265 16.2475 19.9713 16.1408 20.5156 16.1387H22.1486H23.8022C24.3465 16.1387 24.4978 16.2476 24.6786 16.7723C24.8908 17.3875 25.0977 17.9884 25.2795 18.5872C25.3232 18.7416 25.4006 18.8845 25.506 19.0055C25.6114 19.1265 25.7422 19.2228 25.8891 19.2873C26.4857 19.5747 27.0866 19.8763 27.6593 20.167L28.3636 20.5208L28.4725 20.572C28.5258 20.5981 28.5715 20.6199 28.6161 20.6438C29.2345 20.9705 29.3259 21.2111 29.0614 21.8338C28.758 22.5495 28.4514 23.2641 28.1415 23.9775L27.5667 25.3123C27.4644 25.5518 27.3624 25.7925 27.2608 26.0342C27.0801 26.4631 26.8939 26.9051 26.7023 27.3352C26.569 27.6098 26.5255 27.9196 26.5782 28.2203C26.7959 29.4887 27.0017 30.7462 27.2184 32.0777V32.094C27.275 32.4392 27.8389 35.7957 27.8443 35.8273C27.889 36.0908 28.1045 37.3385 28.3538 38.7821C28.7163 40.8823 29.167 43.4941 29.1931 43.6727V43.6901C29.2256 43.8383 29.2289 43.9914 29.2029 44.1408C29.1739 44.2849 29.0972 44.4149 28.9852 44.5099C28.8313 44.6232 28.6496 44.6928 28.4594 44.7114C28.393 44.7201 22.8856 44.7277 22.8856 44.7277V52.4217H25.5429V53.7609L18.7912 53.7641ZM16.7283 21.6814L16.8012 21.8676C16.8274 21.9351 16.8513 21.9982 16.8742 22.0592C16.9199 22.1811 16.9678 22.3042 17.0179 22.4228L17.2018 22.8583C17.8093 24.2737 18.4374 25.7456 19.0699 27.2078C19.1853 27.4756 19.2528 27.7065 19.2082 27.9569C19.0765 28.683 18.9458 29.4332 18.8195 30.1866C18.6105 31.4299 16.7174 42.9443 16.6967 43.088L16.6608 43.3384H27.6788L27.6593 43.2122C27.6593 43.1904 27.3174 41.0216 27.19 40.278L27.1791 40.2127C27.0209 39.296 26.8645 38.3789 26.7099 37.4615C26.551 36.5143 26.3939 35.5675 26.2386 34.621L26.2331 34.5872C25.9065 32.6406 25.58 30.6264 25.2305 28.6504C25.0957 27.9951 25.1779 27.3137 25.4646 26.7092C25.9457 25.6716 26.3975 24.6014 26.8352 23.5671C27.0017 23.1719 27.1617 22.7843 27.3305 22.3989C27.3816 22.2802 27.4219 22.1615 27.4644 22.0363C27.4851 21.9765 27.5046 21.9177 27.5264 21.8578L27.5917 21.6738L24.9377 20.3531L24.4685 20.6624C24.2235 20.8235 23.9916 20.9748 23.7609 21.1349C23.2252 21.505 22.6886 21.6923 22.1638 21.6923C21.6391 21.6923 21.1165 21.5083 20.5918 21.1479C20.3447 20.9781 20.0889 20.8115 19.8429 20.6515L19.8026 20.6253L19.4956 20.4239L19.3867 20.3542L16.7283 21.6814ZM20.2729 19.2655L20.4133 19.3581C20.5418 19.443 20.668 19.5268 20.7921 19.6106C21.0915 19.811 21.3713 19.9982 21.6631 20.1768C21.8144 20.2712 21.9887 20.322 22.1671 20.3238C22.3361 20.3236 22.5017 20.2761 22.645 20.1866C22.9476 20.0037 23.2481 19.8044 23.5388 19.6128L23.9252 19.3591L24.0679 19.2666L23.4843 17.5366H20.8444L20.2729 19.2655Z" fill="#E7B900"/>
<path d="M46.9668 46.685C45.0671 46.685 43.6094 46.6664 42.9258 46.6338V45.2979L43.8326 45.2413V44.4574C43.8326 44.1068 43.8326 43.7552 43.8326 43.4035V43.3578C43.8381 42.4868 43.8446 41.594 43.8163 40.7122C43.8081 40.5909 43.8243 40.4692 43.8642 40.3543C43.904 40.2395 43.9666 40.1338 44.0482 40.0437C44.1171 39.973 44.1998 39.9172 44.2912 39.8797C44.3826 39.8422 44.4807 39.824 44.5794 39.8259C44.6158 39.8259 44.6522 39.8281 44.6883 39.8325C44.7743 39.8418 44.8608 39.8461 44.9474 39.8455H45.1531C45.2381 39.8455 45.3262 39.8455 45.4242 39.8455H45.6419V39.311C45.6419 39.1074 45.6419 38.9212 45.6419 38.735C45.6401 38.405 45.7034 38.0779 45.8284 37.7724C45.9534 37.467 46.1376 37.1892 46.3703 36.9552C46.603 36.7212 46.8796 36.5355 47.1843 36.4087C47.489 36.282 47.8158 36.2168 48.1458 36.2168C49.5316 36.2168 50.629 37.336 50.642 38.7568C50.642 38.9277 50.642 39.0998 50.642 39.2903V39.8347L51.5935 39.8488C52.2195 39.8575 52.4524 40.0872 52.4557 40.6969C52.4557 41.5505 52.4557 42.4041 52.4557 43.2576V44.7198C52.4557 44.784 52.4557 44.8494 52.4644 44.9288C52.4644 44.9669 52.4699 45.0083 52.4731 45.0551L52.4829 45.2511L53.3299 45.3023V46.6087C52.5994 46.6447 49.8364 46.685 46.9668 46.685ZM45.2446 45.2315L45.446 45.2478C45.8999 45.2837 46.7295 45.3044 47.7212 45.3044C49.0515 45.3044 50.6137 45.2674 50.9011 45.1879L51.0612 45.1422V41.2348H45.2446V45.2315ZM48.1425 37.5875C47.8618 37.5876 47.5914 37.6933 47.385 37.8834C47.1785 38.0736 47.051 38.3344 47.0278 38.6142C47.0116 38.8399 47.0079 39.0663 47.0169 39.2925C47.0169 39.3926 47.0169 39.495 47.0169 39.5984V39.8161H49.2638V39.5984C49.2638 39.4895 49.2638 39.3872 49.2638 39.287C49.2638 39.0693 49.2714 38.8515 49.254 38.6425C49.2385 38.3618 49.1177 38.0972 48.9157 37.9017C48.7137 37.7061 48.4454 37.5939 48.1643 37.5875H48.1425Z" fill="#212B35"/>
<path d="M42.957 29.2709V27.9416H43.9074L43.9433 27.7641C43.9662 27.6432 43.9912 27.5246 44.0152 27.407C44.0653 27.1609 44.1175 26.9073 44.1599 26.6547L44.2938 25.8817C44.4408 25.039 44.5921 24.1669 44.7119 23.3003C44.7827 22.7897 44.9971 22.5523 45.4739 22.4533L45.6492 22.4173V21.9459C45.6492 21.7499 45.6492 21.5507 45.6492 21.3526C45.6853 20.7164 45.9624 20.118 46.4243 19.6791C46.8861 19.2402 47.4978 18.9939 48.1349 18.9903C48.7719 18.9867 49.3864 19.2261 49.8532 19.6597C50.3199 20.0933 50.6039 20.6886 50.6471 21.3242C50.6471 21.5289 50.6471 21.7282 50.6471 21.9383C50.6471 22.0363 50.6471 22.4152 50.6471 22.4152L50.8235 22.4511C51.2938 22.5458 51.517 22.8006 51.5855 23.3297C51.726 24.3215 51.9001 25.3232 52.0678 26.2921L52.0819 26.3716C52.1353 26.6797 52.1908 26.9878 52.242 27.2959C52.2619 27.4034 52.2884 27.5096 52.3214 27.6138V27.6247C52.3345 27.6694 52.3476 27.7151 52.3606 27.763L52.4042 27.9252H53.3175V29.2709H42.957ZM45.3455 27.9078H50.9606L50.2868 23.8849H46.0084L45.3455 27.9078ZM48.1433 20.2366C47.8594 20.2367 47.5863 20.3451 47.3797 20.5397C47.1732 20.7344 47.0487 21.0006 47.0318 21.284C47.0179 21.4971 47.015 21.7107 47.0231 21.9241C47.0231 22.0265 47.0231 22.1266 47.0231 22.2301V22.4478H49.2689V22.2301C49.2689 22.1212 49.2689 22.0254 49.2689 21.9274C49.2777 21.7096 49.2744 21.4916 49.2591 21.2742C49.2397 20.9918 49.1134 20.7275 48.9058 20.5351C48.6983 20.3427 48.4252 20.2367 48.1422 20.2388H48.1346L48.1433 20.2366Z" fill="#212B35"/>
<path d="M21.1758 8.87484V7.56836H35.2192V7.6032C35.2192 7.80461 35.2192 8.0093 35.2192 8.21507C35.2192 8.42084 35.2192 8.59829 35.2192 8.80189V8.87484H21.1758Z" fill="#212B35"/>
<path d="M38.8189 7.58398H37.4961V8.8774H38.8189V7.58398Z" fill="#212B35"/>
</svg>
