<svg width="64" height="64" viewBox="0 0 64 64" fill="none" xmlns="http://www.w3.org/2000/svg">
<path opacity="0.06" d="M38.2109 18.5357V3L56.8538 21.6429H41.3181C38.8324 21.6429 38.2109 19.5714 38.2109 18.5357Z" fill="#212B35"/>
<path d="M38.2121 3H10.1406C8.48377 3 7.14062 4.34315 7.14062 6V58C7.14062 59.6569 8.48377 61 10.1406 61H53.8549C55.5118 61 56.8549 59.6569 56.8549 58V21.6429M38.2121 3V18.6429C38.2121 20.2997 39.5552 21.6429 41.2121 21.6429H56.8549M38.2121 3L56.8549 21.6429" stroke="#212B35" stroke-linecap="round" stroke-linejoin="round"/>
<path d="M23.6366 46.07C23.4033 46.07 23.2073 45.9953 23.0486 45.846C22.8993 45.6873 22.8246 45.496 22.8246 45.272C22.8246 45.048 22.8993 44.8613 23.0486 44.712C23.2073 44.5533 23.4033 44.474 23.6366 44.474C23.8606 44.474 24.0473 44.5533 24.1966 44.712C24.3553 44.8613 24.4346 45.048 24.4346 45.272C24.4346 45.496 24.3553 45.6873 24.1966 45.846C24.0473 45.9953 23.8606 46.07 23.6366 46.07ZM26.343 46V40.05H25.293V39.056H26.343V37.852C26.343 37.18 26.511 36.69 26.847 36.382C27.183 36.074 27.673 35.92 28.317 35.92H29.017V36.928H28.499C28.1444 36.928 27.8924 37.0027 27.743 37.152C27.5937 37.292 27.519 37.5347 27.519 37.88V39.056H29.227V40.05H27.519V46H26.343ZM31.3411 37.516C31.1078 37.516 30.9118 37.4413 30.7531 37.292C30.6038 37.1333 30.5291 36.9373 30.5291 36.704C30.5291 36.48 30.6038 36.2933 30.7531 36.144C30.9118 35.9947 31.1078 35.92 31.3411 35.92C31.5651 35.92 31.7565 35.9947 31.9151 36.144C32.0738 36.2933 32.1531 36.48 32.1531 36.704C32.1531 36.9373 32.0738 37.1333 31.9151 37.292C31.7565 37.4413 31.5651 37.516 31.3411 37.516ZM30.7531 46V39.056H31.9291V46H30.7531ZM36.7207 43.816C36.3287 43.816 35.9694 43.7647 35.6427 43.662L34.9427 44.32C35.0454 44.3947 35.1714 44.46 35.3207 44.516C35.4794 44.5627 35.7034 44.6093 35.9927 44.656C36.2821 44.6933 36.6881 44.7353 37.2107 44.782C38.1441 44.8473 38.8114 45.062 39.2127 45.426C39.6141 45.79 39.8147 46.266 39.8147 46.854C39.8147 47.2553 39.7027 47.638 39.4787 48.002C39.2641 48.366 38.9281 48.6647 38.4707 48.898C38.0227 49.1313 37.4441 49.248 36.7347 49.248C36.1094 49.248 35.5541 49.164 35.0687 48.996C34.5834 48.8373 34.2054 48.59 33.9347 48.254C33.6641 47.9273 33.5287 47.512 33.5287 47.008C33.5287 46.7467 33.5987 46.462 33.7387 46.154C33.8787 45.8553 34.1401 45.5707 34.5227 45.3C34.3174 45.216 34.1401 45.1273 33.9907 45.034C33.8507 44.9313 33.7201 44.8193 33.5987 44.698V44.376L34.7887 43.2C34.2381 42.7333 33.9627 42.1173 33.9627 41.352C33.9627 40.8947 34.0701 40.4793 34.2847 40.106C34.4994 39.7327 34.8121 39.4387 35.2227 39.224C35.6334 39 36.1327 38.888 36.7207 38.888C37.1221 38.888 37.4861 38.944 37.8127 39.056H40.3747V39.938L39.0727 39.994C39.3434 40.386 39.4787 40.8387 39.4787 41.352C39.4787 41.8093 39.3667 42.2247 39.1427 42.598C38.9281 42.9713 38.6154 43.27 38.2047 43.494C37.8034 43.7087 37.3087 43.816 36.7207 43.816ZM36.7207 42.85C37.2154 42.85 37.6074 42.724 37.8967 42.472C38.1954 42.2107 38.3447 41.8373 38.3447 41.352C38.3447 40.876 38.1954 40.512 37.8967 40.26C37.6074 39.9987 37.2154 39.868 36.7207 39.868C36.2167 39.868 35.8154 39.9987 35.5167 40.26C35.2274 40.512 35.0827 40.876 35.0827 41.352C35.0827 41.8373 35.2274 42.2107 35.5167 42.472C35.8154 42.724 36.2167 42.85 36.7207 42.85ZM34.6767 46.896C34.6767 47.3627 34.8727 47.708 35.2647 47.932C35.6567 48.1653 36.1467 48.282 36.7347 48.282C37.3134 48.282 37.7754 48.156 38.1207 47.904C38.4754 47.652 38.6527 47.316 38.6527 46.896C38.6527 46.5973 38.5314 46.336 38.2887 46.112C38.0461 45.8973 37.5981 45.7713 36.9447 45.734C36.4314 45.6967 35.9881 45.65 35.6147 45.594C35.2321 45.7993 34.9801 46.0187 34.8587 46.252C34.7374 46.4947 34.6767 46.7093 34.6767 46.896Z" fill="black"/>
</svg>
