<svg width="60" height="60" viewBox="0 0 60 60" fill="none" xmlns="http://www.w3.org/2000/svg">
<path opacity="0.06" d="M2 15H25V22C25 23.6569 23.6569 25 22 25H5C3.34315 25 2 23.6569 2 22V15Z" fill="#212B35"/>
<path d="M22.4997 2.14258H4.28544C3.10197 2.14258 2.14258 3.10197 2.14258 4.28544V22.4997C2.14258 23.6832 3.10197 24.6426 4.28544 24.6426H22.4997C23.6832 24.6426 24.6426 23.6832 24.6426 22.4997V4.28544C24.6426 3.10197 23.6832 2.14258 22.4997 2.14258Z" stroke="#000001" stroke-linecap="round" stroke-linejoin="round"/>
<path d="M55.7146 2.14258H37.5003C36.3168 2.14258 35.3574 3.10197 35.3574 4.28544V22.4997C35.3574 23.6832 36.3168 24.6426 37.5003 24.6426H55.7146C56.898 24.6426 57.8574 23.6832 57.8574 22.4997V4.28544C57.8574 3.10197 56.898 2.14258 55.7146 2.14258Z" stroke="#000001" stroke-linecap="round" stroke-linejoin="round"/>
<path opacity="0.06" d="M35 15H58V22C58 23.6569 56.6569 25 55 25H38C36.3431 25 35 23.6569 35 22V15Z" fill="#212B35"/>
<path d="M22.4997 35.3574H4.28544C3.10197 35.3574 2.14258 36.3168 2.14258 37.5003V55.7146C2.14258 56.898 3.10197 57.8574 4.28544 57.8574H22.4997C23.6832 57.8574 24.6426 56.898 24.6426 55.7146V37.5003C24.6426 36.3168 23.6832 35.3574 22.4997 35.3574Z" stroke="#000001" stroke-linecap="round" stroke-linejoin="round"/>
<path opacity="0.06" d="M2 48H25V55C25 56.6569 23.6569 58 22 58H5C3.34315 58 2 56.6569 2 55V48Z" fill="#212B35"/>
<path d="M55.7146 35.3574H37.5003C36.3168 35.3574 35.3574 36.3168 35.3574 37.5003V55.7146C35.3574 56.898 36.3168 57.8574 37.5003 57.8574H55.7146C56.898 57.8574 57.8574 56.898 57.8574 55.7146V37.5003C57.8574 36.3168 56.898 35.3574 55.7146 35.3574Z" stroke="#000001" stroke-linecap="round" stroke-linejoin="round"/>
<path opacity="0.06" d="M35 48H58V55C58 56.6569 56.6569 58 55 58H38C36.3431 58 35 56.6569 35 55V48Z" fill="#212B35"/>
<path d="M2.14258 15H24.6426" stroke="#000001" stroke-linecap="round" stroke-linejoin="round"/>
<path d="M35.3574 15H57.8574" stroke="#000001" stroke-linecap="round" stroke-linejoin="round"/>
<path d="M35.3574 48.2148H57.8574" stroke="#000001" stroke-linecap="round" stroke-linejoin="round"/>
<path d="M2.14258 48.2148H24.6426" stroke="#000001" stroke-linecap="round" stroke-linejoin="round"/>
</svg>
