<svg width="64" height="64" viewBox="0 0 64 64" fill="none" xmlns="http://www.w3.org/2000/svg">
<path opacity="0.06" d="M33.125 44.75H24.6875V49.4375H33.125V44.75Z" fill="#212B35"/>
<rect x="42.5" y="23.5" width="17" height="29" rx="1.5" fill="#212B35" fill-opacity="0.06" stroke="#212B35"/>
<path d="M43 45H7.60274C6.91265 44.9994 6.251 44.7493 5.76303 44.3047C5.27506 43.86 5.00064 43.2571 5 42.6282V10.3718C5.00064 9.74293 5.27506 9.14 5.76303 8.69532C6.251 8.25065 6.91265 8.00058 7.60274 8H32.2073V8.94872H7.60274C7.1887 8.94913 6.79176 9.09919 6.49899 9.36598C6.20622 9.63277 6.04155 9.9945 6.0411 10.3718V42.6282C6.04155 43.0055 6.20622 43.3672 6.49899 43.634C6.79176 43.9008 7.1887 44.0509 7.60274 44.0513H43V45Z" fill="#212B35"/>
<path d="M53 23.5H52.04V10.3214C52.0396 9.95214 51.8877 9.5981 51.6178 9.33698C51.3478 9.07585 50.9818 8.92897 50.6 8.92857H29V8H50.6C51.2363 8.00057 51.8464 8.24533 52.2964 8.68056C52.7464 9.11579 52.9994 9.70592 53 10.3214V23.5Z" fill="#212B35"/>
<path d="M24.6875 44.75H23.75V53.1875H24.6875V44.75Z" fill="#212B35"/>
<path d="M34.0625 44.75H33.125V53.1875H34.0625V44.75Z" fill="#212B35"/>
<path d="M41.5625 55.0625H16.25V56H41.5625V55.0625Z" fill="#212B35"/>
<path d="M43 38H6V39H43V38Z" fill="#212B35"/>
<path d="M31.2957 28.2651H29.4027L28.0951 24.1096L26.7536 28.2556H24.8519C24.5501 27.7418 24.1956 27.1268 23.875 26.5793L24.8222 23.5452L25.9076 25.6428L27.4041 21.0117H28.8926L30.2913 25.6546L32.2531 21.0117H34.1728L31.2957 28.2651Z" fill="#212B35"/>
<path d="M37.9993 28.2615H36.0144L35.5484 26.9477H33.0078L33.5266 25.5592H35.0976L34.382 23.4366L35.2937 21.0059L37.9993 28.2615Z" fill="#212B35"/>
<path d="M19 21.0049H20.4581C21.0124 21.0049 21.5674 20.991 22.1224 21.0101C22.629 21.0277 23.1217 21.1385 23.5436 21.4504C23.6911 21.5546 23.8232 21.6797 23.9358 21.8218C24.0033 21.9073 24.0391 22.014 24.0371 22.1234C23.7115 23.2038 22.9517 25.5942 22.9517 25.5942C22.7158 25.7134 22.4555 25.7748 22.1919 25.7733C21.736 25.7835 21.2801 25.7733 20.8011 25.7733V28.251H19V21.0049ZM20.7996 24.3759C21.0616 24.3759 21.2903 24.3876 21.5175 24.3722C21.7053 24.3676 21.8915 24.3357 22.0703 24.2775C22.7064 24.039 22.7216 23.1693 22.4278 22.7862C22.3286 22.6585 22.1832 22.5264 22.0356 22.4882C21.6306 22.3932 21.2125 22.3699 20.7996 22.4192V24.3759Z" fill="#212B35"/>
</svg>
