<svg width="60" height="60" viewBox="0 0 60 60" fill="none" xmlns="http://www.w3.org/2000/svg">
<path d="M39.028 34C38.8828 34 38.6941 33.9102 38.3527 33.6752C35.0422 31.4279 32.4302 29.3798 30.132 27.2288C27.2528 24.5355 25.2557 22.0727 23.8415 19.4801C22.7592 17.4937 22.1709 15.635 22.0394 13.7979C21.837 10.8946 22.7444 8.46109 24.7352 6.56667C26.5214 4.86602 28.6118 4.00325 30.9482 4.00325C31.1676 4.00325 31.3924 4.01191 31.615 4.02706C33.7277 4.16996 35.6581 4.99376 37.3531 6.4779C37.6637 6.74961 37.9563 7.03973 38.2669 7.34392L38.2849 7.36124C38.4248 7.4998 38.5658 7.63945 38.7089 7.78017L38.9973 8.05947L39.292 7.78667C39.4785 7.61238 39.6609 7.43702 39.8432 7.26273C40.2333 6.88709 40.6022 6.53311 41.0008 6.21051C42.8167 4.74369 44.8477 4 47.0431 4C47.2488 4 47.4587 4.00758 47.6675 4.02057C49.4897 4.12882 51.1827 4.80431 52.6975 6.01458C54.5961 7.53011 55.6954 9.5252 55.9667 11.9425C56.1544 13.6161 55.9211 15.3167 55.2522 17.1386C54.5409 19.0871 53.4385 20.9826 51.8834 22.9507C49.8692 25.5044 47.3611 27.9303 44.2244 30.3606C43.0202 31.2948 41.7524 32.2008 40.5259 33.0669L40.3934 33.1621L39.6587 33.685C39.3513 33.9015 39.1679 33.9935 39.0227 33.9935L39.028 34ZM31.0436 5.48955C30.3784 5.49164 29.7163 5.58225 29.074 5.7591C25.5949 6.70956 23.3497 9.74388 23.4939 13.3108C23.5518 14.524 23.8109 15.7184 24.2603 16.8431C25.049 18.8934 26.2882 20.8711 28.1624 23.0687C29.7531 24.9143 31.5068 26.6065 33.4012 28.1241C34.6012 29.0983 35.8531 30.0401 37.0637 30.957C37.6149 31.3738 38.1619 31.7873 38.71 32.2073L38.958 32.3979L39.2124 32.216C39.4679 32.0341 39.7149 31.8609 39.9545 31.691L39.9874 31.6682C40.5174 31.2937 41.0114 30.9462 41.499 30.5857C45.2495 27.8123 47.9039 25.4091 50.1078 22.7915C51.9332 20.6265 53.1268 18.6595 53.8625 16.606C54.4837 14.874 54.6735 13.261 54.4402 11.6881C53.9547 8.41778 51.0056 5.76235 47.5795 5.5177C47.3908 5.50363 47.199 5.49713 47.0124 5.49713C45.2378 5.49713 43.5354 6.12392 41.9506 7.35908C41.0713 8.05266 40.3068 8.88599 39.6863 9.82723C39.4934 10.113 39.2623 10.2711 39.0238 10.2711C38.7852 10.2711 38.5457 10.1119 38.3443 9.82398L38.2838 9.73305C38.2605 9.69625 38.2393 9.66377 38.2171 9.63238C37.4844 8.53558 36.5418 7.60171 35.4461 6.88709C34.0033 5.96261 32.5213 5.48955 31.0436 5.48955Z" fill="#212B35"/>
<path d="M43.2848 18.2422H34.7516C34.3452 18.2422 34.0156 18.5715 34.0156 18.9778V19.0193C34.0156 19.4255 34.3452 19.7549 34.7516 19.7549H43.2848C43.6913 19.7549 44.0208 19.4255 44.0208 19.0193V18.9778C44.0208 18.5715 43.6913 18.2422 43.2848 18.2422Z" fill="#E7B900"/>
<path d="M39.7773 23.2644V14.7356C39.7773 14.3294 39.448 14 39.0417 14H39.0003C38.594 14 38.2646 14.3294 38.2646 14.7356V23.2644C38.2646 23.6706 38.594 24 39.0003 24H39.0417C39.448 24 39.7773 23.6706 39.7773 23.2644Z" fill="#E7B900"/>
<path d="M32.0985 56.001C31.594 56.001 31.0496 55.981 30.3982 55.9401C27.3269 55.7483 24.4894 54.8068 21.1737 53.4523C19.1807 52.6387 17.5297 52.1187 15.9709 51.8136C14.9205 51.6056 13.8546 51.4856 12.7842 51.4551L12.3478 51.4425V51.8807C12.3478 51.974 12.3478 52.2078 12.3478 52.2078C12.3478 52.4343 12.3478 52.6482 12.3478 52.8641C12.3384 53.4324 12.0772 53.7029 11.5276 53.7029H6.31742C5.09749 53.7029 3.48525 53.7029 1.87302 53.7186C1.75851 53.7209 1.64472 53.6999 1.53854 53.657C1.43235 53.6142 1.33597 53.5502 1.2552 53.4691C1.17102 53.3808 1.10566 53.2764 1.0631 53.1621C1.02055 53.0479 1.00167 52.9261 1.00763 52.8044C1.03071 50.8942 1.02652 48.9567 1.02232 47.0832V46.95C1.02232 46.2581 1.02232 45.5665 1.02232 44.8753C1.02232 44.1491 1.02232 43.4232 1.02232 42.6977V42.6778C1.02756 40.8745 1.03282 39.0084 1.0024 37.1736C0.993161 37.0407 1.01068 36.9073 1.05392 36.7812C1.09716 36.6552 1.16525 36.5391 1.25415 36.4398C1.35449 36.3468 1.47246 36.2748 1.6011 36.2282C1.72974 36.1816 1.86643 36.1612 2.00309 36.1682H2.02197C3.1475 36.1808 4.25099 36.1829 5.087 36.1829H7.93911C8.75729 36.1829 9.83561 36.1829 10.9255 36.1955H10.9926C11.8709 36.1919 12.7387 36.0037 13.5395 35.643L14.0849 35.4039C14.88 35.0527 15.7013 34.691 16.5227 34.3985C17.5146 34.037 18.5613 33.8487 19.6171 33.8418C21.1034 33.8418 22.5887 34.2412 24.0331 35.0286C25.8405 36.0141 27.6562 37.0457 29.4122 38.0449L29.5254 38.1099C29.9457 38.358 30.4252 38.488 30.9132 38.4863H31.744C32.8192 38.4789 33.931 38.4726 35.0262 38.4726C36.1496 38.4726 37.1366 38.48 38.0461 38.4946C39.6971 38.5219 40.9401 39.2726 41.7405 40.7256C42.0747 41.3179 42.2506 41.9863 42.2513 42.6663C42.2511 42.8028 42.2438 42.9393 42.2293 43.0751L42.1118 44.1445L45.3006 42.9755C46.6915 42.4608 48.1328 41.9062 49.5174 41.3694C50.7153 40.906 51.9541 40.4258 53.1677 39.9729C53.7165 39.7589 54.2991 39.6449 54.888 39.6364C55.6467 39.6396 56.3884 39.8609 57.0247 40.2738C58.4219 41.1566 59.0838 42.4272 58.9915 44.0481C58.9013 45.6207 58.1293 46.7938 56.6964 47.533C55.5373 48.162 54.2985 48.7051 53.1006 49.2324L53.0324 49.2618L52.274 49.5962C48.6709 51.1992 44.9314 52.6125 41.7195 53.8108L41.6891 53.8224L41.6618 53.8381L41.601 53.8685C41.1668 54.0567 40.7211 54.2175 40.2667 54.3497L40.2384 54.3592L40.1796 54.3759L40.145 54.3854L39.4768 54.5667C38.0083 54.9641 36.5052 55.373 35.0136 55.72C34.0557 55.924 33.0777 56.0183 32.0985 56.001ZM19.595 35.298C18.5815 35.3081 17.5783 35.5032 16.6349 35.8736C16.2017 36.0382 15.779 36.2164 15.3478 36.3978C14.7185 36.6631 14.1017 36.9315 13.466 37.2051L12.3762 37.6748V49.9097L12.7506 49.9548C12.8283 49.9632 12.9048 49.9737 12.9814 49.9841C13.1461 50.0062 13.3307 50.0313 13.5153 50.0418C15.5828 50.1561 17.6429 50.5964 19.809 51.388C20.6167 51.6836 21.458 52.0044 22.1996 52.2864C23.172 52.6576 24.1758 53.0403 25.1734 53.3957C27.3384 54.1641 29.6196 54.5542 31.9171 54.5489C32.238 54.5489 32.5653 54.5416 32.8905 54.5269C34.4818 54.4535 36.0101 54.0677 37.4241 53.6609C38.1919 53.4397 38.9639 53.1975 39.7097 52.9627L40.2342 52.797C40.98 52.558 41.7646 52.2917 42.631 51.9814C47.108 50.3825 51.4842 48.357 55.2342 46.5831C56.2328 46.1113 57.1758 45.6647 57.4852 44.3814C57.5722 43.9897 57.5715 43.5836 57.4833 43.1921C57.3951 42.8007 57.2215 42.4335 56.9749 42.1168C56.7283 41.8001 56.4148 41.5418 56.0568 41.3602C55.6988 41.1786 55.3051 41.0783 54.9038 41.0664C54.68 41.0668 54.4573 41.0978 54.2419 41.1586C53.4268 41.3882 52.6286 41.6933 51.8555 41.9879C51.5796 42.0928 51.3048 42.1976 51.03 42.3025C47.8461 43.4767 44.6643 44.6533 41.4845 45.8325L39.8062 46.4531C39.1636 46.6937 38.4827 46.8162 37.7964 46.8148H37.7702C36.2471 46.8085 34.6234 46.8054 32.4961 46.8054H26.537C26.495 46.8054 26.452 46.8054 26.409 46.8054C25.9821 46.7896 25.659 46.4982 25.6412 46.1113C25.6234 45.7245 25.937 45.4068 26.3545 45.3649C26.408 45.3649 26.4688 45.3575 26.5475 45.3575H26.6817H26.8297H37.9758C39.2251 45.3575 40.2405 44.6519 40.6255 43.5207C40.761 43.127 40.8038 42.7073 40.7505 42.2943C40.6972 41.8813 40.5492 41.4862 40.3181 41.1398C40.0831 40.787 39.7697 40.4934 39.4023 40.2819C39.0349 40.0703 38.6235 39.9467 38.2003 39.9205C38.108 39.9142 38.0115 39.911 37.8856 39.911H37.5971H35.7772H33.7842C32.5957 39.911 31.6338 39.911 30.758 39.9184H30.7338C30.1249 39.9213 29.526 39.7633 28.9978 39.4602L26.8999 38.285C25.8321 37.6853 24.7643 37.0852 23.6964 36.4848C22.7346 35.9428 21.8849 35.6105 21.0237 35.4364C20.5531 35.344 20.0746 35.2977 19.595 35.298ZM7.42722 37.5909C7.38526 37.5909 3.2545 37.5909 2.80135 37.7262L2.49715 37.8163V52.2288H10.8636V37.6853L10.4723 37.6538C9.97722 37.614 8.86742 37.5909 7.42512 37.5909H7.42722Z" fill="#212B35"/>
</svg>
