<svg width="60" height="60" viewBox="0 0 60 60" fill="none" xmlns="http://www.w3.org/2000/svg">
<path d="M9 39.5V27.5C9 26.3954 9.89543 25.5 11 25.5H49C50.1046 25.5 51 26.3954 51 27.5V39.5" stroke="#212B35" stroke-width="1.5" stroke-linecap="round"/>
<path d="M4 41.5C4 40.3954 4.89543 39.5 6 39.5H54C55.1046 39.5 56 40.3954 56 41.5V55.5H4V41.5Z" stroke="#212B35" stroke-width="1.5" stroke-linecap="round" stroke-linejoin="round"/>
<path d="M4.33203 50.5H55.6654" stroke="#212B35" stroke-width="1.5" stroke-linecap="round"/>
<path d="M15 39.5V34.5H26V39.5" stroke="#212B35" stroke-width="1.5" stroke-linecap="round" stroke-linejoin="round"/>
<path d="M34 39.5V34.5H45V39.5" stroke="#212B35" stroke-width="1.5" stroke-linecap="round" stroke-linejoin="round"/>
<path d="M9 55.5V58.5H14V55.5" stroke="#212B35" stroke-width="1.5" stroke-linecap="round" stroke-linejoin="round"/>
<path d="M46 55.5V58.5H51V55.5" stroke="#212B35" stroke-width="1.5" stroke-linecap="round" stroke-linejoin="round"/>
<path d="M30 9.5L31.3471 13.6459H35.7063L32.1796 16.2082L33.5267 20.3541L30 17.7918L26.4733 20.3541L27.8204 16.2082L24.2937 13.6459H28.6529L30 9.5Z" stroke="#E7B900" stroke-width="1.5" stroke-linecap="round" stroke-linejoin="round"/>
<path d="M2 35.5V16.7361C2 15.9785 2.428 15.286 3.10557 14.9472L29.1056 1.94721C29.6686 1.66569 30.3314 1.66569 30.8944 1.94721L56.8944 14.9472C57.572 15.286 58 15.9785 58 16.7361V35.5" stroke="#212B35" stroke-width="1.5" stroke-linecap="round" stroke-linejoin="round"/>
</svg>
