<svg width="64" height="64" viewBox="0 0 64 64" fill="none" xmlns="http://www.w3.org/2000/svg">
<path d="M27.2002 35.2002V35.7002C26.9241 35.7002 26.7002 35.4763 26.7002 35.2002H27.2002ZM36.8002 35.2002H37.3002C37.3002 35.4763 37.0763 35.7002 36.8002 35.7002V35.2002ZM27.2002 16.8002V16.3002C27.4763 16.3002 27.7002 16.5241 27.7002 16.8002H27.2002ZM23.2002 16.8002V17.3002C23.0193 17.3002 22.8526 17.2025 22.7641 17.0448C22.6756 16.887 22.6792 16.6938 22.7736 16.5395L23.2002 16.8002ZM32.0002 2.40019L31.5736 2.13947C31.6644 1.99084 31.826 1.90019 32.0002 1.90019C32.1744 1.90019 32.336 1.99084 32.4268 2.13947L32.0002 2.40019ZM40.8002 16.8002L41.2268 16.5395C41.3211 16.6938 41.3248 16.887 41.2363 17.0448C41.1478 17.2025 40.9811 17.3002 40.8002 17.3002V16.8002ZM36.8002 16.8002H36.3002C36.3002 16.5241 36.5241 16.3002 36.8002 16.3002V16.8002ZM27.2002 34.7002H36.8002V35.7002H27.2002V34.7002ZM27.7002 16.8002V35.2002H26.7002V16.8002H27.7002ZM27.2002 17.3002H23.2002V16.3002H27.2002V17.3002ZM22.7736 16.5395L31.5736 2.13947L32.4268 2.66092L23.6268 17.0609L22.7736 16.5395ZM32.4268 2.13947L41.2268 16.5395L40.3736 17.0609L31.5736 2.66092L32.4268 2.13947ZM40.8002 17.3002H36.8002V16.3002H40.8002V17.3002ZM36.3002 35.2002V16.8002H37.3002V35.2002H36.3002Z" fill="white"/>
<path d="M5.60059 48.8V49.3C5.32444 49.3 5.10059 49.0762 5.10059 48.8H5.60059ZM15.2006 48.8H15.7006C15.7006 49.0762 15.4767 49.3 15.2006 49.3V48.8ZM5.60059 27.2001V26.7001C5.87673 26.7001 6.10059 26.9239 6.10059 27.2001H5.60059ZM1.60059 27.2001V27.7001C1.41972 27.7001 1.25296 27.6024 1.16449 27.4446C1.07602 27.2869 1.07963 27.0937 1.17395 26.9393L1.60059 27.2001ZM10.4006 12.8L9.97395 12.5393C10.0648 12.3907 10.2264 12.3 10.4006 12.3C10.5748 12.3 10.7364 12.3907 10.8272 12.5393L10.4006 12.8ZM19.2006 27.2001L19.6272 26.9393C19.7215 27.0937 19.7252 27.2869 19.6367 27.4446C19.5482 27.6024 19.3814 27.7001 19.2006 27.7001V27.2001ZM15.2006 27.2001H14.7006C14.7006 26.9239 14.9244 26.7001 15.2006 26.7001V27.2001ZM5.60059 48.3H15.2006V49.3H5.60059V48.3ZM6.10059 27.2001V48.8H5.10059V27.2001H6.10059ZM5.60059 27.7001H1.60059V26.7001H5.60059V27.7001ZM1.17395 26.9393L9.97395 12.5393L10.8272 13.0608L2.02723 27.4608L1.17395 26.9393ZM10.8272 12.5393L19.6272 26.9393L18.7739 27.4608L9.97395 13.0608L10.8272 12.5393ZM19.2006 27.7001H15.2006V26.7001H19.2006V27.7001ZM14.7006 48.8V27.2001H15.7006V48.8H14.7006Z" fill="white"/>
<path d="M48.7998 48.8V49.3C48.5237 49.3 48.2998 49.0762 48.2998 48.8H48.7998ZM58.3998 48.8H58.8998C58.8998 49.0762 58.6759 49.3 58.3998 49.3V48.8ZM48.7998 27.2001V26.7001C49.0759 26.7001 49.2998 26.9239 49.2998 27.2001H48.7998ZM44.7998 27.2001V27.7001C44.6189 27.7001 44.4522 27.6024 44.3637 27.4446C44.2752 27.2869 44.2789 27.0937 44.3732 26.9393L44.7998 27.2001ZM53.5998 12.8L53.1732 12.5393C53.264 12.3907 53.4256 12.3 53.5998 12.3C53.774 12.3 53.9356 12.3907 54.0264 12.5393L53.5998 12.8ZM62.3998 27.2001L62.8264 26.9393C62.9208 27.0937 62.9244 27.2869 62.8359 27.4446C62.7474 27.6024 62.5807 27.7001 62.3998 27.7001V27.2001ZM58.3998 27.2001H57.8998C57.8998 26.9239 58.1237 26.7001 58.3998 26.7001V27.2001ZM48.7998 48.3H58.3998V49.3H48.7998V48.3ZM49.2998 27.2001V48.8H48.2998V27.2001H49.2998ZM48.7998 27.7001H44.7998V26.7001H48.7998V27.7001ZM44.3732 26.9393L53.1732 12.5393L54.0264 13.0608L45.2264 27.4608L44.3732 26.9393ZM54.0264 12.5393L62.8264 26.9393L61.9732 27.4608L53.1732 13.0608L54.0264 12.5393ZM62.3998 27.7001H58.3998V26.7001H62.3998V27.7001ZM57.8998 48.8V27.2001H58.8998V48.8H57.8998Z" fill="white"/>
<circle cx="32.0006" cy="52.0001" r="10.4" fill="white" fill-opacity="0.06" stroke="white" stroke-linecap="round" stroke-linejoin="round"/>
<path d="M32.7142 45.6001V47.6134H31.6908V45.6001H32.7142ZM32.588 56.5956V58.4001H31.5711V56.5956H32.588ZM33.5915 54.4207C33.5915 54.1604 33.5383 53.9337 33.432 53.7407C33.3301 53.5431 33.1617 53.3658 32.9269 53.2087C32.6921 53.0471 32.3775 52.8967 31.9832 52.7576C31.4161 52.5556 30.9198 52.3289 30.4945 52.0775C30.0736 51.8217 29.7457 51.5074 29.5109 51.1349C29.2805 50.7578 29.1653 50.2887 29.1653 49.7276C29.1653 49.1755 29.2894 48.6974 29.5375 48.2934C29.79 47.8894 30.1401 47.5774 30.5876 47.3575C31.035 47.1375 31.5579 47.0276 32.156 47.0276C32.6168 47.0276 33.031 47.0971 33.3988 47.2363C33.7709 47.3754 34.0877 47.5797 34.3491 47.849C34.6105 48.1184 34.8099 48.4505 34.9473 48.8455C35.089 49.2361 35.1599 49.685 35.1599 50.1922H33.5649C33.5649 49.9049 33.5317 49.6491 33.4652 49.4246C33.4032 49.1957 33.3102 49.0027 33.1861 48.8455C33.062 48.6839 32.9114 48.5605 32.7342 48.4752C32.5614 48.3899 32.3642 48.3473 32.1427 48.3473C31.8281 48.3473 31.5689 48.4079 31.3651 48.5291C31.1613 48.6458 31.0107 48.8074 30.9132 49.0139C30.8202 49.2204 30.7736 49.456 30.7736 49.7209C30.7736 49.9767 30.8224 50.2012 30.9198 50.3942C31.0173 50.5872 31.1835 50.7623 31.4183 50.9194C31.6575 51.072 31.9854 51.2269 32.4019 51.384C32.9734 51.5905 33.4674 51.8217 33.8839 52.0775C34.3048 52.3289 34.6283 52.6409 34.8542 53.0135C35.0846 53.3815 35.1998 53.8461 35.1998 54.4073C35.1998 54.9863 35.0669 55.4778 34.8011 55.8818C34.5396 56.2858 34.1719 56.5933 33.6978 56.8043C33.2282 57.0108 32.681 57.114 32.0563 57.114C31.662 57.114 31.2699 57.0624 30.88 56.9592C30.4945 56.8514 30.1445 56.6764 29.8299 56.434C29.5153 56.1916 29.265 55.8706 29.0789 55.4711C28.8928 55.0671 28.7998 54.5733 28.7998 53.9898H30.4081C30.4081 54.3399 30.4546 54.6317 30.5477 54.8651C30.6407 55.0985 30.767 55.2826 30.9265 55.4172C31.086 55.5519 31.2632 55.6484 31.4582 55.7068C31.6575 55.7651 31.8569 55.7943 32.0563 55.7943C32.3886 55.7943 32.6677 55.7382 32.8937 55.626C33.1241 55.5093 33.2969 55.3477 33.4121 55.1412C33.5317 54.9302 33.5915 54.6901 33.5915 54.4207Z" fill="white"/>
</svg>
