<svg width="60" height="60" viewBox="0 0 60 60" fill="none" xmlns="http://www.w3.org/2000/svg">
<path d="M21.4285 21.4283C26.7541 21.4283 31.0714 17.111 31.0714 11.7854C31.0714 6.45983 26.7541 2.14258 21.4285 2.14258C16.1029 2.14258 11.7856 6.45983 11.7856 11.7854C11.7856 17.111 16.1029 21.4283 21.4285 21.4283Z" stroke="#212B35" stroke-linecap="round" stroke-linejoin="round"/>
<path d="M25.7141 28.3291C22.8881 27.6767 19.9511 27.6715 17.1228 28.314C14.2945 28.9565 11.648 30.23 9.3812 32.0393C7.11438 33.8486 5.28589 36.147 4.03243 38.7625C2.77896 41.378 2.13295 44.2431 2.14269 47.1434V53.572H25.7141" stroke="#212B35" stroke-linecap="round" stroke-linejoin="round"/>
<path d="M45.7283 57.7288C45.2575 57.899 44.742 57.899 44.2711 57.7288C40.6969 56.3129 37.6301 53.8566 35.4677 50.6779C33.3053 47.4993 32.1469 43.7447 32.1426 39.9002V34.2859C32.1236 33.9996 32.1661 33.7126 32.2671 33.444C32.3681 33.1754 32.5253 32.9315 32.7282 32.7286C32.931 32.5258 33.1749 32.3686 33.4435 32.2676C33.7121 32.1666 33.9991 32.1241 34.2854 32.1431H55.714C56.0003 32.1241 56.2874 32.1666 56.5559 32.2676C56.8245 32.3686 57.0684 32.5258 57.2713 32.7286C57.4742 32.9315 57.6314 33.1754 57.7324 33.444C57.8334 33.7126 57.8758 33.9996 57.8569 34.2859V39.9002C57.8525 43.7447 56.6941 47.4993 54.5317 50.6779C52.3693 53.8566 49.3025 56.3129 45.7283 57.7288Z" fill="#212B35" fill-opacity="0.06" stroke="#212B35" stroke-linecap="round" stroke-linejoin="round"/>
</svg>
