<svg width="172" height="64" viewBox="0 0 172 64" fill="none" xmlns="http://www.w3.org/2000/svg">
<path d="M32.0222 0L11.2012 12.0097V35.9977L17.1448 39.4313L17.1028 15.4381L31.9802 6.8567L46.8576 15.4381V39.4208L52.8012 35.9977V11.9887L32.0222 0Z" fill="#F26322"/>
<path d="M34.9706 39.4245L32.0014 41.1492L29.0165 39.4402V15.4365L23.0781 18.8649L23.0886 42.8581L31.9962 48.0006L40.9142 42.8581V18.8649L34.9706 15.4365V39.4245Z" fill="#F26322"/>
<path d="M27.4131 53.0264V63H25.4443V55.2959L23.0791 56.0479V54.4961L27.2012 53.0264H27.4131ZM30.8311 62.0498C30.8311 61.7581 30.9313 61.5143 31.1318 61.3184C31.3369 61.1224 31.6081 61.0244 31.9453 61.0244C32.2826 61.0244 32.5514 61.1224 32.752 61.3184C32.957 61.5143 33.0596 61.7581 33.0596 62.0498C33.0596 62.3415 32.957 62.5853 32.752 62.7812C32.5514 62.9772 32.2826 63.0752 31.9453 63.0752C31.6081 63.0752 31.3369 62.9772 31.1318 62.7812C30.9313 62.5853 30.8311 62.3415 30.8311 62.0498ZM41.4131 57.1484V58.8711C41.4131 59.6185 41.3333 60.2633 41.1738 60.8057C41.0143 61.3434 40.7842 61.7855 40.4834 62.1318C40.1872 62.4736 39.834 62.7266 39.4238 62.8906C39.0137 63.0547 38.5579 63.1367 38.0566 63.1367C37.6556 63.1367 37.2819 63.0866 36.9355 62.9863C36.5892 62.8815 36.277 62.7197 35.999 62.501C35.7256 62.2822 35.4886 62.0065 35.2881 61.6738C35.0921 61.3366 34.9417 60.9355 34.8369 60.4707C34.7321 60.0059 34.6797 59.4727 34.6797 58.8711V57.1484C34.6797 56.401 34.7594 55.7607 34.9189 55.2275C35.083 54.6898 35.3132 54.25 35.6094 53.9082C35.9102 53.5664 36.2656 53.3158 36.6758 53.1562C37.0859 52.9922 37.5417 52.9102 38.043 52.9102C38.444 52.9102 38.8154 52.9626 39.1572 53.0674C39.5036 53.1676 39.8158 53.3249 40.0938 53.5391C40.3717 53.7533 40.6087 54.029 40.8047 54.3662C41.0007 54.6989 41.151 55.0977 41.2559 55.5625C41.3607 56.0228 41.4131 56.5514 41.4131 57.1484ZM39.4375 59.1309V56.8818C39.4375 56.5218 39.417 56.2074 39.376 55.9385C39.3395 55.6696 39.2826 55.4417 39.2051 55.2549C39.1276 55.0635 39.0319 54.9085 38.918 54.79C38.804 54.6715 38.6742 54.585 38.5283 54.5303C38.3825 54.4756 38.2207 54.4482 38.043 54.4482C37.8197 54.4482 37.6214 54.4915 37.4482 54.5781C37.2796 54.6647 37.1361 54.8037 37.0176 54.9951C36.8991 55.182 36.8079 55.4326 36.7441 55.7471C36.6849 56.057 36.6553 56.4352 36.6553 56.8818V59.1309C36.6553 59.4909 36.6735 59.8076 36.71 60.0811C36.751 60.3545 36.8102 60.5892 36.8877 60.7852C36.9697 60.9766 37.0654 61.1338 37.1748 61.2568C37.2887 61.3753 37.4186 61.4619 37.5645 61.5166C37.7148 61.5713 37.8789 61.5986 38.0566 61.5986C38.2754 61.5986 38.4691 61.5553 38.6377 61.4688C38.8109 61.3776 38.9567 61.2363 39.0752 61.0449C39.1982 60.849 39.2894 60.5938 39.3486 60.2793C39.4079 59.9648 39.4375 59.582 39.4375 59.1309Z" fill="#A1A1A1"/>
<path d="M140.022 0L119.201 12.0097V35.9977L125.145 39.4313L125.103 15.4381L139.98 6.8567L154.858 15.4381V39.4208L160.801 35.9977V11.9887L140.022 0Z" fill="#F26322"/>
<path d="M142.971 39.4245L140.001 41.1492L137.016 39.4402V15.4365L131.078 18.8649L131.089 42.8581L139.996 48.0006L148.914 42.8581V18.8649L142.971 15.4365V39.4245Z" fill="#F26322"/>
<path d="M137.423 61.4619V63H130.614V61.6875L133.834 58.2354C134.158 57.8753 134.413 57.5586 134.6 57.2852C134.786 57.0072 134.921 56.7588 135.003 56.54C135.09 56.3167 135.133 56.1048 135.133 55.9043C135.133 55.6035 135.083 55.346 134.982 55.1318C134.882 54.9131 134.734 54.7445 134.538 54.626C134.347 54.5075 134.11 54.4482 133.827 54.4482C133.526 54.4482 133.267 54.5212 133.048 54.667C132.834 54.8128 132.67 55.0156 132.556 55.2754C132.446 55.5352 132.392 55.8291 132.392 56.1572H130.416C130.416 55.5648 130.557 55.0225 130.84 54.5303C131.122 54.0335 131.521 53.6393 132.036 53.3477C132.551 53.0514 133.162 52.9033 133.868 52.9033C134.565 52.9033 135.153 53.0173 135.632 53.2451C136.115 53.4684 136.479 53.792 136.726 54.2158C136.976 54.6351 137.102 55.1364 137.102 55.7197C137.102 56.0479 137.049 56.3691 136.944 56.6836C136.84 56.9935 136.689 57.3034 136.493 57.6133C136.302 57.9186 136.069 58.2285 135.796 58.543C135.522 58.8574 135.219 59.1833 134.887 59.5205L133.157 61.4619H137.423ZM138.831 62.0498C138.831 61.7581 138.931 61.5143 139.132 61.3184C139.337 61.1224 139.608 61.0244 139.945 61.0244C140.283 61.0244 140.551 61.1224 140.752 61.3184C140.957 61.5143 141.06 61.7581 141.06 62.0498C141.06 62.3415 140.957 62.5853 140.752 62.7812C140.551 62.9772 140.283 63.0752 139.945 63.0752C139.608 63.0752 139.337 62.9772 139.132 62.7812C138.931 62.5853 138.831 62.3415 138.831 62.0498ZM149.413 57.1484V58.8711C149.413 59.6185 149.333 60.2633 149.174 60.8057C149.014 61.3434 148.784 61.7855 148.483 62.1318C148.187 62.4736 147.834 62.7266 147.424 62.8906C147.014 63.0547 146.558 63.1367 146.057 63.1367C145.656 63.1367 145.282 63.0866 144.936 62.9863C144.589 62.8815 144.277 62.7197 143.999 62.501C143.726 62.2822 143.489 62.0065 143.288 61.6738C143.092 61.3366 142.942 60.9355 142.837 60.4707C142.732 60.0059 142.68 59.4727 142.68 58.8711V57.1484C142.68 56.401 142.759 55.7607 142.919 55.2275C143.083 54.6898 143.313 54.25 143.609 53.9082C143.91 53.5664 144.266 53.3158 144.676 53.1562C145.086 52.9922 145.542 52.9102 146.043 52.9102C146.444 52.9102 146.815 52.9626 147.157 53.0674C147.504 53.1676 147.816 53.3249 148.094 53.5391C148.372 53.7533 148.609 54.029 148.805 54.3662C149.001 54.6989 149.151 55.0977 149.256 55.5625C149.361 56.0228 149.413 56.5514 149.413 57.1484ZM147.438 59.1309V56.8818C147.438 56.5218 147.417 56.2074 147.376 55.9385C147.34 55.6696 147.283 55.4417 147.205 55.2549C147.128 55.0635 147.032 54.9085 146.918 54.79C146.804 54.6715 146.674 54.585 146.528 54.5303C146.382 54.4756 146.221 54.4482 146.043 54.4482C145.82 54.4482 145.621 54.4915 145.448 54.5781C145.28 54.6647 145.136 54.8037 145.018 54.9951C144.899 55.182 144.808 55.4326 144.744 55.7471C144.685 56.057 144.655 56.4352 144.655 56.8818V59.1309C144.655 59.4909 144.674 59.8076 144.71 60.0811C144.751 60.3545 144.81 60.5892 144.888 60.7852C144.97 60.9766 145.065 61.1338 145.175 61.2568C145.289 61.3753 145.419 61.4619 145.564 61.5166C145.715 61.5713 145.879 61.5986 146.057 61.5986C146.275 61.5986 146.469 61.5553 146.638 61.4688C146.811 61.3776 146.957 61.2363 147.075 61.0449C147.198 60.849 147.289 60.5938 147.349 60.2793C147.408 59.9648 147.438 59.582 147.438 59.1309Z" fill="#A1A1A1"/>
<path d="M76 31.5C75.7239 31.5 75.5 31.7239 75.5 32C75.5 32.2761 75.7239 32.5 76 32.5V31.5ZM76 32.5H96V31.5H76V32.5Z" fill="#212B35"/>
<path d="M89 25L96 32L89 39" stroke="#212B35" stroke-linecap="round" stroke-linejoin="round"/>
</svg>
