<svg width="30" height="30" viewBox="0 0 30 30" fill="none" xmlns="http://www.w3.org/2000/svg">
<path d="M5.35713 16.0713H7.49998C8.0683 16.0713 8.61335 16.2971 9.01521 16.6989C9.41708 17.1008 9.64284 17.6458 9.64284 18.2141V26.7856C9.64284 27.3539 9.41708 27.8989 9.01521 28.3008C8.61335 28.7027 8.0683 28.9284 7.49998 28.9284H3.21427C2.64595 28.9284 2.1009 28.7027 1.69904 28.3008C1.29718 27.8989 1.07141 27.3539 1.07141 26.7856V14.9999C1.07141 11.3058 2.53888 7.76299 5.151 5.15087C7.76311 2.53876 11.3059 1.07129 15 1.07129C18.6941 1.07129 22.2369 2.53876 24.849 5.15087C27.4611 7.76299 28.9286 11.3058 28.9286 14.9999V26.7856C28.9286 27.3539 28.7028 27.8989 28.3009 28.3008C27.8991 28.7027 27.354 28.9284 26.7857 28.9284H22.5C21.9317 28.9284 21.3866 28.7027 20.9848 28.3008C20.5829 27.8989 20.3571 27.3539 20.3571 26.7856V18.2141C20.3571 17.6458 20.5829 17.1008 20.9848 16.6989C21.3866 16.2971 21.9317 16.0713 22.5 16.0713H24.6428" stroke="#E7B900" stroke-width="1.71429" stroke-linecap="round" stroke-linejoin="round"/>
</svg>
