<svg width="30" height="30" viewBox="0 0 30 30" fill="none" xmlns="http://www.w3.org/2000/svg">
<path d="M27.0144 3.87953L25.2144 9.19381C25.1522 9.31672 25.1199 9.45252 25.1199 9.59024C25.1199 9.72797 25.1522 9.86376 25.2144 9.98667L28.5787 14.4867C28.6753 14.6155 28.7338 14.7689 28.7473 14.9294C28.7608 15.0899 28.7288 15.2509 28.655 15.3941C28.5812 15.5372 28.4685 15.6566 28.33 15.7387C28.1914 15.8208 28.0325 15.8622 27.8715 15.8581H22.2572C22.1196 15.8621 21.9847 15.897 21.8623 15.96C21.74 16.023 21.6333 16.1127 21.5501 16.2224L18.4215 20.7224C18.3298 20.8539 18.2029 20.9571 18.0555 21.0201C17.908 21.0832 17.7458 21.1036 17.5873 21.079C17.4288 21.0545 17.2804 20.9859 17.1589 20.8812C17.0374 20.7765 16.9477 20.6398 16.9001 20.4867L15.2287 15.1295C15.1905 14.9971 15.1194 14.8765 15.022 14.7791C14.9245 14.6816 14.8039 14.6105 14.6715 14.5724L9.31437 12.901C9.16123 12.8533 9.02454 12.7636 8.91982 12.6422C8.81511 12.5207 8.74658 12.3723 8.72202 12.2138C8.69746 12.0553 8.71787 11.8931 8.78092 11.7456C8.84396 11.5981 8.94712 11.4713 9.07866 11.3795L13.6644 8.14381C13.7741 8.06064 13.8637 7.95395 13.9268 7.83158C13.9898 7.70921 14.0246 7.57427 14.0287 7.43667V1.82239C14.0346 1.67492 14.0786 1.53151 14.1563 1.40602C14.234 1.28053 14.3427 1.17722 14.472 1.1061C14.6013 1.03498 14.7468 0.998449 14.8944 1.00005C15.042 1.00165 15.1866 1.04133 15.3144 1.11524L19.8144 4.47953C19.9286 4.55887 20.0601 4.60996 20.1979 4.62859C20.3357 4.64721 20.476 4.63285 20.6072 4.58667L25.9215 2.78667C26.0739 2.73311 26.2384 2.7237 26.3959 2.75954C26.5534 2.79538 26.6976 2.87501 26.8118 2.98924C26.926 3.10346 27.0057 3.24765 27.0415 3.40517C27.0773 3.56268 27.0679 3.72712 27.0144 3.87953V3.87953Z" stroke="#A1A1A1" stroke-width="1.71429" stroke-linecap="round" stroke-linejoin="round"/>
<path d="M15.0143 14.7866L1 28.8009" stroke="#A1A1A1" stroke-width="1.71429" stroke-linecap="round" stroke-linejoin="round"/>
</svg>
