<svg width="64" height="64" viewBox="0 0 64 64" fill="none" xmlns="http://www.w3.org/2000/svg">
<path opacity="0.06" d="M32.1622 22.2725C37.4274 22.2725 41.6956 18.0052 41.6956 12.7412C41.6956 7.47725 37.4274 3.20996 32.1622 3.20996C26.8971 3.20996 22.6289 7.47725 22.6289 12.7412C22.6289 18.0052 26.8971 22.2725 32.1622 22.2725Z" fill="#212B35"/>
<path d="M32.1622 22.2725C37.4274 22.2725 41.6956 18.0052 41.6956 12.7412C41.6956 7.47725 37.4274 3.20996 32.1622 3.20996C26.8971 3.20996 22.6289 7.47725 22.6289 12.7412C22.6289 18.0052 26.8971 22.2725 32.1622 22.2725Z" stroke="#212B35"/>
<path d="M11.3429 61.2556C15.9505 61.2556 19.6857 57.5217 19.6857 52.9158C19.6857 48.3098 15.9505 44.5759 11.3429 44.5759C6.73522 44.5759 3 48.3098 3 52.9158C3 57.5217 6.73522 61.2556 11.3429 61.2556Z" stroke="#212B35"/>
<path d="M11.3425 52.5056C12.4524 52.5056 13.3521 51.6052 13.3521 50.4945C13.3521 49.3838 12.4524 48.4834 11.3425 48.4834C10.2327 48.4834 9.33301 49.3838 9.33301 50.4945C9.33301 51.6052 10.2327 52.5056 11.3425 52.5056Z" stroke="#212B35"/>
<path d="M35.7426 10.2449L30.9712 15.2392L28.5807 12.7421M8.02832 57.3483C8.28546 55.728 9.68546 54.5271 11.3331 54.5271C12.1617 54.5271 12.9236 54.8225 13.514 55.3277C14.1045 55.8328 14.5236 56.5382 14.6474 57.3483" stroke="#212B35"/>
<path d="M32.1619 52.5056C33.2717 52.5056 34.1714 51.6052 34.1714 50.4945C34.1714 49.3838 33.2717 48.4834 32.1619 48.4834C31.052 48.4834 30.1523 49.3838 30.1523 50.4945C30.1523 51.6052 31.052 52.5056 32.1619 52.5056Z" stroke="#212B35"/>
<path d="M28.8477 57.3474C29.1048 55.7271 30.5048 54.5261 32.1524 54.5261C32.981 54.5261 33.7429 54.8216 34.3334 55.3267C34.9238 55.8319 35.3429 56.5372 35.4667 57.3474" stroke="#212B35"/>
<path d="M32.172 61.2556C36.7796 61.2556 40.5148 57.5217 40.5148 52.9158C40.5148 48.3098 36.7796 44.5759 32.172 44.5759C27.5643 44.5759 23.8291 48.3098 23.8291 52.9158C23.8291 57.5217 27.5643 61.2556 32.172 61.2556Z" stroke="#212B35"/>
<path d="M52.9802 52.5056C54.0901 52.5056 54.9898 51.6052 54.9898 50.4945C54.9898 49.3838 54.0901 48.4834 52.9802 48.4834C51.8704 48.4834 50.9707 49.3838 50.9707 50.4945C50.9707 51.6052 51.8704 52.5056 52.9802 52.5056Z" stroke="#212B35"/>
<path d="M49.6758 57.3474C49.9329 55.7271 51.3329 54.5261 52.9805 54.5261C53.8091 54.5261 54.571 54.8216 55.1615 55.3267C55.752 55.8319 56.171 56.5372 56.2948 57.3474" stroke="#212B35"/>
<path d="M53.0001 61.2556C57.6077 61.2556 61.3429 57.5217 61.3429 52.9158C61.3429 48.3098 57.6077 44.5759 53.0001 44.5759C48.3924 44.5759 44.6572 48.3098 44.6572 52.9158C44.6572 57.5217 48.3924 61.2556 53.0001 61.2556Z" stroke="#212B35"/>
<path d="M32.1618 25.6664V40.3446M27.9237 24.78V33.4249H11.3428V40.3446M36.4571 24.78V33.4249H53.038V40.3446" stroke="#212B35"/>
</svg>
