<svg width="30" height="30" viewBox="0 0 30 30" fill="none" xmlns="http://www.w3.org/2000/svg">
<path d="M27.0857 4.00697L25.2857 9.32126C25.2235 9.44416 25.1911 9.57996 25.1911 9.71768C25.1911 9.85541 25.2235 9.99121 25.2857 10.1141L28.6499 14.6141C28.7466 14.7429 28.8051 14.8963 28.8186 15.0568C28.8321 15.2173 28.8001 15.3784 28.7263 15.5215C28.6525 15.6646 28.5398 15.7841 28.4013 15.8662C28.2627 15.9482 28.1038 15.9896 27.9428 15.9855H22.3285C22.1909 15.9896 22.056 16.0244 21.9336 16.0874C21.8112 16.1505 21.7046 16.2401 21.6214 16.3498L18.4928 20.8498C18.401 20.9814 18.2742 21.0845 18.1267 21.1476C17.9793 21.2106 17.8171 21.231 17.6586 21.2065C17.5001 21.1819 17.3517 21.1134 17.2302 21.0087C17.1087 20.904 17.019 20.7673 16.9714 20.6141L15.2999 15.257C15.2618 15.1245 15.1907 15.004 15.0933 14.9065C14.9958 14.8091 14.8752 14.738 14.7428 14.6998L9.38566 13.0284C9.23252 12.9807 9.09583 12.8911 8.99111 12.7696C8.8864 12.6481 8.81786 12.4997 8.79331 12.3412C8.76875 12.1827 8.78916 12.0205 8.8522 11.873C8.91525 11.7256 9.01841 11.5987 9.14995 11.507L13.7357 8.27126C13.8453 8.18808 13.935 8.08139 13.998 7.95902C14.0611 7.83665 14.0959 7.70171 14.0999 7.56411V1.94983C14.1059 1.80237 14.1499 1.65895 14.2276 1.53346C14.3052 1.40797 14.414 1.30466 14.5433 1.23354C14.6726 1.16242 14.8181 1.12589 14.9657 1.12749C15.1133 1.12909 15.2579 1.16877 15.3857 1.24268L19.8857 4.60697C19.9999 4.68632 20.1314 4.7374 20.2692 4.75603C20.407 4.77466 20.5473 4.76029 20.6785 4.71411L25.9928 2.91411C26.1452 2.86055 26.3097 2.85115 26.4672 2.88699C26.6247 2.92282 26.7689 3.00245 26.8831 3.11668C26.9973 3.23091 27.077 3.37509 27.1128 3.53261C27.1486 3.69013 27.1392 3.85456 27.0857 4.00697V4.00697Z" stroke="#E7B900" stroke-width="1.71429" stroke-linecap="round" stroke-linejoin="round"/>
<path d="M15.0857 14.9141L1.07141 28.9283" stroke="#E7B900" stroke-width="1.71429" stroke-linecap="round" stroke-linejoin="round"/>
</svg>
