<svg width="64" height="64" viewBox="0 0 64 64" fill="none" xmlns="http://www.w3.org/2000/svg">
<rect width="64" height="64" fill="white"/>
<path d="M47.9691 26.4557C47.3296 26.3941 46.6856 26.3941 46.0461 26.4557C45.3432 23.2535 43.5673 20.3877 41.0127 18.333C38.4581 16.2783 35.2781 15.1582 31.9997 15.1582C28.7213 15.1582 25.5414 16.2783 22.9868 18.333C20.4321 20.3877 18.6562 23.2535 17.9533 26.4557C17.3138 26.3941 16.6698 26.3941 16.0303 26.4557C14.5043 26.3623 12.9752 26.5823 11.5374 27.1021C10.0996 27.6218 8.78333 28.4304 7.66972 29.478C6.5561 30.5256 5.66869 31.79 5.0621 33.1934C4.45551 34.5968 4.14258 36.1095 4.14258 37.6384C4.14258 39.1673 4.45551 40.6801 5.0621 42.0835C5.66869 43.4869 6.5561 44.7513 7.66972 45.7989C8.78333 46.8465 10.0996 47.655 11.5374 48.1748C12.9752 48.6946 14.5043 48.9146 16.0303 48.8212H47.9691C49.4952 48.9146 51.0242 48.6946 52.462 48.1748C53.8999 47.655 55.2161 46.8465 56.3297 45.7989C57.4433 44.7513 58.3308 43.4869 58.9373 42.0835C59.5439 40.6801 59.8569 39.1673 59.8569 37.6384C59.8569 36.1095 59.5439 34.5968 58.9373 33.1934C58.3308 31.79 57.4433 30.5256 56.3297 29.478C55.2161 28.4304 53.8999 27.6218 52.462 27.1021C51.0242 26.5823 49.4952 26.3623 47.9691 26.4557Z" stroke="#212B35" stroke-linecap="round" stroke-linejoin="round"/>
<circle opacity="0.06" cx="32" cy="34" r="9" fill="#212B35"/>
<g clip-path="url(#clip0_5722_30315)">
<path d="M35.4277 35.7147L37.142 35.2861L37.5706 37.0004" stroke="#212B35" stroke-linecap="round" stroke-linejoin="round"/>
<path d="M37.1412 35.2861C36.7605 36.3649 36.069 37.3069 35.1537 37.9933C34.2385 38.6797 33.1406 39.0799 31.9983 39.1433C30.9424 39.1435 29.9121 38.8186 29.0472 38.2129C28.1823 37.6072 27.5248 36.7499 27.1641 35.7576" stroke="#212B35" stroke-linecap="round" stroke-linejoin="round"/>
<path d="M28.5706 32.2857L26.8563 32.7143L26.4277 31" stroke="#212B35" stroke-linecap="round" stroke-linejoin="round"/>
<path d="M26.8555 32.7146C27.5755 30.7431 29.7869 28.8574 31.9983 28.8574C33.0594 28.8604 34.0935 29.1915 34.959 29.8053C35.8245 30.4191 36.4789 31.2856 36.8326 32.286" stroke="#212B35" stroke-linecap="round" stroke-linejoin="round"/>
</g>
<defs>
<clipPath id="clip0_5722_30315">
<rect width="12" height="12" fill="white" transform="translate(26 28)"/>
</clipPath>
</defs>
</svg>
