<svg width="64" height="64" viewBox="0 0 64 64" fill="none" xmlns="http://www.w3.org/2000/svg">
<path opacity="0.06" d="M24.0312 2.46875H10.9062C9.87072 2.46875 9.03125 3.30822 9.03125 4.34375V29.6562C9.03125 30.6918 9.87072 31.5312 10.9062 31.5312H24.0312C25.0668 31.5312 25.9062 30.6918 25.9062 29.6562V4.34375C25.9062 3.30822 25.0668 2.46875 24.0312 2.46875Z" fill="#212B35"/>
<path opacity="0.06" d="M59.6562 26.8438H38.0938C37.0582 26.8438 36.2188 27.6832 36.2188 28.7188V59.6562C36.2188 60.6918 37.0582 61.5312 38.0938 61.5312H59.6562C60.6918 61.5312 61.5312 60.6918 61.5312 59.6562V28.7188C61.5312 27.6832 60.6918 26.8438 59.6562 26.8438Z" fill="#212B35"/>
<path opacity="0.06" d="M30.125 50.75H21.6875V55.4375H30.125V50.75Z" fill="#212B35"/>
<path d="M24.0312 32H10.9062C10.2848 31.9994 9.68902 31.7523 9.2496 31.3129C8.81019 30.8735 8.56307 30.2777 8.5625 29.6562V4.34375C8.56307 3.72232 8.81019 3.12652 9.2496 2.6871C9.68902 2.24769 10.2848 2.00057 10.9062 2H24.0312C24.6527 2.00057 25.2485 2.24769 25.6879 2.6871C26.1273 3.12652 26.3744 3.72232 26.375 4.34375V29.6562C26.3744 30.2777 26.1273 30.8735 25.6879 31.3129C25.2485 31.7523 24.6527 31.9994 24.0312 32ZM10.9062 2.9375C10.5334 2.93791 10.176 3.0862 9.91233 3.34983C9.6487 3.61347 9.50041 3.97091 9.5 4.34375V29.6562C9.50041 30.0291 9.6487 30.3865 9.91233 30.6502C10.176 30.9138 10.5334 31.0621 10.9062 31.0625H24.0312C24.4041 31.0621 24.7615 30.9138 25.0252 30.6502C25.2888 30.3865 25.4371 30.0291 25.4375 29.6562V4.34375C25.4371 3.97091 25.2888 3.61347 25.0252 3.34983C24.7615 3.0862 24.4041 2.93791 24.0312 2.9375H10.9062Z" fill="#212B35"/>
<path d="M59.6562 62H38.0938C37.4723 61.9994 36.8765 61.7523 36.4371 61.3129C35.9977 60.8735 35.7506 60.2777 35.75 59.6562V28.7188C35.7506 28.0973 35.9977 27.5015 36.4371 27.0621C36.8765 26.6227 37.4723 26.3756 38.0938 26.375H59.6562C60.2777 26.3756 60.8735 26.6227 61.3129 27.0621C61.7523 27.5015 61.9994 28.0973 62 28.7188V59.6562C61.9994 60.2777 61.7523 60.8735 61.3129 61.3129C60.8735 61.7523 60.2777 61.9994 59.6562 62ZM38.0938 27.3125C37.7209 27.3129 37.3635 27.4612 37.0998 27.7248C36.8362 27.9885 36.6879 28.3459 36.6875 28.7188V59.6562C36.6879 60.0291 36.8362 60.3865 37.0998 60.6502C37.3635 60.9138 37.7209 61.0621 38.0938 61.0625H59.6562C60.0291 61.0621 60.3865 60.9138 60.6502 60.6502C60.9138 60.3865 61.0621 60.0291 61.0625 59.6562V28.7188C61.0621 28.3459 60.9138 27.9885 60.6502 27.7248C60.3865 27.4612 60.0291 27.3129 59.6562 27.3125H38.0938Z" fill="#212B35"/>
<path d="M36.2188 50.75H4.34375C3.72232 50.7494 3.12652 50.5023 2.6871 50.0629C2.24769 49.6235 2.00057 49.0277 2 48.4062V16.5312C2.00057 15.9098 2.24769 15.314 2.6871 14.8746C3.12652 14.4352 3.72232 14.1881 4.34375 14.1875H8.5625V15.125H4.34375C3.97091 15.1254 3.61347 15.2737 3.34983 15.5373C3.0862 15.801 2.93791 16.1584 2.9375 16.5312V48.4062C2.93791 48.7791 3.0862 49.1365 3.34983 49.4002C3.61347 49.6638 3.97091 49.8121 4.34375 49.8125H36.2188V50.75Z" fill="#212B35"/>
<path d="M49.8125 27.3125H48.875V16.5312C48.8746 16.1584 48.7263 15.801 48.4627 15.5373C48.199 15.2737 47.8416 15.1254 47.4688 15.125H26.375V14.1875H47.4688C48.0902 14.1881 48.686 14.4352 49.1254 14.8746C49.5648 15.314 49.8119 15.9098 49.8125 16.5312V27.3125Z" fill="#212B35"/>
<path d="M21.6875 50.75H20.75V59.1875H21.6875V50.75Z" fill="#212B35"/>
<path d="M31.0625 50.75H30.125V59.1875H31.0625V50.75Z" fill="#212B35"/>
<path d="M38.5625 61.0625H13.25V62H38.5625V61.0625Z" fill="#212B35"/>
<path d="M35.75 43.7188H2.9375V44.6562H35.75V43.7188Z" fill="#212B35"/>
</svg>
