<svg width="60" height="60" viewBox="0 0 60 60" fill="none" xmlns="http://www.w3.org/2000/svg">
<path d="M36.4288 2.14258H6.42878C5.29214 2.14258 4.20205 2.59411 3.39832 3.39783C2.5946 4.20156 2.14307 5.29165 2.14307 6.42829V53.5711C2.14307 54.7078 2.5946 55.7979 3.39832 56.6016C4.20205 57.4053 5.29214 57.8569 6.42878 57.8569H53.5716C54.7083 57.8569 55.7984 57.4053 56.6021 56.6016C57.4058 55.7979 57.8574 54.7078 57.8574 53.5711V23.5711L36.4288 2.14258Z" stroke="#212B35" stroke-linecap="round" stroke-linejoin="round"/>
<path d="M36.4287 21.4283V2.14258L57.8573 23.5711H38.5716C38.0032 23.5711 37.4582 23.3454 37.0563 22.9435C36.6545 22.5417 36.4287 21.9966 36.4287 21.4283Z" fill="#212B35" fill-opacity="0.06" stroke="#212B35" stroke-linecap="round" stroke-linejoin="round"/>
<path d="M19.2861 19.286V12.8574" stroke="#212B35" stroke-linecap="round" stroke-linejoin="round"/>
<path d="M12.8574 36.428C12.8574 39.6423 15.7289 40.7137 19.286 40.7137C22.8431 40.7137 25.7146 40.7137 25.7146 36.428C25.7146 29.9994 12.8574 29.9994 12.8574 23.5709C12.8574 19.2852 15.7289 19.2852 19.286 19.2852C22.8431 19.2852 25.7146 20.9137 25.7146 23.5709" stroke="#212B35" stroke-linecap="round" stroke-linejoin="round"/>
<path d="M19.2861 40.7148V47.1434" stroke="#212B35" stroke-linecap="round" stroke-linejoin="round"/>
<path d="M36.4287 40.7148H49.2859" stroke="#212B35" stroke-linecap="round" stroke-linejoin="round"/>
</svg>
