<svg width="64" height="64" viewBox="0 0 64 64" fill="none" xmlns="http://www.w3.org/2000/svg">
<path opacity="0.06" fill-rule="evenodd" clip-rule="evenodd" d="M2 2H62V11.7056H2V2ZM6.8528 56.1766H57.1472V62H6.8528V56.1766Z" fill="#212B35"/>
<path d="M57.1472 62H6.8528M2 2H62V56.1766H2V2Z" stroke="#212B35"/>
<path d="M32.8667 43L36.9947 31.8H38.4187L42.5307 43H41.1067L40.0827 40.12H35.3147L34.2747 43H32.8667ZM35.7147 39.032H39.6827L37.6987 33.496L35.7147 39.032Z" fill="black"/>
<path d="M21 24.7148H37.1429" stroke="black"/>
<path d="M28.3867 25L28.3867 22" stroke="black"/>
<path d="M33.5709 24.7148C33.5709 27.2863 32.0852 30.0006 23.2852 38.0006M25.5709 29.572C25.9042 30.8577 28.0973 33.4291 31.428 35.8577" stroke="black"/>
<path d="M7.50181 7.82393C8.03784 7.82393 8.47237 7.3894 8.47237 6.85337C8.47237 6.31735 8.03784 5.88281 7.50181 5.88281C6.96578 5.88281 6.53125 6.31735 6.53125 6.85337C6.53125 7.3894 6.96578 7.82393 7.50181 7.82393Z" fill="#212B35"/>
<path d="M13.326 7.82393C13.8621 7.82393 14.2966 7.3894 14.2966 6.85337C14.2966 6.31735 13.8621 5.88281 13.326 5.88281C12.79 5.88281 12.3555 6.31735 12.3555 6.85337C12.3555 7.3894 12.79 7.82393 13.326 7.82393Z" fill="#212B35"/>
<path d="M10.4159 7.82393C10.9519 7.82393 11.3864 7.3894 11.3864 6.85337C11.3864 6.31735 10.9519 5.88281 10.4159 5.88281C9.87985 5.88281 9.44531 6.31735 9.44531 6.85337C9.44531 7.3894 9.87985 7.82393 10.4159 7.82393Z" fill="#212B35"/>
</svg>
