<svg width="98" height="50" viewBox="0 0 98 50" fill="none" xmlns="http://www.w3.org/2000/svg">
<circle cx="9" cy="9" r="8" stroke="white"/>
<circle cx="9" cy="9" r="3" fill="#666666"/>
<circle cx="25" cy="9" r="8" stroke="white"/>
<circle cx="25" cy="9" r="3" fill="#666666"/>
<circle cx="41" cy="9" r="8" stroke="white"/>
<circle cx="41" cy="9" r="3" fill="#666666"/>
<circle cx="57" cy="9" r="8" stroke="white"/>
<circle cx="57" cy="9" r="3" fill="#666666"/>
<circle cx="73" cy="9" r="8" stroke="white"/>
<circle cx="73" cy="9" r="3" fill="#666666"/>
<circle cx="89" cy="9" r="8" stroke="white"/>
<circle cx="89" cy="9" r="3" fill="#666666"/>
<circle cx="9" cy="25" r="8" stroke="white"/>
<circle cx="9" cy="25" r="3" fill="#666666"/>
<circle cx="25" cy="25" r="8" stroke="white"/>
<circle cx="25" cy="25" r="3" fill="#666666"/>
<circle cx="41" cy="25" r="8" stroke="white"/>
<circle cx="41" cy="25" r="3" fill="#666666"/>
<circle cx="57" cy="25" r="8" stroke="white"/>
<circle cx="57" cy="25" r="3" fill="#666666"/>
<circle cx="73" cy="25" r="8" stroke="white"/>
<circle cx="73" cy="25" r="3" fill="#666666"/>
<circle cx="89" cy="25" r="8" stroke="white"/>
<circle cx="89" cy="25" r="3" fill="#666666"/>
<circle cx="9" cy="41" r="8" stroke="white"/>
<circle cx="9" cy="41" r="3" fill="#666666"/>
<circle cx="25" cy="41" r="8" stroke="white"/>
<circle cx="25" cy="41" r="3" fill="#666666"/>
<circle cx="41" cy="41" r="8" stroke="white"/>
<circle cx="41" cy="41" r="3" fill="#666666"/>
<circle cx="57" cy="41" r="8" stroke="white"/>
<circle cx="57" cy="41" r="3" fill="#666666"/>
<circle cx="73" cy="41" r="8" stroke="white"/>
<circle cx="73" cy="41" r="3" fill="#666666"/>
<circle cx="89" cy="41" r="8" stroke="white"/>
<circle cx="89" cy="41" r="3" fill="#666666"/>
<path d="M17 12V6" stroke="#A1A1A1" stroke-linecap="round"/>
<path d="M14 9H20" stroke="#A1A1A1" stroke-linecap="round"/>
<path d="M30 9H36" stroke="#A1A1A1" stroke-linecap="round"/>
<path d="M33 12V6" stroke="#A1A1A1" stroke-linecap="round"/>
<path d="M46 9H52" stroke="#A1A1A1" stroke-linecap="round"/>
<path d="M49 12V6" stroke="#A1A1A1" stroke-linecap="round"/>
<path d="M62 9H68" stroke="#A1A1A1" stroke-linecap="round"/>
<path d="M65 12V6" stroke="#A1A1A1" stroke-linecap="round"/>
<path d="M78 9H84" stroke="#A1A1A1" stroke-linecap="round"/>
<path d="M81 12V6" stroke="#A1A1A1" stroke-linecap="round"/>
<path d="M9 20V14" stroke="#A1A1A1" stroke-linecap="round"/>
<path d="M89 20V14" stroke="#A1A1A1" stroke-linecap="round"/>
<path d="M22 17H28" stroke="#A1A1A1" stroke-linecap="round"/>
<path d="M25 20V14" stroke="#A1A1A1" stroke-linecap="round"/>
<path d="M38 17H44" stroke="#A1A1A1" stroke-linecap="round"/>
<path d="M41 20V14" stroke="#A1A1A1" stroke-linecap="round"/>
<path d="M54 17H60" stroke="#A1A1A1" stroke-linecap="round"/>
<path d="M57 20V14" stroke="#A1A1A1" stroke-linecap="round"/>
<path d="M70 17H76" stroke="#A1A1A1" stroke-linecap="round"/>
<path d="M73 20V14" stroke="#A1A1A1" stroke-linecap="round"/>
<path d="M22 33H28" stroke="#A1A1A1" stroke-linecap="round"/>
<path d="M25 36V30" stroke="#A1A1A1" stroke-linecap="round"/>
<path d="M9 36V30" stroke="#A1A1A1" stroke-linecap="round"/>
<path d="M89 36V30" stroke="#A1A1A1" stroke-linecap="round"/>
<path d="M38 33H44" stroke="#A1A1A1" stroke-linecap="round"/>
<path d="M41 36V30" stroke="#A1A1A1" stroke-linecap="round"/>
<path d="M54 33H60" stroke="#A1A1A1" stroke-linecap="round"/>
<path d="M57 36V30" stroke="#A1A1A1" stroke-linecap="round"/>
<path d="M70 33H76" stroke="#A1A1A1" stroke-linecap="round"/>
<path d="M73 36V30" stroke="#A1A1A1" stroke-linecap="round"/>
<path d="M14 25H20" stroke="#A1A1A1" stroke-linecap="round"/>
<path d="M17 28V22" stroke="#A1A1A1" stroke-linecap="round"/>
<path d="M30 25H36" stroke="#A1A1A1" stroke-linecap="round"/>
<path d="M33 28V22" stroke="#A1A1A1" stroke-linecap="round"/>
<path d="M46 25H52" stroke="#A1A1A1" stroke-linecap="round"/>
<path d="M49 28V22" stroke="#A1A1A1" stroke-linecap="round"/>
<path d="M62 25H68" stroke="#A1A1A1" stroke-linecap="round"/>
<path d="M65 28V22" stroke="#A1A1A1" stroke-linecap="round"/>
<path d="M78 25H84" stroke="#A1A1A1" stroke-linecap="round"/>
<path d="M81 28V22" stroke="#A1A1A1" stroke-linecap="round"/>
<path d="M14 41H20" stroke="#A1A1A1" stroke-linecap="round"/>
<path d="M17 44V38" stroke="#A1A1A1" stroke-linecap="round"/>
<path d="M30 41H36" stroke="#A1A1A1" stroke-linecap="round"/>
<path d="M33 44V38" stroke="#A1A1A1" stroke-linecap="round"/>
<path d="M46 41H52" stroke="#A1A1A1" stroke-linecap="round"/>
<path d="M49 44V38" stroke="#A1A1A1" stroke-linecap="round"/>
<path d="M62 41H68" stroke="#A1A1A1" stroke-linecap="round"/>
<path d="M65 44V38" stroke="#A1A1A1" stroke-linecap="round"/>
<path d="M78 41H84" stroke="#A1A1A1" stroke-linecap="round"/>
<path d="M81 44V38" stroke="#A1A1A1" stroke-linecap="round"/>
</svg>
