<svg width="172" height="64" viewBox="0 0 172 64" fill="none" xmlns="http://www.w3.org/2000/svg">
<path d="M22.1385 46.9694C22.5859 46.7643 23.0333 46.5965 23.4993 46.4101C24.0213 46.2237 24.5433 46.0373 25.0652 45.8695C25.7177 45.6644 26.3888 45.4967 27.0599 45.3475C27.9734 45.1611 28.8868 45.012 29.8003 44.9188C29.2783 46.5406 28.719 48.1624 28.0852 49.7656C28.1039 50.0826 28.1225 50.3808 28.1411 50.6977C29.3901 50.4554 30.6764 50.3249 32 50.3249C33.3236 50.3249 34.6099 50.4554 35.8589 50.6977C35.8589 50.3808 35.8775 50.0639 35.9148 49.7656C35.2996 48.1624 34.7217 46.5406 34.1997 44.9188C35.1132 45.012 36.0453 45.1425 36.9401 45.3475C37.6112 45.4967 38.2636 45.6644 38.9348 45.8695C39.4567 46.0373 39.9787 46.2051 40.5007 46.4101C40.9667 46.5779 41.4141 46.7643 41.8615 46.9694C45.0306 48.3861 47.9201 50.474 50.2876 53.1957C56.2343 48.0692 60 40.482 60 32C60 16.5459 47.4727 4 32 4C16.5459 4 4 16.5273 4 32C4 40.4634 7.76564 48.0506 13.7124 53.1957C16.0799 50.474 18.9694 48.3861 22.1385 46.9694Z" fill="#A0DBE8"/>
<path d="M23.9818 52.0409C25.2868 51.463 26.6849 51.0156 28.1203 50.736C28.1203 50.4191 28.1017 50.1022 28.0644 49.8039C28.6796 48.2007 29.2575 46.5789 29.7794 44.957C28.866 45.0502 27.9339 45.1807 27.0391 45.3858C26.368 45.5349 25.7155 45.7027 25.0444 45.9078C24.5225 46.0755 24.0005 46.2433 23.4785 46.4484L25.5105 46.9517L23.9818 52.0409Z" fill="#525353"/>
<path d="M19.1721 55.0417C19.228 54.5197 19.2467 53.9978 19.2467 53.4572C19.2467 53.1403 19.5076 52.8793 19.8246 52.8793H20.3279L22.1175 46.9512C18.9484 48.3679 16.0589 50.4558 13.6914 53.1775C14.9963 54.3147 16.4131 55.3213 17.9045 56.1975C18.3332 55.806 18.7433 55.4146 19.1721 55.0417Z" fill="#525353"/>
<path d="M41.8438 46.9688L43.6334 52.8968H44.1367C44.4536 52.8968 44.7146 53.1578 44.7146 53.4747C44.7146 54.0154 44.7519 54.5373 44.7892 55.0593C45.2179 55.4321 45.6467 55.805 46.0382 56.2151C47.5481 55.3389 48.9463 54.3323 50.2512 53.1951C47.9023 50.4734 45.0129 48.3855 41.8438 46.9688Z" fill="#525353"/>
<path d="M38.433 46.9126L40.465 46.4093C39.943 46.2229 39.4211 46.0365 38.8991 45.8687C38.2466 45.6636 37.5755 45.4959 36.9044 45.3467C35.991 45.1603 35.0775 45.0112 34.1641 44.918C34.686 46.5398 35.2453 48.1616 35.8791 49.7648C35.8605 50.0818 35.8418 50.38 35.8232 50.6969C37.2772 50.9766 38.6567 51.424 39.9617 52.0019L38.433 46.9126Z" fill="#525353"/>
<path d="M31.9814 52.8976H35.9334C35.8589 52.1706 35.8216 51.4435 35.8402 50.7351C34.5912 50.4928 33.3049 50.3623 31.9814 50.3623C30.6578 50.3623 29.3715 50.4928 28.1225 50.7351C28.1411 51.4622 28.1039 52.1706 28.0293 52.8976H31.9814Z" fill="black"/>
<path d="M17.9258 56.1968C18.2427 56.3832 18.5782 56.5696 18.9138 56.7561C19.0256 56.1968 19.1189 55.6189 19.1748 55.041C18.746 55.4139 18.3359 55.8053 17.9258 56.1968Z" fill="black"/>
<path d="M23.7227 52.8968H28.0476C28.1221 52.1698 28.1594 51.4428 28.1408 50.7344C26.6867 51.014 25.3072 51.4614 24.0023 52.0393L23.7227 52.8968Z" fill="black"/>
<path d="M44.8066 55.041C44.8626 55.6189 44.9558 56.1968 45.0676 56.7561C45.4032 56.5883 45.7201 56.4019 46.0556 56.1968C45.6455 55.8053 45.2354 55.4139 44.8066 55.041Z" fill="black"/>
<path d="M40.2577 52.8968L39.9967 52.0393C38.6918 51.4614 37.2937 51.014 35.8583 50.7344C35.8396 51.4614 35.8769 52.1698 35.9515 52.8968H40.2577Z" fill="black"/>
<path d="M23.7237 52.8975L23.9847 52.04L25.532 46.9135L23.5 46.4102C23.034 46.5779 22.5866 46.7644 22.1392 46.9694L20.3495 52.8975H22.2697H23.7237Z" fill="#AA9678"/>
<path d="M39.9984 52.04L40.2594 52.8975H41.7134H43.6335L41.8439 46.9694C41.3965 46.7644 40.9491 46.5966 40.4831 46.4102L38.4511 46.9135L39.9984 52.04Z" fill="#AA9678"/>
<path d="M20.4043 54.091C20.4229 54.0723 20.4416 54.0724 20.4602 54.0537H20.4043C20.4043 54.0537 20.4043 54.0723 20.4043 54.091Z" fill="#C0B098"/>
<path d="M31.9799 54.0537H27.8601H23.3674H20.4593C20.4407 54.0724 20.422 54.0723 20.4034 54.091C20.3661 55.1909 20.217 56.2534 19.9746 57.2974C23.6098 59.0311 27.6737 60.0004 31.9799 60.0004V54.0537Z" fill="#C0B098"/>
<path d="M43.5774 54.0537H43.5215C43.5401 54.0724 43.5588 54.0723 43.5774 54.091C43.5774 54.0723 43.5774 54.0537 43.5774 54.0537Z" fill="#AA9678"/>
<path d="M43.5217 54.0537H40.6136H36.1023H31.9824V60.0004C36.27 60.0004 40.3526 59.0311 43.9877 57.2974C43.7454 56.2534 43.5963 55.1722 43.559 54.091C43.559 54.0723 43.5403 54.0537 43.5217 54.0537Z" fill="#AA9678"/>
<path d="M44.8066 55.0414C44.7507 54.5194 44.7321 53.9974 44.7321 53.4568C44.7321 53.1399 44.4711 52.8789 44.1542 52.8789H43.6509H41.6935H40.2394H35.9145H31.9624H28.0104H23.6855H22.2314H20.3113H19.808C19.4911 52.8789 19.2301 53.1399 19.2301 53.4568C19.2301 53.9974 19.1928 54.5194 19.1555 55.0414C19.0996 55.6193 19.0064 56.1972 18.8945 56.7564C19.2487 56.9428 19.6029 57.1292 19.9571 57.297C20.1995 56.2531 20.3486 55.1718 20.3859 54.0906C20.3859 54.072 20.3859 54.072 20.3859 54.0533H20.4418H23.3499H27.8426H31.9624H36.1009H40.5936H43.5017H43.5576C43.5576 54.072 43.5576 54.072 43.5576 54.0906C43.5949 55.1905 43.7441 56.2531 43.9864 57.297C44.3406 57.1292 44.6948 56.9428 45.049 56.7564C44.9371 56.1972 44.8626 55.6193 44.8066 55.0414Z" fill="#8B7460"/>
<path d="M39.9973 48.8892C39.9041 48.796 39.8295 48.6841 39.7363 48.5723C39.8295 48.7028 39.9227 48.796 39.9973 48.8892Z" fill="#525353"/>
<path d="M40.6486 49.542C40.6486 49.542 40.3689 49.3183 39.9961 48.9082C40.3689 49.3183 40.6486 49.542 40.6486 49.542Z" fill="#AA9678"/>
<path d="M50.6238 25.7738C50.6238 25.7738 50.6238 25.7552 50.6238 25.7738C50.3815 25.4383 50.1391 25.14 49.8968 24.879C49.7849 24.7485 49.6731 24.6367 49.5612 24.5248C49.5239 24.4875 49.468 24.4503 49.4307 24.413C49.3562 24.3384 49.2816 24.2825 49.207 24.2266V26.8364L50.1951 31.4037C50.2137 31.4409 50.2137 31.4782 50.2323 31.5155L50.9221 32.2985H51.6491C51.6491 32.2239 51.6491 32.168 51.6491 32.0934C51.6491 29.931 51.2949 27.8617 50.6611 25.923C50.6425 25.8484 50.6425 25.8111 50.6238 25.7738Z" fill="#BBBCBD"/>
<path d="M50.3059 31.8318V31.8505C50.3059 31.8505 50.3059 31.8505 50.3059 31.8691C50.3246 31.981 50.3246 32.0928 50.3246 32.2047C50.3246 32.2233 50.3246 32.2419 50.3246 32.2606C50.3246 32.2792 50.3246 32.2979 50.3246 32.3165C50.3246 32.4284 50.3246 32.5402 50.3059 32.6334V32.6521V32.6707C50.2873 32.7826 50.2686 32.8944 50.25 33.0063L50.9397 32.2419L50.25 31.459C50.2686 31.5895 50.2873 31.7013 50.3059 31.8318Z" fill="#676A6A"/>
<path d="M50.2857 32.7083C50.2857 32.6897 50.2857 32.6897 50.2857 32.671C50.3043 32.5592 50.3043 32.4473 50.3043 32.3541C50.3043 32.3355 50.3043 32.2982 50.3043 32.2796C50.3043 32.2609 50.3043 32.2423 50.3043 32.205C50.3043 32.0932 50.3043 31.9813 50.2857 31.8694C50.2857 31.8508 50.2857 31.8508 50.2857 31.8322C50.267 31.7203 50.2484 31.6085 50.2297 31.4966C50.2111 31.4593 50.2111 31.422 50.1925 31.3848C50.1179 31.1611 50.0433 30.9746 49.9315 30.8069C49.9128 30.7882 49.8942 30.7696 49.8942 30.7509C49.8569 30.7137 49.8383 30.6764 49.801 30.6391C49.7637 30.5832 49.7078 30.5459 49.6519 30.5086C49.6332 30.49 49.6146 30.49 49.5959 30.4713C49.5586 30.434 49.5027 30.4154 49.4654 30.3967C49.4468 30.3967 49.4281 30.3781 49.4095 30.3781C49.3536 30.3595 49.279 30.3408 49.2044 30.3408C49.1299 30.3408 49.074 30.3595 48.9994 30.3781C48.9807 30.3781 48.9621 30.3967 48.9435 30.3967C48.9062 30.4154 48.8503 30.434 48.813 30.4713C48.7943 30.49 48.7757 30.49 48.757 30.5086C48.7011 30.5459 48.6638 30.6018 48.6079 30.6391C48.5706 30.6764 48.552 30.7137 48.5147 30.7509C48.4961 30.7696 48.4774 30.7882 48.4774 30.8069C48.3656 30.9746 48.2724 31.1611 48.2164 31.3848V31.4034C48.1791 31.4966 48.1605 31.6085 48.1419 31.7203C48.1419 31.7576 48.1232 31.7762 48.1232 31.8135C48.1046 31.944 48.1046 32.0559 48.0859 32.1864C48.0859 32.205 48.0859 32.2236 48.0859 32.2423C48.0859 33.3049 48.5893 34.181 49.2044 34.181C49.3163 34.181 49.4095 34.1437 49.5214 34.1065C49.54 34.1065 49.5586 34.0878 49.5773 34.0878C49.6146 34.0692 49.6519 34.0319 49.6891 34.0133C49.7078 33.9946 49.7264 33.976 49.7451 33.9573C49.801 33.92 49.8383 33.8641 49.8942 33.8082C49.9315 33.7709 49.9501 33.7336 49.9874 33.6777C50.006 33.6404 50.0247 33.6218 50.0433 33.5845C50.0806 33.5286 50.0993 33.4726 50.1365 33.3981C50.1552 33.3794 50.1552 33.3608 50.1738 33.3235C50.2111 33.2303 50.2297 33.1371 50.267 33.0439C50.267 32.932 50.2857 32.8202 50.2857 32.7083ZM49.2417 31.9999C48.9994 31.9999 48.813 31.683 48.813 31.2729C48.813 30.8814 48.9994 30.5459 49.2417 30.5459C49.4841 30.5459 49.6705 30.8628 49.6705 31.2729C49.6705 31.683 49.4654 31.9999 49.2417 31.9999Z" fill="black"/>
<path d="M49.2432 32.0009C49.48 32.0009 49.672 31.6754 49.672 31.2739C49.672 30.8724 49.48 30.5469 49.2432 30.5469C49.0064 30.5469 48.8145 30.8724 48.8145 31.2739C48.8145 31.6754 49.0064 32.0009 49.2432 32.0009Z" fill="white"/>
<path d="M48.1992 31.3846C48.2738 31.1609 48.3484 30.9745 48.4602 30.8067C48.4788 30.7881 48.4975 30.7694 48.4975 30.7508C48.5348 30.7135 48.5534 30.6762 48.5907 30.639C48.628 30.583 48.6839 30.5457 48.7398 30.5085C48.7585 30.4898 48.7771 30.4898 48.7958 30.4712C48.833 30.4339 48.889 30.4153 48.9262 30.3966C48.9449 30.3966 48.9635 30.378 48.9822 30.378C49.0381 30.3593 49.1127 30.3407 49.1872 30.3407C49.2618 30.3407 49.3177 30.3593 49.3923 30.378C49.4109 30.378 49.4296 30.3966 49.4482 30.3966C49.4855 30.4153 49.5414 30.4339 49.5787 30.4712C49.5974 30.4898 49.616 30.4898 49.6346 30.5085C49.6906 30.5457 49.7278 30.6017 49.7838 30.639C49.8211 30.6762 49.8397 30.7135 49.877 30.7508C49.8956 30.7694 49.9143 30.7881 49.9143 30.8067C50.0261 30.9745 50.1193 31.1609 50.1753 31.3846L49.1872 26.8174L48.1992 31.3846Z" fill="#909393"/>
<path d="M35.9896 32.223C35.9896 32.1298 35.9896 32.0366 35.9709 31.9434C35.9523 31.8502 35.9523 31.7756 35.9337 31.6824C35.915 31.5892 35.8964 31.5147 35.8591 31.4401C35.8405 31.3655 35.8032 31.2723 35.7659 31.1977C35.7286 31.1232 35.6913 31.0486 35.654 30.974C35.5235 30.7503 35.3744 30.5453 35.188 30.3775C34.9456 30.1538 34.666 29.9674 34.3678 29.8369C34.2186 29.781 34.0508 29.725 33.9017 29.6878C33.9017 29.6878 33.9017 29.6878 33.8831 29.6878C33.7153 29.6505 33.5475 29.6318 33.3797 29.6318C33.212 29.6318 33.0442 29.6505 32.8764 29.6878H32.8578C32.69 29.725 32.5409 29.7623 32.3917 29.8183C32.3917 29.8183 32.3917 29.8183 32.3731 29.8183C32.2239 29.8742 32.0748 29.9487 31.9443 30.042C31.8138 30.1352 31.6833 30.2284 31.5715 30.3402H31.5528C31.3664 30.5266 31.1986 30.7317 31.0681 30.9554C31.0309 31.03 30.9936 31.1045 30.9563 31.1791C30.9563 31.1791 30.9563 31.1977 30.9377 31.1977C30.9004 31.2723 30.8817 31.3282 30.8631 31.4028C30.8631 31.4214 30.8444 31.4214 30.8444 31.4401C30.8258 31.5147 30.8072 31.5706 30.7885 31.6452C30.7885 31.6638 30.7699 31.6824 30.7699 31.7011C30.7512 31.7756 30.7512 31.8316 30.7326 31.9061C30.7326 31.9248 30.7326 31.9434 30.714 31.9621C30.714 32.0553 30.6953 32.1485 30.6953 32.2417C30.6953 32.4095 30.714 32.5772 30.7512 32.745C30.7512 32.745 30.7512 32.745 30.7512 32.7637C30.7885 32.9314 30.8258 33.0806 30.9004 33.2483C31.0309 33.5466 31.2173 33.8262 31.441 34.0686C31.6274 34.255 31.8325 34.4228 32.0562 34.5533C32.1307 34.5906 32.2053 34.6278 32.2799 34.6651H32.2985C32.3731 34.7024 32.4476 34.7211 32.5036 34.7397C32.5222 34.7397 32.5222 34.7397 32.5409 34.7583C32.6154 34.777 32.6713 34.7956 32.7459 34.8143C32.7646 34.8143 32.7832 34.8329 32.8018 34.8329C32.8764 34.8515 32.9323 34.8515 33.0069 34.8702C33.0255 34.8702 33.0442 34.8702 33.0628 34.8888C33.156 34.8888 33.2492 34.9075 33.3425 34.9075C33.7153 34.9075 34.0508 34.8329 34.3678 34.7024C34.5169 34.6278 34.666 34.5533 34.8152 34.4601C35.0948 34.2736 35.3371 34.0313 35.5235 33.7517C35.6167 33.6025 35.6913 33.4534 35.7659 33.3043C35.8964 32.9874 35.9709 32.6332 35.9709 32.279V32.2603C35.9896 32.223 35.9896 32.223 35.9896 32.223ZM33.3611 31.9061C32.8205 31.9061 32.3731 31.4587 32.3731 30.9181C32.3731 30.3775 32.8205 29.9301 33.3611 29.9301C33.9017 29.9301 34.3491 30.3775 34.3491 30.9181C34.3491 31.4587 33.9017 31.9061 33.3611 31.9061Z" fill="black"/>
<path d="M33.363 31.9067C33.9087 31.9067 34.351 31.4643 34.351 30.9187C34.351 30.373 33.9087 29.9307 33.363 29.9307C32.8173 29.9307 32.375 30.373 32.375 30.9187C32.375 31.4643 32.8173 31.9067 33.363 31.9067Z" fill="white"/>
<path d="M31.5343 30.3403L33.3612 24.7664C33.3612 24.7664 33.3612 24.4308 33.3612 24.1139C33.3612 24.0207 33.3612 23.9275 33.3612 23.8529C33.3612 23.8156 33.3612 23.797 33.3612 23.7784C33.3612 23.7411 33.3612 23.7038 33.3612 23.6665C33.3612 23.6479 33.3612 23.6106 33.3612 23.5919C33.3612 23.5733 33.3612 23.536 33.3612 23.5174C33.3612 23.4987 33.3612 23.4801 33.3612 23.4801C33.3612 23.4614 33.3612 23.4614 33.3612 23.4614C32.3545 23.2564 31.3106 23.1445 30.248 23.1445C29.8938 23.1445 29.5396 23.1632 29.1854 23.1818C29.1295 23.1818 29.0922 23.1818 29.0363 23.2005C27.2094 23.3309 25.4198 23.8156 23.7606 24.5799C22.3439 25.2324 21.0017 26.0899 19.8272 27.0966C19.5103 27.3762 19.1934 27.6558 18.8951 27.9541C18.8392 28.01 18.7833 28.066 18.7274 28.1219C18.4477 28.4015 18.1681 28.6998 17.9071 28.9981C17.8512 29.0726 17.7953 29.1285 17.7393 29.2031C17.4784 29.52 17.2174 29.8369 16.975 30.1539C16.9564 30.1725 16.9377 30.2098 16.9191 30.2284C16.6954 30.5453 16.4717 30.8622 16.248 31.1978C16.2107 31.2537 16.1548 31.3283 16.1175 31.3842C15.9497 31.6638 15.7819 31.9435 15.6328 32.2231H23.8911H23.9098L31.5343 30.3403Z" fill="#BBBCBD"/>
<path d="M38.5249 29.7256C38.5436 29.5019 38.5622 29.2969 38.5622 29.0732C38.5809 28.7749 38.5809 28.4953 38.5995 28.197C38.5995 27.9733 38.5995 27.7496 38.5995 27.5073C38.5995 27.4327 38.5995 27.3768 38.5995 27.3022C38.5995 26.7057 38.5622 26.1278 38.5436 25.5312C38.5436 25.5312 38.5249 25.5312 38.5249 25.5126C38.5249 25.5126 38.5063 25.5126 38.5063 25.494C38.3944 25.438 38.1335 25.2889 37.8911 25.1398H37.8725C37.8165 25.1025 37.7606 25.0652 37.7047 25.0466C37.6674 25.0279 37.6301 24.9906 37.5928 24.972L37.5742 24.9533C37.5369 24.9347 37.4996 24.9161 37.481 24.8974C37.1082 24.6924 36.7167 24.5246 36.3252 24.3568C35.3931 23.9653 34.1255 23.6111 33.3984 23.4434V23.9467V24.0585V24.0958C33.3984 24.4314 33.3984 24.7483 33.3984 24.7483L35.2067 30.3035C35.3931 30.4713 35.5609 30.6764 35.6727 30.9001C35.71 30.9747 35.7473 31.0492 35.7846 31.1238C35.8219 31.1984 35.8592 31.2729 35.8778 31.3661C35.8964 31.4407 35.9337 31.5339 35.9524 31.6085C35.971 31.7017 35.9896 31.7762 35.9896 31.8695C36.0083 31.9627 36.0083 32.0559 36.0083 32.1491V32.1677H38.208C38.3572 31.3661 38.469 30.5459 38.5249 29.7256C38.5249 29.7629 38.5249 29.7443 38.5249 29.7256Z" fill="#E2DDDB"/>
<path d="M36.0073 40.165C36.5107 39.6617 36.9767 39.1956 37.4241 38.7296C37.6851 38.4499 37.9461 38.1703 38.2071 37.9093C40.0526 35.9147 41.3948 34.0318 42.2151 31.627C42.2337 31.5711 42.2523 31.4965 42.271 31.4033C42.271 31.3847 42.271 31.3847 42.271 31.366C42.2896 31.2728 42.3083 31.1796 42.3269 31.0678C42.3269 30.9932 42.3455 30.9186 42.3455 30.8441C42.1405 29.8001 41.749 28.7748 41.3948 27.7682C41.3948 27.7682 41.3948 27.7682 41.3948 27.7868C41.3948 27.7868 41.3948 27.7868 41.3762 27.7682C41.3016 27.7123 41.2457 27.6377 41.1711 27.5818C40.9661 27.3953 40.761 27.2089 40.5373 27.0225C39.8848 26.4819 39.2137 25.9786 38.5053 25.5498C38.5426 26.1463 38.5613 26.7242 38.5613 27.3208C38.5613 27.3953 38.5613 27.4513 38.5613 27.5258C38.5613 27.7495 38.5613 27.9732 38.5613 28.2156C38.5613 28.5139 38.5426 28.8121 38.524 29.0917C38.5053 29.3155 38.5053 29.5205 38.4867 29.7442C38.4867 29.7629 38.4867 29.7815 38.4867 29.8188C38.4121 30.639 38.3189 31.4593 38.1698 32.2609L37.9088 33.4912C37.3682 35.6909 36.2683 37.667 35.3735 39.7176C35.1312 40.2582 34.9075 40.8174 34.7024 41.3767C34.6838 41.4326 34.6651 41.4886 34.6465 41.5445C34.9261 41.2462 35.1871 40.9852 35.3735 40.7988C35.6159 40.5565 35.8023 40.3514 36.0073 40.165Z" fill="#FBB040"/>
<path d="M31.5547 30.3412C31.6665 30.2294 31.797 30.1362 31.9275 30.0429C32.058 29.9497 32.2071 29.8752 32.3563 29.8192C32.3563 29.8192 32.3563 29.8192 32.3749 29.8192C32.5241 29.7633 32.6732 29.7074 32.841 29.6888H32.8596C33.0274 29.6515 33.1952 29.6328 33.3629 29.6328C33.5307 29.6328 33.6985 29.6515 33.8663 29.6888C33.8663 29.6888 33.8663 29.6888 33.8849 29.6888C34.0527 29.726 34.2018 29.7633 34.351 29.8379C34.6492 29.9684 34.9289 30.1362 35.1712 30.3785L33.3629 24.8232L31.5547 30.3412Z" fill="#909393"/>
<path d="M30.9195 33.2489C30.8635 33.0998 30.8076 32.932 30.7703 32.7643C30.7703 32.7643 30.7703 32.7643 30.7703 32.7456C30.7331 32.5778 30.7144 32.4101 30.7144 32.2423C30.7144 32.1491 30.7144 32.0559 30.7331 31.9627C30.7331 31.944 30.7331 31.9254 30.7517 31.9067C30.7517 31.8322 30.7703 31.7762 30.789 31.7017C30.789 31.683 30.8076 31.6644 30.8076 31.6457C30.8263 31.5712 30.8449 31.5153 30.8635 31.4407C30.8635 31.422 30.8822 31.422 30.8822 31.4034C30.9008 31.3288 30.9381 31.2543 30.9568 31.1983C30.9568 31.1983 30.9568 31.1797 30.9754 31.1797C31.0127 31.1051 31.05 31.0306 31.0873 30.956C31.2177 30.7323 31.3855 30.5272 31.5719 30.3408L23.9288 32.2236H23.9102L31.4787 34.0692C31.2364 33.8455 31.05 33.5659 30.9195 33.2489Z" fill="#676A6A"/>
<path d="M48.1075 31.813C48.1075 31.7757 48.1262 31.7384 48.1262 31.7198C48.1448 31.6079 48.1635 31.4961 48.2007 31.4029C48.2007 31.3842 48.2007 31.3842 48.2007 31.3656L49.1888 26.7983V24.1885C48.3685 23.5174 47.511 23.1445 46.5975 23.1445C45.4418 23.1445 44.3792 23.7784 43.5776 24.5613C42.7014 25.4188 42.0303 26.5001 41.4711 27.5813C41.4524 27.6372 41.4151 27.6745 41.3965 27.7304C41.5643 27.8795 41.732 28.0287 41.8998 28.1778C42.2727 28.5134 42.6455 28.8676 42.9997 29.2218C43.1675 29.3895 43.3352 29.5573 43.503 29.7251C43.6708 29.9115 43.8572 30.0793 44.025 30.2657C44.2487 30.508 44.4724 30.7317 44.6774 30.9741C44.7707 31.0673 44.8639 31.1791 44.9571 31.2724C45.2181 31.5706 45.479 31.8503 45.74 32.1485C45.7773 32.1858 45.8146 32.2231 45.8332 32.2417H48.0889C48.0889 32.2231 48.0889 32.2044 48.0889 32.1858C48.0889 32.074 48.0889 31.9435 48.1075 31.813Z" fill="#E2DDDB"/>
<path d="M14.2715 35.113C14.2715 35.0943 14.2901 35.0757 14.2901 35.057C14.4393 34.6842 14.5884 34.3114 14.7562 33.9385C14.7935 33.8267 14.8494 33.7335 14.9053 33.6402C15.0358 33.342 15.1849 33.0624 15.3341 32.7827C15.39 32.6709 15.4459 32.559 15.5205 32.4285C15.5578 32.3726 15.5951 32.298 15.6323 32.2421C15.8001 31.9625 15.9493 31.6829 16.117 31.4032C16.1543 31.3473 16.2102 31.2727 16.2475 31.2168C16.4526 30.8813 16.6763 30.5643 16.9186 30.2474C16.9373 30.2288 16.9559 30.1915 16.9746 30.1729C17.2169 29.8373 17.4779 29.5204 17.7389 29.2221C17.7948 29.1476 17.8507 29.0916 17.9066 29.0171C18.1676 28.7188 18.4473 28.4205 18.7269 28.1409C18.7828 28.085 18.8387 28.0291 18.8947 27.9731C19.1929 27.6749 19.4912 27.3952 19.8268 27.1156C21.0758 22.9026 24.9346 19.8267 29.4832 19.8267C31.3101 19.8267 33.137 20.3486 34.7029 21.318C36.3061 22.306 37.611 23.7414 38.4499 25.4006C38.4499 25.4006 38.4499 25.4192 38.4686 25.4192C38.4872 25.4565 38.5058 25.4938 38.5431 25.5497C39.2515 25.9785 39.9226 26.4818 40.5751 27.0224C40.7988 27.2088 41.0038 27.3952 41.2089 27.5817C41.2835 27.6376 41.3394 27.7122 41.414 27.7681C41.4326 27.7122 41.4513 27.6749 41.4885 27.6189C42.1224 23.5737 43.912 20.6469 46.0185 20.6469C47.6031 20.6469 49.0198 22.306 49.8774 24.86V24.8786C50.1197 25.1396 50.362 25.4379 50.6044 25.7548C50.6044 25.7548 50.6044 25.7734 50.623 25.7734C50.6417 25.8107 50.6417 25.848 50.6603 25.8853L50.623 25.7548C47.9945 17.9998 40.6683 12.4072 32.0185 12.4072C21.169 12.4072 12.3887 21.1875 12.3887 32.0371C12.3887 34.1809 12.7242 36.2315 13.358 38.1516C13.358 38.1516 13.358 38.1516 13.358 38.1329C13.4885 37.555 13.6377 36.9771 13.8054 36.4179C13.9546 35.9705 14.1037 35.5417 14.2715 35.113Z" fill="#525353"/>
<path d="M50.9195 32.262L50.2297 33.0263C50.2111 33.1195 50.1738 33.2127 50.1365 33.3059C50.1365 33.3246 50.1179 33.3432 50.0992 33.3805C50.0806 33.4364 50.0433 33.511 50.006 33.5669C49.9874 33.6042 49.9687 33.6228 49.9501 33.6601C49.9128 33.6974 49.8942 33.7533 49.8569 33.7906C49.8196 33.8465 49.7637 33.9025 49.7077 33.9397C49.6891 33.9584 49.6705 33.977 49.6518 33.9957C49.6145 34.033 49.5773 34.0516 49.54 34.0702C49.5213 34.0702 49.5027 34.0889 49.484 34.0889C49.3908 34.1448 49.279 34.1634 49.1671 34.1634C48.552 34.1634 48.0486 33.3059 48.0486 32.2247H45.793C46.2217 32.7094 46.6319 33.1941 47.0233 33.6974L47.042 33.716C47.4335 34.2007 47.8249 34.6854 48.2164 35.1701C48.235 35.1887 48.2537 35.226 48.2723 35.2447C48.6452 35.7107 48.9994 36.1768 49.3536 36.6428C49.3908 36.6801 49.4281 36.736 49.4654 36.7733C49.8382 37.2766 50.2111 37.78 50.5839 38.2646C50.5839 38.2646 50.5839 38.2646 50.5839 38.2833C51.2364 36.3632 51.5906 34.3312 51.6092 32.2061L50.9195 32.262Z" fill="white"/>
<path d="M29.0354 23.1818C29.0913 23.1818 29.1286 23.1818 29.1845 23.1631C29.5387 23.1445 29.8929 23.1259 30.2471 23.1259C31.3097 23.1259 32.3536 23.2377 33.3603 23.4428C33.3603 23.4428 33.3603 23.4428 33.3603 23.4614C33.3603 23.4614 33.3603 23.4801 33.3603 23.4987C33.3603 23.5173 33.3603 23.536 33.3603 23.5733C33.3603 23.5919 33.3603 23.6105 33.3603 23.6478C33.3603 23.6851 33.3603 23.7224 33.3603 23.7597C33.3603 23.7783 33.3603 23.8156 33.3603 23.8342C33.3603 23.8715 33.3603 23.9088 33.3603 23.9461V23.4428C34.0687 23.6105 35.3363 23.9647 36.2871 24.3562C36.6785 24.524 37.07 24.7104 37.4429 24.8968C37.4615 24.8968 37.4988 24.9155 37.5361 24.9528C37.5361 24.9528 37.5547 24.9528 37.5547 24.9714C37.592 24.99 37.6293 25.0087 37.6666 25.046C37.7225 25.0832 37.7784 25.1019 37.8343 25.1392H37.853C38.0953 25.2697 38.3563 25.4374 38.4682 25.4934C38.4868 25.4934 38.4868 25.512 38.4868 25.512L38.5054 25.5307C38.4868 25.4934 38.4682 25.4561 38.4309 25.4002C38.4309 25.4002 38.4309 25.3815 38.4122 25.3815C37.5733 23.7038 36.2498 22.2683 34.6652 21.299C33.0993 20.3482 31.2724 19.8076 29.4455 19.8076C24.8969 19.8076 21.0381 22.8835 19.7891 27.0966C20.9821 26.0713 22.3057 25.2137 23.7225 24.5799C25.4189 23.797 27.2271 23.3309 29.0354 23.1818Z" fill="black"/>
<path d="M43.5957 24.58C44.3973 23.797 45.4599 23.1632 46.6157 23.1632C47.5291 23.1632 48.4053 23.5361 49.2069 24.2072C49.2814 24.2631 49.356 24.3376 49.4306 24.3936C49.4679 24.4309 49.5238 24.4681 49.5611 24.5054C49.6729 24.6173 49.7848 24.7291 49.8966 24.8596V24.841C49.0205 22.2871 47.6223 20.6279 46.0378 20.6279C43.9312 20.6279 42.1416 23.5361 41.5078 27.6C42.0298 26.5187 42.7195 25.4375 43.5957 24.58Z" fill="black"/>
<path d="M24.9908 50.3623C25.1772 50.4369 25.345 50.4928 25.5314 50.5487C27.5634 51.2571 29.7445 51.6486 32.0188 51.6486C34.61 51.6486 37.0893 51.1452 39.345 50.2318C39.4568 50.1759 39.5873 50.1386 39.6992 50.0827C39.8856 50.0081 40.0907 49.9149 40.2771 49.8217C40.4449 49.7471 40.6126 49.6725 40.7804 49.5793C40.7431 49.5793 40.7058 49.598 40.6686 49.598C39.9602 49.6725 39.2704 49.6912 38.5807 49.5793C34.5354 49.0014 33.6406 47.044 33.7711 45.0307C33.4728 44.863 33.1932 44.6765 32.8763 44.4528C29.7631 42.1972 27.9176 39.7924 27.9176 39.7924C27.9176 39.7924 30.3224 41.6379 33.9016 43.0361C33.9762 43.0733 34.0507 43.092 34.1253 43.1293C34.2931 42.5514 34.4981 41.9921 34.6659 41.5074C34.6845 41.4515 34.7032 41.3956 34.7218 41.3397C34.9269 40.7804 35.1506 40.2211 35.3929 39.6805C36.2877 37.6299 37.3876 35.6353 37.9282 33.4542L38.1892 32.2238H35.9895V32.2424C35.9895 32.6153 35.9149 32.9508 35.7844 33.2677C35.7098 33.4169 35.6353 33.5847 35.5421 33.7152C35.3556 33.9948 35.1133 34.2371 34.8337 34.4235C34.6845 34.5167 34.5354 34.5913 34.3863 34.6659C34.0694 34.7964 33.7152 34.8709 33.361 34.8709C33.2678 34.8709 33.1746 34.8709 33.0813 34.8523C33.0627 34.8523 33.0441 34.8523 33.0254 34.8337C32.9509 34.8337 32.8949 34.815 32.8204 34.7964C32.8017 34.7964 32.7831 34.7777 32.7644 34.7777C32.6899 34.7591 32.6339 34.7405 32.5594 34.7218C32.5407 34.7218 32.5407 34.7218 32.5221 34.7032C32.4475 34.6845 32.373 34.6472 32.317 34.6286H32.2984C32.2238 34.5913 32.1493 34.554 32.0747 34.5167C31.851 34.3863 31.6459 34.2371 31.4595 34.0321L23.8909 32.1865H15.6326C15.5953 32.2424 15.558 32.317 15.5208 32.3729C15.4648 32.4848 15.3903 32.5966 15.3343 32.7271C15.1852 33.0068 15.0361 33.305 14.9056 33.5847C14.8497 33.6779 14.8124 33.7897 14.7564 33.8829C14.5887 34.2558 14.4395 34.6286 14.2904 35.0014C14.2904 35.0201 14.2718 35.0387 14.2718 35.0574C14.104 35.4861 13.9548 35.9335 13.8244 36.3809C13.6566 36.9402 13.5074 37.5181 13.377 38.096C14.6819 42.0667 17.1985 45.4781 20.5168 47.8643C20.61 47.9389 20.7218 47.9948 20.815 48.0693C21.3743 48.4608 21.9522 48.8337 22.5487 49.1506C23.3317 49.6353 24.1519 50.0267 24.9908 50.3623Z" fill="white"/>
<path d="M38.5432 44.247C38.5059 44.452 38.4873 44.6571 38.4873 44.8622C38.4686 45.2163 38.5059 45.5705 38.5618 45.8875C38.5991 46.1112 38.6364 46.3162 38.6923 46.5213C38.7855 46.8195 38.8788 47.0992 39.0092 47.3602C39.1397 47.6211 39.2702 47.8635 39.4007 48.0685C39.438 48.1431 39.4939 48.2177 39.5312 48.2736C39.6058 48.3668 39.6617 48.46 39.7363 48.5532C39.8295 48.6651 39.9227 48.7769 39.9973 48.8701C40.3515 49.2803 40.6497 49.504 40.6497 49.504C40.6497 49.504 40.6497 49.504 40.6497 49.5226C40.6497 49.5412 40.6497 49.5599 40.6684 49.5785C40.7056 49.5785 40.7429 49.5599 40.7802 49.5599C41.6564 49.448 42.5325 49.2057 43.4087 48.9074C43.8561 48.7397 44.3035 48.5719 44.7323 48.3855C44.8628 48.3295 44.9933 48.255 45.1238 48.199C49.6164 46.0179 53.3821 42.1777 53.3821 42.1777C47.7523 44.9554 42.2156 44.8435 38.5432 44.247Z" fill="#9F2255"/>
<path d="M49.3934 36.6794C49.0392 36.2134 48.6664 35.7473 48.3122 35.2813C48.2935 35.2626 48.2749 35.2254 48.2562 35.2067C47.8648 34.722 47.4733 34.2373 47.0818 33.7527L47.0632 33.734C46.653 33.2307 46.2429 32.746 45.8328 32.2613C45.8142 32.224 45.7769 32.2054 45.7582 32.1681C45.4972 31.8698 45.2363 31.5902 44.9753 31.2919C44.8821 31.1987 44.7889 31.0869 44.6957 30.9937C44.472 30.7513 44.2669 30.5276 44.0432 30.2853C43.8754 30.0989 43.689 29.9311 43.5212 29.7447C43.3534 29.5769 43.1857 29.4091 43.0179 29.2413C42.6637 28.8872 42.2909 28.533 41.918 28.1974C41.7502 28.0483 41.5825 27.8991 41.4147 27.75C41.7689 28.7753 42.179 29.8006 42.3841 30.8632C42.44 31.1428 42.4773 31.4038 42.5146 31.6648C43.0179 35.3372 41.8248 37.742 39.9606 40.9111C39.8301 41.1348 39.681 41.3772 39.5505 41.6009C39.1218 42.3092 38.8421 42.999 38.693 43.6328C38.6371 43.8379 38.5998 44.0429 38.5625 44.248C42.2349 44.8445 47.7529 44.9564 53.4014 42.1788C53.4014 42.1788 52.3015 40.5569 50.6237 38.3199C50.2509 37.8166 49.8781 37.3132 49.5052 36.8286C49.468 36.7726 49.4307 36.7167 49.3934 36.6794Z" fill="#E2066F"/>
<path d="M40.6503 49.5432C40.6503 49.5432 40.3707 49.3195 39.9979 48.9094C39.9046 48.8161 39.8301 48.7043 39.7369 48.5924C39.6623 48.4992 39.6064 48.406 39.5318 48.3128C39.4945 48.2382 39.4386 48.1823 39.4013 48.1078C39.2708 47.8841 39.1403 47.6604 39.0098 47.3994C38.898 47.1384 38.7861 46.8588 38.6929 46.5605C38.637 46.3554 38.5811 46.1504 38.5624 45.9267C38.5065 45.6098 38.4879 45.2556 38.4879 44.9014C38.4879 44.6963 38.5065 44.4912 38.5438 44.2862C38.5811 44.0811 38.6184 43.8761 38.6743 43.671C38.8421 43.0372 39.1031 42.3661 39.5318 41.639C39.6623 41.3967 39.8114 41.173 39.9419 40.9493C41.8061 37.7802 42.9992 35.394 42.4959 31.703C42.4586 31.442 42.4213 31.1624 42.3654 30.9014C42.3467 31.0878 42.3094 31.2556 42.2722 31.3861C42.2722 31.4047 42.2722 31.4047 42.2722 31.4233C42.2535 31.5165 42.2349 31.5911 42.2162 31.647C41.396 34.0518 40.0538 35.9347 38.2082 37.9293C37.9659 38.209 37.7049 38.4699 37.4253 38.7496C36.9779 39.2156 36.4932 39.7003 36.0085 40.185C35.8035 40.39 35.5984 40.5765 35.3933 40.7815C35.2069 40.9679 34.9459 41.2289 34.6663 41.5272C34.4985 42.0119 34.2935 42.5711 34.1257 43.149C34.0511 43.1118 33.9766 43.0931 33.902 43.0558C30.3228 41.6763 27.918 39.8122 27.918 39.8122C27.918 39.8122 29.7635 42.2169 32.8767 44.4726C33.175 44.6963 33.4732 44.8827 33.7715 45.0505C33.641 47.0825 34.5358 49.0212 38.5811 49.5991C39.2708 49.6923 39.9606 49.6923 40.669 49.6177C40.669 49.5805 40.6503 49.5618 40.6503 49.5432Z" fill="black"/>
<path d="M139.424 5L116 18.511V45.4976L122.687 49.3604L122.639 22.3679L139.376 12.7138L156.114 22.3679V49.3486L162.8 45.4976V18.4874L139.424 5Z" fill="#F26322"/>
<path d="M142.74 49.3518L139.4 51.2921L136.042 49.3695V22.3652L129.361 26.2221L129.373 53.2146L139.394 59L149.427 53.2146V26.2221L142.74 22.3652V49.3518Z" fill="#F26322"/>
<path d="M76 31.5C75.7239 31.5 75.5 31.7239 75.5 32C75.5 32.2761 75.7239 32.5 76 32.5V31.5ZM76 32.5H96V31.5H76V32.5Z" fill="#212B35"/>
<path d="M89 25L96 32L89 39" stroke="#212B35" stroke-linecap="round" stroke-linejoin="round"/>
</svg>
