<svg width="64" height="64" viewBox="0 0 64 64" fill="none" xmlns="http://www.w3.org/2000/svg">
<rect x="3.19922" y="36.959" width="8.62546" height="21.5731" fill="#212B35" fill-opacity="0.06" stroke="#212B35" stroke-linecap="round" stroke-linejoin="round"/>
<path d="M45.1846 45.6147L56.1536 39.8194C57.1912 39.3903 59.5481 39.195 61.3414 41.4282C61.6665 41.8331 61.5431 42.4164 61.1231 42.7219L41.7305 56.828C40.3025 57.8779 36.1898 59.5683 31.1631 57.9304C26.1365 56.2926 19.8341 54.4132 17.3112 53.6783C16.2164 53.4158 14.2214 53.5489 11.8223 56.4467" stroke="#212B35" stroke-linecap="round"/>
<path d="M11.8223 40.272C14.2507 38.5922 20.2448 36.2988 25.5184 39.203C33.7828 43.7543 42.8552 37.5786 45.7446 47.0003C45.9322 47.6119 45.4557 48.2131 44.8159 48.2131H32.075" stroke="#212B35" stroke-linecap="round"/>
<ellipse cx="35.9792" cy="18.3267" rx="12.9382" ry="12.9439" fill="#212B35" fill-opacity="0.06" stroke="#212B35" stroke-linecap="round" stroke-linejoin="round"/>
<path fill-rule="evenodd" clip-rule="evenodd" d="M33.2468 15.2776C33.2468 13.8854 34.4217 12.7266 35.909 12.7266C37.3963 12.7266 38.5712 13.8854 38.5712 15.2776C38.5712 15.5538 38.7951 15.7776 39.0712 15.7776C39.3474 15.7776 39.5712 15.5538 39.5712 15.2776C39.5712 13.2997 37.9146 11.7266 35.909 11.7266C33.9034 11.7266 32.2468 13.2997 32.2468 15.2776C32.2468 17.2336 33.8668 18.7937 35.8423 18.8281C35.8615 18.8303 35.881 18.8315 35.9008 18.8315C37.3881 18.8315 38.563 19.9903 38.563 21.3825C38.563 22.7747 37.3881 23.9336 35.9008 23.9336C34.4134 23.9336 33.2385 22.7747 33.2385 21.3825C33.2385 21.1064 33.0147 20.8825 32.7385 20.8825C32.4624 20.8825 32.2385 21.1064 32.2385 21.3825C32.2385 23.3604 33.8952 24.9336 35.9008 24.9336C37.9063 24.9336 39.563 23.3604 39.563 21.3825C39.563 19.4266 37.9429 17.8664 35.9674 17.8321C35.9482 17.8298 35.9287 17.8287 35.909 17.8287C34.4217 17.8287 33.2468 16.6698 33.2468 15.2776Z" fill="#212B35"/>
<path d="M35.9004 12.226V10.5625" stroke="#212B35" stroke-linecap="round" stroke-linejoin="round"/>
<path d="M35.9004 26.0951V24.4316" stroke="#212B35" stroke-linecap="round" stroke-linejoin="round"/>
</svg>
