<svg width="64" height="64" viewBox="0 0 64 64" fill="none" xmlns="http://www.w3.org/2000/svg">
<g clip-path="url(#clip0_5075_28384)">
<path opacity="0.06" fill-rule="evenodd" clip-rule="evenodd" d="M7.40918 7.71875V49.742H22.3235L17.1235 42.6889L32.0854 17.7647L47.0378 42.6889L41.8377 49.742H56.7616V7.71875H7.40918Z" fill="#212B35"/>
<path d="M20.2475 54.5077H2.64746V2.95312H61.5237V54.5077H43.9237" stroke="#212B35"/>
<path d="M38.9717 62.1041V53.8119L46.8479 43.1273L31.8955 18.2031L16.9336 43.1273L24.8193 53.8119V62.1041M31.6955 40.1536V18.2031" stroke="#212B35"/>
<path d="M32.1714 42.0312C33.2233 42.0312 34.0761 41.1778 34.0761 40.125C34.0761 39.0722 33.2233 38.2188 32.1714 38.2188C31.1194 38.2188 30.2666 39.0722 30.2666 40.125C30.2666 41.1778 31.1194 42.0312 32.1714 42.0312Z" fill="#212B35"/>
</g>
<defs>
<clipPath id="clip0_5075_28384">
<rect width="60" height="61" fill="white" transform="translate(2 2)"/>
</clipPath>
</defs>
</svg>
