<svg width="64" height="64" viewBox="0 0 64 64" fill="none" xmlns="http://www.w3.org/2000/svg">
<path opacity="0.06" fill-rule="evenodd" clip-rule="evenodd" d="M2 2H62V11.7056H32H2V2ZM6.8528 56.1766H57.1472V62H6.8528V56.1766Z" fill="#212B35"/>
<path d="M57.1472 62H6.8528M2 2H62V56.1766H2V2Z" stroke="#212B35"/>
<path d="M24.0625 44.8234C20.9762 42.3225 19 38.4795 19 34.17C19 26.6332 25.0442 20.5234 32.5 20.5234C39.9558 20.5234 46 26.6332 46 34.17C46 38.4795 44.0238 42.3225 40.9375 44.8234" stroke="#212B35" stroke-linecap="round" stroke-linejoin="round"/>
<path d="M33 23.2236L33 20.5236L32 20.5236L32 23.2236L33 23.2236Z" fill="#212B35"/>
<path d="M41.6988 28.4436L43.7672 26.708L43.1244 25.942L41.056 27.6775L41.6988 28.4436Z" fill="#212B35"/>
<path d="M23.4472 28.4436L21.3788 26.708L22.0216 25.942L24.0899 27.6775L23.4472 28.4436Z" fill="#212B35"/>
<path d="M32.603 42.7858C32.1429 43.4479 31.2369 43.61 30.5793 43.1478C29.9217 42.6855 29.7616 41.7741 30.2217 41.1119C30.6818 40.4498 38.0769 32.3574 38.0769 32.3574C38.0769 32.3574 33.0631 42.1236 32.603 42.7858Z" stroke="#212B35" stroke-linecap="round" stroke-linejoin="round"/>
<path d="M7 8C7.55228 8 8 7.55228 8 7C8 6.44772 7.55228 6 7 6C6.44772 6 6 6.44772 6 7C6 7.55228 6.44772 8 7 8Z" fill="#212B35"/>
<path d="M13 8C13.5523 8 14 7.55228 14 7C14 6.44772 13.5523 6 13 6C12.4477 6 12 6.44772 12 7C12 7.55228 12.4477 8 13 8Z" fill="#212B35"/>
<path d="M10 8C10.5523 8 11 7.55228 11 7C11 6.44772 10.5523 6 10 6C9.44772 6 9 6.44772 9 7C9 7.55228 9.44772 8 10 8Z" fill="#212B35"/>
</svg>
