<svg width="70" height="64" viewBox="0 0 70 64" fill="none" xmlns="http://www.w3.org/2000/svg">
<path opacity="0.06" fill-rule="evenodd" clip-rule="evenodd" d="M2 2H62V11.7056H32H2V2ZM6.8528 56.1766H57.1472V62H6.8528V56.1766Z" fill="#212B35"/>
<path d="M57.1472 62H6.8528M62 35V2H2V56.1766H47" stroke="#212B35"/>
<path d="M56.9961 54.9255L51 56L51.9994 49.9508L63.452 38.5886C63.6378 38.4021 63.8588 38.2541 64.1024 38.153C64.346 38.052 64.6072 38 64.8711 38C65.1349 38 65.3962 38.052 65.6397 38.153C65.8833 38.2541 66.1043 38.4021 66.2901 38.5886L68.4088 40.6979C68.5961 40.8829 68.7448 41.1029 68.8463 41.3454C68.9478 41.5879 69 41.848 69 42.1107C69 42.3734 68.9478 42.6335 68.8463 42.8759C68.7448 43.1184 68.5961 43.3385 68.4088 43.5235L56.9961 54.9255Z" stroke="#000001" stroke-linecap="round" stroke-linejoin="round"/>
<rect x="6.5" y="15.5" width="51" height="19" stroke="#212B35"/>
<rect x="6.5" y="38.5" width="40" height="5" stroke="#212B35"/>
<path d="M7 8C7.55228 8 8 7.55228 8 7C8 6.44772 7.55228 6 7 6C6.44772 6 6 6.44772 6 7C6 7.55228 6.44772 8 7 8Z" fill="#212B35"/>
<path d="M13 8C13.5523 8 14 7.55228 14 7C14 6.44772 13.5523 6 13 6C12.4477 6 12 6.44772 12 7C12 7.55228 12.4477 8 13 8Z" fill="#212B35"/>
<path d="M10 8C10.5523 8 11 7.55228 11 7C11 6.44772 10.5523 6 10 6C9.44772 6 9 6.44772 9 7C9 7.55228 9.44772 8 10 8Z" fill="#212B35"/>
</svg>
