<svg width="64" height="64" viewBox="0 0 64 64" fill="none" xmlns="http://www.w3.org/2000/svg">
<path opacity="0.06" d="M10.2258 18.6553C14.7688 18.6553 18.4516 14.9854 18.4516 10.4585C18.4516 5.93154 14.7688 2.26172 10.2258 2.26172C5.68282 2.26172 2 5.93154 2 10.4585C2 14.9854 5.68282 18.6553 10.2258 18.6553Z" fill="#212B35"/>
<path opacity="0.06" d="M53.2258 61.6318C57.7688 61.6318 61.4516 57.962 61.4516 53.4351C61.4516 48.9081 57.7688 45.2383 53.2258 45.2383C48.6828 45.2383 45 48.9081 45 53.4351C45 57.962 48.6828 61.6318 53.2258 61.6318Z" fill="#212B35"/>
<path d="M32.171 42.1624C37.7882 42.1624 42.3419 37.6131 42.3419 32.0011C42.3419 26.3892 37.7882 21.8398 32.171 21.8398C26.5537 21.8398 22 26.3892 22 32.0011C22 37.6131 26.5537 42.1624 32.171 42.1624Z" stroke="#212B35" stroke-linecap="round" stroke-linejoin="round"/>
<path d="M24.2383 38.6683C24.8867 36.0457 27.2286 34.207 29.9189 34.207H30.0641H31.9125H32.1157H33.9641H34.1092C36.7415 34.207 39.0447 35.9683 39.7512 38.4941" stroke="#212B35" stroke-linecap="round" stroke-linejoin="round"/>
<path fill-rule="evenodd" clip-rule="evenodd" d="M32 25.1875C33.6579 25.1875 34.9928 26.5296 34.9928 28.1875C34.9928 29.8454 33.6507 31.1875 32 31.1875C30.3493 31.1875 29 29.8454 29 28.1875C29 26.5296 30.3493 25.1875 32 25.1875V25.1875Z" stroke="#212B35" stroke-linecap="round" stroke-linejoin="round"/>
<path d="M53.2258 18.6553C57.7688 18.6553 61.4516 14.9854 61.4516 10.4585C61.4516 5.93154 57.7688 2.26172 53.2258 2.26172C48.6828 2.26172 45 5.93154 45 10.4585C45 14.9854 48.6828 18.6553 53.2258 18.6553Z" stroke="#212B35" stroke-linecap="round" stroke-linejoin="round"/>
<path d="M48.8496 14.3975C49.2367 12.8298 50.6496 11.7266 52.2657 11.7266H52.3528H53.4657H53.5915H54.7044H54.7915C56.3786 11.7266 57.7625 12.7814 58.1786 14.2911" stroke="#212B35" stroke-linecap="round" stroke-linejoin="round"/>
<path fill-rule="evenodd" clip-rule="evenodd" d="M53.5068 6.10352C54.3378 6.10352 55.0135 6.77919 55.0135 7.60352C55.0135 8.42784 54.3378 9.10352 53.5068 9.10352C52.6757 9.10352 52 8.4346 52 7.60352C52 6.77243 52.6757 6.10352 53.5068 6.10352Z" stroke="#212B35" stroke-linecap="round" stroke-linejoin="round"/>
<path d="M5.90039 14.3975C6.28749 12.8298 7.70039 11.7266 9.31652 11.7266H9.40362H10.5165H10.6423H11.7552H11.8423C13.4294 11.7266 14.8133 12.7814 15.2294 14.2911" stroke="#212B35" stroke-linecap="round" stroke-linejoin="round"/>
<path fill-rule="evenodd" clip-rule="evenodd" d="M10.5068 6.10352C11.3378 6.10352 12.0135 6.77919 12.0135 7.60352C12.0135 8.42784 11.3378 9.10352 10.5068 9.10352C9.67568 9.10352 9 8.4346 9 7.60352C9 6.77243 9.67568 6.10352 10.5068 6.10352Z" stroke="#212B35" stroke-linecap="round" stroke-linejoin="round"/>
<path d="M48.8496 57.3741C49.2367 55.8064 50.6496 54.7031 52.2657 54.7031H52.3528H53.4657H53.5915H54.7044H54.7915C56.3786 54.7031 57.7625 55.758 58.1786 57.2676" stroke="#212B35" stroke-linecap="round" stroke-linejoin="round"/>
<path d="M17.4453 6.05527C21.7421 3.62624 26.7163 2.26172 31.9905 2.26172" stroke="#212B35" stroke-linecap="round" stroke-linejoin="round"/>
<path d="M2.24219 32.0112C2.24219 26.6886 3.64541 21.695 6.08412 17.3789" stroke="#212B35" stroke-linecap="round" stroke-linejoin="round"/>
<path d="M46.5644 57.9355C42.258 60.3646 37.2838 61.7388 31.9902 61.7388" stroke="#212B35" stroke-linecap="round" stroke-linejoin="round"/>
<path d="M61.7582 32.0098C61.7582 37.3033 60.3743 42.2678 57.9453 46.5743" stroke="#212B35" stroke-linecap="round" stroke-linejoin="round"/>
<path fill-rule="evenodd" clip-rule="evenodd" d="M17.1742 6.05527C17.9871 7.32301 18.4516 8.83269 18.4516 10.4488C18.4516 14.9778 14.7742 18.6456 10.2258 18.6456C8.6 18.6456 7.08065 18.1714 5.8129 17.3682C3.50968 15.9166 2 13.3617 2 10.4488C2 5.92946 5.67742 2.26172 10.2355 2.26172C13.1484 2.26172 15.7129 3.78107 17.1742 6.05527V6.05527Z" stroke="#212B35" stroke-linecap="round" stroke-linejoin="round"/>
<path fill-rule="evenodd" clip-rule="evenodd" d="M57.7355 46.5756C59.9806 48.0369 61.4613 50.5627 61.4613 53.4369C61.4613 57.9563 57.7839 61.624 53.2355 61.624C50.3516 61.624 47.8161 60.1531 46.3548 57.9272C45.5032 56.6401 45 55.0918 45 53.4272C45 48.8982 48.6871 45.2305 53.2355 45.2305C54.9 45.2401 56.4387 45.7337 57.7355 46.5756V46.5756Z" stroke="#212B35" stroke-linecap="round" stroke-linejoin="round"/>
<path fill-rule="evenodd" clip-rule="evenodd" d="M53.0402 52.0067C52.439 51.8108 52 51.2435 52 50.5815C52 49.7507 52.6754 49.082 53.5062 49.082C54.1141 49.082 54.641 49.44 54.8774 49.9601C54.9585 50.1492 55.0125 50.3586 55.0125 50.5815C55.0125 51.4123 54.337 52.081 53.5062 52.081C53.3441 52.0878 53.1888 52.0607 53.0402 52.0067V52.0067Z" stroke="#212B35" stroke-linecap="round" stroke-linejoin="round"/>
<path d="M10.2258 61.6318C14.7688 61.6318 18.4516 57.962 18.4516 53.4351C18.4516 48.9081 14.7688 45.2383 10.2258 45.2383C5.68282 45.2383 2 48.9081 2 53.4351C2 57.962 5.68282 61.6318 10.2258 61.6318Z" stroke="#212B35" stroke-linecap="round" stroke-linejoin="round"/>
<path d="M5.90039 57.3741C6.28749 55.8064 7.70039 54.7031 9.31652 54.7031H9.40362H10.5165H10.6423H11.7552H11.8423C13.4294 54.7031 14.8133 55.758 15.2294 57.2676" stroke="#212B35" stroke-linecap="round" stroke-linejoin="round"/>
<path fill-rule="evenodd" clip-rule="evenodd" d="M10.5068 49.082C11.3378 49.082 12.0135 49.7577 12.0135 50.582C12.0135 51.4131 11.3378 52.082 10.5068 52.082C9.67568 52.082 9 51.4131 9 50.582C9 49.7577 9.67568 49.082 10.5068 49.082Z" stroke="#212B35" stroke-linecap="round" stroke-linejoin="round"/>
</svg>
