<svg width="64" height="64" viewBox="0 0 64 64" fill="none" xmlns="http://www.w3.org/2000/svg">
<path d="M9.28571 5H39.2857L60.7143 26.4286V56.4286C60.7143 57.5652 60.2628 58.6553 59.459 59.459C58.6553 60.2628 57.5652 60.7143 56.4286 60.7143H9.28571C8.14907 60.7143 7.05898 60.2628 6.25526 59.459C5.45153 58.6553 5 57.5652 5 56.4286V44.6429V9.28571C5 8.14907 5.45153 7.05898 6.25526 6.25526C7.05898 5.45153 8.14907 5 9.28571 5Z" stroke="#212B35" stroke-linecap="round" stroke-linejoin="round"/>
<path d="M35.9648 42.7503H43.1077V35.6074" stroke="#212B35" stroke-linecap="round" stroke-linejoin="round"/>
<path d="M43.1069 42.75L33.0176 32.6607C32.8507 32.4971 32.6263 32.4055 32.3926 32.4055C32.1589 32.4055 31.9345 32.4971 31.7676 32.6607L27.6604 36.7679C27.4935 36.9315 27.2691 37.0231 27.0354 37.0231C26.8017 37.0231 26.5773 36.9315 26.4104 36.7679L19.8926 30.25" stroke="#212B35" stroke-linecap="round" stroke-linejoin="round"/>
<path d="M39.4277 24.4283V5.14258L60.8563 26.5711H41.5706C41.0023 26.5711 40.4572 26.3454 40.0554 25.9435C39.6535 25.5417 39.4277 24.9966 39.4277 24.4283Z" fill="#212B35" fill-opacity="0.06" stroke="#212B35" stroke-linecap="round" stroke-linejoin="round"/>
</svg>
