<svg xmlns="http://www.w3.org/2000/svg" width="51" height="63" fill="none" stroke="#fff" xmlns:v="https://vecta.io/nano"><path d="M38.227 11.665V2l10.683 11.7h-9.157l-1.526-2.035z" fill="#212b35" fill-opacity=".06"/><path d="M38.3 2.027H3.01a2 2 0 0 0-2 2V60a2 2 0 0 0 2 2h43.978a2 2 0 0 0 2-2V13.615M38.3 2.027l10.688 11.587M38.3 2.027v9.587a2 2 0 0 0 2 2h8.688"/><g stroke-linecap="round"><path d="M8.801 24.062l2.26 2.249 5.123-5.098" stroke-linejoin="round"/><path d="M20.734 25.119H40.02"/><path d="M8.801 36.357l2.26 2.249 5.123-5.098" stroke-linejoin="round"/><path d="M20.734 37.406H40.02"/><path d="M8.801 48.661l2.26 2.249 5.123-5.098" stroke-linejoin="round"/><path d="M20.734 49.715H40.02"/></g></svg>