<svg width="172" height="64" viewBox="0 0 172 64" fill="none" xmlns="http://www.w3.org/2000/svg">
<path d="M50.4124 13.7664C50.372 13.4842 50.1295 13.3229 49.9274 13.3229C49.7253 13.3229 45.7236 13.2423 45.7236 13.2423C45.7236 13.2423 42.3686 10.0171 42.0452 9.65427C41.7219 9.33175 41.0751 9.41238 40.8326 9.49301C40.8326 9.49301 40.1859 9.69458 39.1349 10.0171C38.9732 9.45269 38.6903 8.76734 38.3265 8.04167C37.1543 5.78405 35.3757 4.5746 33.2738 4.5746C33.1121 4.5746 32.9909 4.5746 32.8292 4.61492C32.7484 4.53429 32.7079 4.45366 32.6271 4.41335C31.6974 3.44579 30.5252 2.96201 29.1104 3.00233C26.4022 3.08296 23.694 5.05838 21.4708 8.52545C19.9348 10.9847 18.7626 14.0486 18.3988 16.4271C15.2864 17.3947 13.1036 18.0801 13.0228 18.0801C11.4463 18.5638 11.4059 18.6041 11.2038 20.0958C11.123 21.2246 7 53.033 7 53.033L41.6006 58.9995L56.5969 55.2906C56.5565 55.2906 50.4529 14.0486 50.4124 13.7664ZM37.3968 10.5815C36.5884 10.8234 35.6991 11.1056 34.729 11.4281C34.729 10.0574 34.5269 8.1223 33.9206 6.50971C35.9821 6.83223 36.9926 9.17049 37.3968 10.5815ZM32.91 11.9522C31.0911 12.5166 29.1104 13.1213 27.1298 13.7261C27.6957 11.5894 28.7466 9.49301 30.0401 8.08199C30.5252 7.5579 31.2123 6.99349 31.9803 6.67097C32.7888 8.24325 32.9505 10.4606 32.91 11.9522ZM29.1913 4.81649C29.838 4.81649 30.3635 4.93744 30.8081 5.25996C30.0805 5.62279 29.353 6.1872 28.7062 6.91286C26.9681 8.76734 25.6342 11.6297 25.1087 14.4114C23.4515 14.9355 21.8346 15.4193 20.3794 15.8627C21.3496 11.4684 25.0279 4.93744 29.1913 4.81649Z" fill="#95BF47"/>
<path d="M49.9303 13.3233C49.7282 13.3233 45.7265 13.2427 45.7265 13.2427C45.7265 13.2427 42.3715 10.0175 42.0481 9.6547C41.9269 9.53375 41.7652 9.45312 41.6035 9.45312V59L56.5998 55.291C56.5998 55.291 50.4962 14.049 50.4558 13.7668C50.3749 13.4846 50.1324 13.3233 49.9303 13.3233Z" fill="#5E8E3E"/>
<path d="M33.2746 21.024L31.5365 27.5147C31.5365 27.5147 29.5962 26.6277 27.2922 26.789C23.8968 26.9906 23.8968 29.1273 23.8968 29.6513C24.0989 32.554 31.7386 33.199 32.1832 40.0122C32.5066 45.3741 29.3537 49.0428 24.7457 49.325C19.2484 49.6072 16.2168 46.382 16.2168 46.382L17.389 41.4233C17.389 41.4233 20.461 43.7212 22.8863 43.5599C24.4627 43.4793 25.0691 42.1489 24.9882 41.262C24.7457 37.4724 18.5208 37.7143 18.1166 31.4655C17.7932 26.2246 21.229 20.9434 28.8282 20.4596C31.779 20.258 33.2746 21.024 33.2746 21.024Z" fill="white"/>
<path d="M139.424 5L116 18.511V45.4976L122.687 49.3604L122.639 22.3679L139.376 12.7138L156.114 22.3679V49.3486L162.8 45.4976V18.4874L139.424 5Z" fill="#F26322"/>
<path d="M142.742 49.3518L139.402 51.2921L136.044 49.3695V22.3652L129.363 26.2221L129.375 53.2146L139.396 59L149.429 53.2146V26.2221L142.742 22.3652V49.3518Z" fill="#F26322"/>
<path d="M76 31.5C75.7239 31.5 75.5 31.7239 75.5 32C75.5 32.2761 75.7239 32.5 76 32.5V31.5ZM76 32.5H96V31.5H76V32.5Z" fill="#212B35"/>
<path d="M89 25L96 32L89 39" stroke="#212B35" stroke-linecap="round" stroke-linejoin="round"/>
</svg>
