<svg width="64" height="64" viewBox="0 0 64 64" fill="none" xmlns="http://www.w3.org/2000/svg">
<path d="M50.835 38.6653V4C50.835 2.89543 49.9395 2 48.835 2H35.3772H8.66992C7.56535 2 6.66992 2.89543 6.66992 4V54.998C6.66992 56.1026 7.56535 56.998 8.66992 56.998H35.0022" stroke="#212B35" stroke-linecap="round"/>
<path d="M15.002 14.3535H31.668" stroke="#212B35" stroke-linecap="round"/>
<path d="M15.002 23.1777H42.501" stroke="#212B35" stroke-linecap="round"/>
<path d="M15.002 31.998H42.501" stroke="#212B35" stroke-linecap="round"/>
<circle cx="47.2627" cy="51.4111" r="8.82321" fill="#212B35" fill-opacity="0.06" stroke="#212B35"/>
<path d="M54.3536 57.6464L54 57.2929L53.2929 58L53.6464 58.3536L54.3536 57.6464ZM57.6464 62.3536C57.8417 62.5488 58.1583 62.5488 58.3536 62.3536C58.5488 62.1583 58.5488 61.8417 58.3536 61.6464L57.6464 62.3536ZM53.6464 58.3536L57.6464 62.3536L58.3536 61.6464L54.3536 57.6464L53.6464 58.3536Z" fill="#212B35"/>
</svg>
