<svg width="53" height="62" viewBox="0 0 53 62" fill="none" xmlns="http://www.w3.org/2000/svg">
<path d="M44.835 37.6653V3C44.835 1.89543 43.9395 1 42.835 1H29.3772H2.66992C1.56535 1 0.669922 1.89543 0.669922 3V53.998C0.669922 55.1026 1.56535 55.998 2.66992 55.998H29.0022" stroke="white" stroke-linecap="round"/>
<path d="M9.00195 13.3535H25.668" stroke="white" stroke-linecap="round"/>
<path d="M9.00195 22.1777H36.501" stroke="white" stroke-linecap="round"/>
<path d="M9.00195 30.998H36.501" stroke="white" stroke-linecap="round"/>
<circle cx="41.2627" cy="50.4111" r="8.82321" fill="#212B35" fill-opacity="0.06" stroke="white"/>
<path d="M48.3536 56.6464L48 56.2929L47.2929 57L47.6464 57.3536L48.3536 56.6464ZM51.6464 61.3536C51.8417 61.5488 52.1583 61.5488 52.3536 61.3536C52.5488 61.1583 52.5488 60.8417 52.3536 60.6464L51.6464 61.3536ZM47.6464 57.3536L51.6464 61.3536L52.3536 60.6464L48.3536 56.6464L47.6464 57.3536Z" fill="white"/>
</svg>
