<svg width="60" height="60" viewBox="0 0 60 60" fill="none" xmlns="http://www.w3.org/2000/svg">
<path d="M10.714 57.8566H6.42829C5.29165 57.8566 4.20156 57.4051 3.39783 56.6013C2.59411 55.7976 2.14258 54.7075 2.14258 53.5709V19.2852H57.8569V53.5709C57.8569 54.7075 57.4053 55.7976 56.6016 56.6013C55.7979 57.4051 54.7078 57.8566 53.5711 57.8566H49.2854" stroke="#000001" stroke-linecap="round" stroke-linejoin="round"/>
<path d="M19.2852 47.1426L29.9994 57.8569L40.7137 47.1426" stroke="#000001" stroke-linecap="round" stroke-linejoin="round"/>
<path d="M30 57.8569V32.1426" stroke="#000001" stroke-linecap="round" stroke-linejoin="round"/>
<path d="M3 19L11.4615 4.48224C12.3573 2.94525 14.0023 2 15.7813 2H43.7942C45.5349 2 47.1504 2.90531 48.059 4.39005L57 19H3Z" fill="#212B35" fill-opacity="0.06"/>
<path d="M48.3854 4.28544C48.0189 3.65003 47.4954 3.11933 46.8651 2.74413C46.2348 2.36894 45.5187 2.16181 44.7854 2.14258H15.214C14.4807 2.16181 13.7646 2.36894 13.1343 2.74413C12.504 3.11933 11.9805 3.65003 11.614 4.28544L2.14258 19.2854H57.8569L48.3854 4.28544Z" stroke="#000001" stroke-linecap="round" stroke-linejoin="round"/>
<path d="M30 2.14258V19.2854" stroke="#000001" stroke-linecap="round" stroke-linejoin="round"/>
</svg>
