<svg width="17" height="18" viewBox="0 0 17 18" fill="none" xmlns="http://www.w3.org/2000/svg">
<path fill-rule="evenodd" clip-rule="evenodd" d="M15.3389 5.35305L14.8202 4.45298C14.3814 3.69138 13.409 3.42864 12.6463 3.86564V3.86564C12.2833 4.07949 11.8501 4.14017 11.4423 4.03428C11.0345 3.92839 10.6855 3.66464 10.4724 3.30118C10.3353 3.07016 10.2616 2.80704 10.2588 2.53841V2.53841C10.2712 2.10773 10.1087 1.69038 9.80839 1.38143C9.50807 1.07249 9.09549 0.89826 8.66463 0.898438H7.61962C7.19751 0.898433 6.7928 1.06664 6.49504 1.36583C6.19728 1.66502 6.03102 2.07053 6.03305 2.49264V2.49264C6.02054 3.36415 5.31044 4.06405 4.43885 4.06396C4.17022 4.06117 3.90709 3.98749 3.67607 3.85038V3.85038C2.91343 3.41339 1.94097 3.67612 1.50216 4.43772L0.945329 5.35305C0.507049 6.1137 0.766207 7.08555 1.52504 7.52697V7.52697C2.01829 7.81174 2.32215 8.33803 2.32215 8.90759C2.32215 9.47715 2.01829 10.0034 1.52504 10.2882V10.2882C0.767171 10.7267 0.50773 11.6961 0.945329 12.4545V12.4545L1.47165 13.3622C1.67725 13.7332 2.02221 14.007 2.4302 14.1229C2.83819 14.2389 3.27557 14.1875 3.64556 13.9801V13.9801C4.00927 13.7678 4.4427 13.7097 4.84949 13.8185C5.25628 13.9274 5.60274 14.1942 5.81184 14.5598C5.94896 14.7908 6.02263 15.0539 6.02542 15.3225V15.3225C6.02542 16.203 6.73917 16.9167 7.61962 16.9167H8.66463C9.54211 16.9168 10.2546 16.2076 10.2588 15.3302V15.3302C10.2568 14.9067 10.4241 14.5001 10.7235 14.2006C11.0229 13.9012 11.4296 13.7339 11.853 13.736C12.121 13.7431 12.3831 13.8165 12.6158 13.9495V13.9495C13.3765 14.3878 14.3483 14.1287 14.7897 13.3698V13.3698L15.3389 12.4545C15.5515 12.0896 15.6098 11.655 15.501 11.247C15.3922 10.839 15.1252 10.4912 14.7592 10.2806V10.2806C14.3932 10.07 14.1262 9.72219 14.0174 9.31416C13.9086 8.90613 13.9669 8.47156 14.1795 8.10668C14.3177 7.86532 14.5179 7.66521 14.7592 7.52697V7.52697C15.5135 7.08579 15.772 6.11962 15.3389 5.36068V5.36068V5.35305Z" stroke="#666666" stroke-linecap="round" stroke-linejoin="round"/>
<ellipse cx="8.14589" cy="8.90773" rx="2.1968" ry="2.1968" stroke="#666666" stroke-linecap="round" stroke-linejoin="round"/>
</svg>
