<svg width="25" height="27" viewBox="0 0 25 27" fill="none" xmlns="http://www.w3.org/2000/svg">
<path fill-rule="evenodd" clip-rule="evenodd" d="M23.0083 8.52958L22.2302 7.17946C21.572 6.03706 20.1133 5.64296 18.9694 6.29846V6.29846C18.4248 6.61924 17.775 6.71025 17.1633 6.55142C16.5516 6.39259 16.0282 5.99696 15.7085 5.45178C15.5028 5.10525 15.3923 4.71055 15.3881 4.30761V4.30761C15.4067 3.66159 15.163 3.03556 14.7125 2.57215C14.262 2.10873 13.6431 1.84739 12.9968 1.84766H11.4293C10.7961 1.84765 10.1891 2.09995 9.74244 2.54874C9.2958 2.99753 9.04641 3.6058 9.04945 4.23896V4.23896C9.03068 5.54622 7.96554 6.59607 6.65815 6.59594C6.2552 6.59176 5.86051 6.48124 5.51398 6.27557V6.27557C4.37002 5.62008 2.91133 6.01418 2.25311 7.15658L1.41787 8.52958C0.760452 9.67055 1.14919 11.1283 2.28744 11.7904V11.7904C3.02732 12.2176 3.4831 13.007 3.4831 13.8614C3.4831 14.7157 3.02732 15.5052 2.28744 15.9323V15.9323C1.15063 16.59 0.761473 18.0442 1.41787 19.1818V19.1818L2.20735 20.5433C2.51575 21.0998 3.03319 21.5104 3.64518 21.6844C4.25717 21.8583 4.91324 21.7812 5.46822 21.4701V21.4701C6.01379 21.1517 6.66392 21.0645 7.27411 21.2278C7.8843 21.3911 8.40398 21.7914 8.71764 22.3396C8.92331 22.6862 9.03382 23.0809 9.03801 23.4838V23.4838C9.03801 24.8045 10.1086 25.8751 11.4293 25.8751H12.9968C14.313 25.8751 15.3818 24.8115 15.3881 23.4953V23.4953C15.3851 22.8601 15.636 22.2501 16.0851 21.801C16.5343 21.3518 17.1443 21.1009 17.7794 21.104C18.1814 21.1147 18.5745 21.2248 18.9236 21.4243V21.4243C20.0646 22.0817 21.5223 21.693 22.1845 20.5548V20.5548L23.0083 19.1818C23.3271 18.6344 23.4147 17.9826 23.2514 17.3705C23.0882 16.7585 22.6878 16.2368 22.1387 15.9209V15.9209C21.5896 15.605 21.1892 15.0833 21.026 14.4712C20.8627 13.8592 20.9503 13.2073 21.2691 12.66C21.4765 12.298 21.7767 11.9978 22.1387 11.7904V11.7904C23.2701 11.1287 23.6579 9.67943 23.0083 8.54102V8.54102V8.52958Z" stroke="#E7B900" stroke-width="1.71" stroke-linecap="round" stroke-linejoin="round"/>
<circle cx="12.2188" cy="13.8616" r="3.2952" stroke="#E7B900" stroke-width="1.71" stroke-linecap="round" stroke-linejoin="round"/>
</svg>
