<svg width="60" height="60" viewBox="0 0 60 60" fill="none" xmlns="http://www.w3.org/2000/svg">
<path d="M21.428 21.4283C26.7536 21.4283 31.0709 17.111 31.0709 11.7854C31.0709 6.45983 26.7536 2.14258 21.428 2.14258C16.1024 2.14258 11.7852 6.45983 11.7852 11.7854C11.7852 17.111 16.1024 21.4283 21.428 21.4283Z" stroke="white" stroke-linecap="round" stroke-linejoin="round"/>
<path d="M25.7141 28.3291C22.8881 27.6767 19.9511 27.6715 17.1228 28.314C14.2945 28.9565 11.648 30.23 9.3812 32.0393C7.11438 33.8486 5.28589 36.147 4.03243 38.7625C2.77896 41.378 2.13295 44.2431 2.14269 47.1434V53.572H25.7141" stroke="white" stroke-linecap="round" stroke-linejoin="round"/>
<path d="M45.7288 57.7288C45.258 57.899 44.7424 57.899 44.2716 57.7288C40.6974 56.3129 37.6306 53.8566 35.4682 50.6779C33.3058 47.4993 32.1474 43.7447 32.1431 39.9002V34.2859C32.1241 33.9996 32.1666 33.7126 32.2676 33.444C32.3686 33.1754 32.5258 32.9315 32.7286 32.7286C32.9315 32.5258 33.1754 32.3686 33.444 32.2676C33.7126 32.1666 33.9996 32.1241 34.2859 32.1431H55.7145C56.0008 32.1241 56.2878 32.1666 56.5564 32.2676C56.825 32.3686 57.0689 32.5258 57.2718 32.7286C57.4747 32.9315 57.6319 33.1754 57.7329 33.444C57.8338 33.7126 57.8763 33.9996 57.8574 34.2859V39.9002C57.853 43.7447 56.6946 47.4993 54.5322 50.6779C52.3698 53.8566 49.303 56.3129 45.7288 57.7288Z" fill="white" fill-opacity="0.06" stroke="white" stroke-linecap="round" stroke-linejoin="round"/>
</svg>
