<svg width="64" height="64" viewBox="0 0 64 64" fill="none" xmlns="http://www.w3.org/2000/svg">
<path opacity="0.06" fill-rule="evenodd" clip-rule="evenodd" d="M2 2H62V11.7056H32H2V2ZM6.8528 56.1766H57.1472V62H6.8528V56.1766Z" fill="#212B35"/>
<path d="M57.1472 62H6.8528M2 2H62V56.1766H2V2Z" stroke="#212B35"/>
<path opacity="0.06" d="M43.0007 24.5C44.6007 36.9 36.6674 43 32.5007 44.5C21.7007 40.5 21.0007 29.5 22.0007 24.5L32.5007 20L43.0007 24.5Z" fill="#212B35"/>
<path d="M21.72 24.7002C20.9312 29.5954 21.9567 40.4432 32.369 44.6727" stroke="#212B35" stroke-linecap="round"/>
<path d="M43.0202 24.7002C43.809 29.5954 42.7835 40.4432 32.3712 44.6727" stroke="#212B35" stroke-linecap="round"/>
<path d="M21.7168 24.6994L31.5583 20.3563C32.0727 20.1293 32.6589 20.1293 33.1732 20.3563L43.0148 24.6994" stroke="#212B35" stroke-linecap="round"/>
<path d="M28.6133 32.8294L30.8348 35.0498L37.0467 28.8818" stroke="#212B35" stroke-linecap="round" stroke-linejoin="round"/>
<path d="M7 8C7.55228 8 8 7.55228 8 7C8 6.44772 7.55228 6 7 6C6.44772 6 6 6.44772 6 7C6 7.55228 6.44772 8 7 8Z" fill="#212B35"/>
<path d="M13 8C13.5523 8 14 7.55228 14 7C14 6.44772 13.5523 6 13 6C12.4477 6 12 6.44772 12 7C12 7.55228 12.4477 8 13 8Z" fill="#212B35"/>
<path d="M10 8C10.5523 8 11 7.55228 11 7C11 6.44772 10.5523 6 10 6C9.44772 6 9 6.44772 9 7C9 7.55228 9.44772 8 10 8Z" fill="#212B35"/>
</svg>
