<svg width="64" height="64" viewBox="0 0 64 64" fill="none" xmlns="http://www.w3.org/2000/svg">
<path opacity="0.06" d="M32.4698 33.62C39.1691 33.62 44.5998 28.2116 44.5998 21.54C44.5998 14.8684 39.1691 9.45996 32.4698 9.45996C25.7706 9.45996 20.3398 14.8684 20.3398 21.54C20.3398 28.2116 25.7706 33.62 32.4698 33.62Z" fill="#212B35"/>
<path d="M31.75 25.6899V20.0585M34.75 25.6899V16.6899M28.75 25.6899V22.8742" stroke="#212B35" stroke-linecap="round"/>
<path d="M63.5003 45.6001L52.1703 56.9301L46.5103 51.2601" stroke="#212B35" stroke-linecap="round" stroke-linejoin="round"/>
<path d="M32.4699 33.62C39.147 33.62 44.5599 28.2116 44.5599 21.54C44.5599 14.8684 39.147 9.45996 32.4699 9.45996C25.7928 9.45996 20.3799 14.8684 20.3799 21.54C20.3799 28.2116 25.7928 33.62 32.4699 33.62Z" stroke="#212B35" stroke-linecap="round" stroke-linejoin="round"/>
<path d="M52.5401 62.35H12.5601V1H52.5401V44.88" stroke="#212B35" stroke-linecap="round" stroke-linejoin="round"/>
<path opacity="0.06" fill-rule="evenodd" clip-rule="evenodd" d="M2 5.67993H12.56V57.6999H2V5.67993Z" fill="#212B35"/>
<path d="M8.12 57.6999H2V5.67993H8.12" stroke="#212B35" stroke-linecap="round" stroke-linejoin="round"/>
<path d="M20.54 38.0598H44.72" stroke="#212B35" stroke-linecap="round" stroke-linejoin="round"/>
<path d="M20.54 46.8599H44.72" stroke="#212B35" stroke-linecap="round" stroke-linejoin="round"/>
<path d="M20.54 42.46H44.72" stroke="#212B35" stroke-linecap="round" stroke-linejoin="round"/>
<path d="M20.54 51.26H32.63" stroke="#212B35" stroke-linecap="round" stroke-linejoin="round"/>
</svg>
