<svg width="61" height="60" viewBox="0 0 61 60" fill="none" xmlns="http://www.w3.org/2000/svg">
<path opacity="0.06" d="M30.4402 31.5191C36.7207 31.5191 41.8121 26.4488 41.8121 20.1941C41.8121 13.9395 36.7207 8.86914 30.4402 8.86914C24.1597 8.86914 19.0684 13.9395 19.0684 20.1941C19.0684 26.4488 24.1597 31.5191 30.4402 31.5191Z" fill="white"/>
<path d="M29.7656 24.082V18.8026M32.5781 24.082V15.6445M26.9531 24.082V21.4423" stroke="white" stroke-linecap="round"/>
<path d="M59.5277 42.75L48.9059 53.3719L43.5996 48.0562" stroke="white" stroke-linecap="round" stroke-linejoin="round"/>
<path d="M30.4379 31.5191C36.6977 31.5191 41.7723 26.4488 41.7723 20.1941C41.7723 13.9395 36.6977 8.86914 30.4379 8.86914C24.1781 8.86914 19.1035 13.9395 19.1035 20.1941C19.1035 26.4488 24.1781 31.5191 30.4379 31.5191Z" stroke="white" stroke-linecap="round" stroke-linejoin="round"/>
<path d="M49.2547 58.4531H11.7734V0.9375H49.2547V42.075" stroke="white" stroke-linecap="round" stroke-linejoin="round"/>
<path opacity="0.06" fill-rule="evenodd" clip-rule="evenodd" d="M1.875 5.32617H11.775V54.0949H1.875V5.32617Z" fill="white"/>
<path d="M7.6125 54.091H1.875V5.32227H7.6125" stroke="white" stroke-linecap="round" stroke-linejoin="round"/>
<path d="M19.2559 35.6797H41.9246" stroke="white" stroke-linecap="round" stroke-linejoin="round"/>
<path d="M19.2559 43.9297H41.9246" stroke="white" stroke-linecap="round" stroke-linejoin="round"/>
<path d="M19.2559 39.8027H41.9246" stroke="white" stroke-linecap="round" stroke-linejoin="round"/>
<path d="M19.2559 48.0527H30.5902" stroke="white" stroke-linecap="round" stroke-linejoin="round"/>
</svg>
