<svg width="64" height="64" viewBox="0 0 64 64" fill="none" xmlns="http://www.w3.org/2000/svg">
<path opacity="0.1" d="M31.9512 13.709C21.8063 13.709 13.5938 21.9348 13.5938 31.9993C13.5938 42.0638 21.8063 50.2896 31.9512 50.2896C42.0962 50.2896 50.3087 42.0638 50.3087 31.9993C50.3087 21.9348 42.0962 13.709 31.9512 13.709ZM31.9512 46.3219C24.0285 46.3219 17.6517 39.9348 17.6517 32.0961C17.6517 24.2574 24.0285 17.8703 31.9512 17.8703C39.8739 17.8703 46.2508 24.2574 46.2508 32.0961C46.2508 39.9348 39.8739 46.3219 31.9512 46.3219Z" fill="#212B35"/>
<path d="M42.0966 55.0323C39.0048 56.3871 35.5266 57.1613 31.9517 57.1613C18.0386 57.1613 6.83092 45.9355 6.83092 32C6.83092 28.3226 7.60387 24.9355 8.95652 21.7419M21.7101 9.16129C24.8019 7.70968 28.2802 6.93548 31.9517 6.93548C45.8647 6.93548 57.0725 18.1613 57.0725 32.0968C57.0725 35.6774 56.2995 39.0645 54.9469 42.1613M53.5942 44.871C58.2319 44.9677 62 48.7419 62 53.3871C62 58.129 58.1353 62 53.401 62C48.7633 62 44.8986 58.3226 44.8019 53.6774V53.4839C44.8019 48.7419 48.6667 44.9677 53.401 44.9677C53.401 44.871 53.4976 44.871 53.5942 44.871V44.871ZM10.599 18.8387H10.4058C5.76812 18.8387 2 15.0645 2 10.4194C2 5.77419 5.76812 2 10.4058 2C15.0435 2 18.8116 5.77419 18.8116 10.4194V10.6129C18.8116 15.1613 15.1401 18.8387 10.599 18.8387V18.8387Z" stroke="#212B35" stroke-linecap="round" stroke-linejoin="round"/>
<path d="M6.44434 14.9685C6.73419 13.6137 7.99023 12.7427 9.34289 12.7427H11.5651C12.7245 12.7427 13.7873 13.4201 14.2704 14.3879C14.367 14.5814 14.4637 14.7749 14.4637 14.9685M49.3429 57.3556C49.7294 56.0008 50.8888 55.1298 52.2414 55.1298H54.4637C55.6231 55.1298 56.6859 55.8072 57.169 56.775C57.2656 56.9685 57.3622 57.1621 57.3622 57.3556M10.4057 7.22656C11.5651 7.22656 12.5313 8.1943 12.5313 9.3556C12.5313 10.5169 11.5651 11.4846 10.4057 11.4846C9.24627 11.4846 8.28008 10.5169 8.28008 9.3556C8.28008 8.1943 9.24627 7.22656 10.4057 7.22656V7.22656ZM53.3042 49.6137C54.4637 49.6137 55.4298 50.5814 55.4298 51.7427C55.4298 52.904 54.4637 53.8717 53.3042 53.8717C52.1448 53.8717 51.1786 52.904 51.1786 51.7427C51.1786 50.5814 52.1448 49.6137 53.3042 49.6137Z" stroke="#212B35" stroke-linecap="round" stroke-linejoin="round"/>
<path opacity="0.1" d="M32.0479 42.6456C37.9176 42.6456 42.676 37.9229 42.676 32.0972C42.676 26.2715 37.9176 21.5488 32.0479 21.5488C26.1782 21.5488 21.4199 26.2715 21.4199 32.0972C21.4199 37.9229 26.1782 42.6456 32.0479 42.6456Z" fill="#212B35"/>
<path fill-rule="evenodd" clip-rule="evenodd" d="M32.2421 21.4522C37.9426 21.549 42.5803 26.291 42.5803 32.0006C42.5803 37.9039 37.846 42.549 31.9522 42.549C26.1551 42.549 21.5175 38.0006 21.3242 32.1942V31.9039C21.3242 26.0974 26.0585 21.3555 31.9522 21.3555C32.0489 21.4522 32.1455 21.4522 32.2421 21.4522Z" stroke="#212B35" stroke-linecap="round" stroke-linejoin="round"/>
<path d="M35.5268 29.6777L30.7925 34.4197L28.4736 32.0003" stroke="#212B35" stroke-linecap="round" stroke-linejoin="round"/>
</svg>
