<svg width="64" height="64" viewBox="0 0 64 64" fill="none" xmlns="http://www.w3.org/2000/svg">
<circle cx="32.0291" cy="47.3279" r="14.9861" stroke="#212B35"/>
<path d="M44.2769 37.832H43.7769V38.832H44.2769V37.832ZM44.4944 56L43.9944 56.0056L44.0056 57.0056L44.5056 57L44.4944 56ZM60.5199 55.746L60.9082 55.4311L60.5199 55.746ZM60.2486 56.3236L60.2542 56.8235L60.2486 56.3236ZM53.8694 47.1005L53.4811 46.7855L53.8694 47.1005ZM53.8694 47.5469L53.4811 47.8619L53.8694 47.5469ZM60.5132 38.9096L60.1249 38.5946L60.5132 38.9096ZM44.2769 38.832H60.238V37.832H44.2769V38.832ZM60.1249 38.5946L53.4811 46.7855L54.2578 47.4155L60.9015 39.2245L60.1249 38.5946ZM53.4811 47.8619L60.1315 56.061L60.9082 55.4311L54.2578 47.2319L53.4811 47.8619ZM60.243 55.8236L44.4944 56L44.5056 57L60.2542 56.8235L60.243 55.8236ZM60.1315 56.061C60.0548 55.9664 60.1212 55.8249 60.243 55.8236L60.2542 56.8235C60.9688 56.8155 61.3583 55.986 60.9082 55.4311L60.1315 56.061ZM53.4811 46.7855C53.2267 47.0992 53.2267 47.5482 53.4811 47.8619L54.2578 47.2319C54.3011 47.2854 54.3011 47.362 54.2578 47.4155L53.4811 46.7855ZM60.238 38.832C60.1154 38.832 60.0476 38.6898 60.1249 38.5946L60.9015 39.2245C61.3545 38.6661 60.957 37.832 60.238 37.832V38.832Z" fill="#212B35"/>
<path d="M19.5 38.332H3.78803C3.48981 38.332 3.32498 38.678 3.51284 38.9096L10.1566 47.1005C10.2621 47.2306 10.2621 47.4168 10.1566 47.5469L3.51284 55.7378C3.32498 55.9694 3.48981 56.3153 3.78803 56.3153H19.5" stroke="#212B35" stroke-linecap="square"/>
<path d="M16.5536 37.39L16.4509 37.8793L17.4295 38.0848L17.5323 37.5955L16.5536 37.39ZM46.5258 37.5955L46.6286 38.0848L47.6072 37.8793L47.5045 37.39L46.5258 37.5955ZM44.7903 27.7622L44.4464 28.1252L44.7903 27.7622ZM45.0812 28.2826L45.5705 28.1799L45.0812 28.2826ZM37.337 22.1103L37.7078 22.4458L37.337 22.1103ZM38.7663 22.0553L39.1102 21.6923L38.7663 22.0553ZM31.2875 27.1574L30.9168 27.4929L31.2875 27.1574ZM32.7706 27.1574L33.1414 27.4929L32.7706 27.1574ZM25.2918 22.0553L24.948 21.6923L25.2918 22.0553ZM19.2678 27.7622L18.924 27.3992L19.2678 27.7622ZM17.5323 37.5955L19.4663 28.3854L18.4876 28.1799L16.5536 37.39L17.5323 37.5955ZM19.6117 28.1252L25.6357 22.4182L24.948 21.6923L18.924 27.3992L19.6117 28.1252ZM26.3503 22.4458L30.9168 27.4929L31.6583 26.8219L27.0919 21.7748L26.3503 22.4458ZM33.1414 27.4929L37.7078 22.4458L36.9662 21.7748L32.3998 26.8219L33.1414 27.4929ZM38.4224 22.4182L44.4464 28.1252L45.1341 27.3992L39.1102 21.6923L38.4224 22.4182ZM44.5919 28.3854L46.5258 37.5955L47.5045 37.39L45.5705 28.1799L44.5919 28.3854ZM44.4464 28.1252C44.5202 28.1951 44.571 28.2859 44.5919 28.3854L45.5705 28.1799C45.5078 27.8814 45.3556 27.609 45.1341 27.3992L44.4464 28.1252ZM37.7078 22.4458C37.8961 22.2377 38.2187 22.2252 38.4224 22.4182L39.1102 21.6923C38.499 21.1133 37.5311 21.1506 36.9662 21.7748L37.7078 22.4458ZM30.9168 27.4929C31.5122 28.151 32.5459 28.151 33.1414 27.4929L32.3998 26.8219C32.2013 27.0413 31.8568 27.0413 31.6583 26.8219L30.9168 27.4929ZM25.6357 22.4182C25.8394 22.2252 26.1621 22.2377 26.3503 22.4458L27.0919 21.7748C26.527 21.1506 25.5591 21.1133 24.948 21.6923L25.6357 22.4182ZM19.4663 28.3854C19.4872 28.2859 19.5379 28.1951 19.6117 28.1252L18.924 27.3992C18.7025 27.609 18.5503 27.8814 18.4876 28.1799L19.4663 28.3854Z" fill="#212B35"/>
<path d="M39.0036 10.3607C39.0036 14.2231 35.8725 19.3523 32.0101 19.3523C28.1477 19.3523 25.0166 14.2231 25.0166 10.3607C25.0166 6.49829 28.1477 3.36719 32.0101 3.36719C35.8725 3.36719 39.0036 6.49829 39.0036 10.3607Z" stroke="#212B35"/>
<path d="M31.5133 39.8752C31.6735 39.4143 32.3254 39.4143 32.4856 39.8752L34.1238 44.5881C34.1945 44.7914 34.3843 44.9293 34.5995 44.9337L39.5879 45.0353C40.0758 45.0453 40.2773 45.6653 39.8884 45.9601L35.9124 48.9744C35.7409 49.1045 35.6684 49.3276 35.7307 49.5336L37.1756 54.3093C37.3169 54.7764 36.7895 55.1596 36.3889 54.8809L32.2935 52.031C32.1168 51.908 31.8822 51.908 31.7055 52.031L27.61 54.8809C27.2095 55.1596 26.6821 54.7764 26.8234 54.3093L28.2682 49.5336C28.3305 49.3276 28.2581 49.1045 28.0865 48.9744L24.1105 45.9601C23.7217 45.6653 23.9231 45.0453 24.411 45.0353L29.3994 44.9337C29.6147 44.9293 29.8044 44.7914 29.8751 44.5881L31.5133 39.8752Z" fill="#212B35" fill-opacity="0.06" stroke="#212B35"/>
</svg>
