<svg width="64" height="64" viewBox="0 0 64 64" fill="none" xmlns="http://www.w3.org/2000/svg">
<path opacity="0.06" fill-rule="evenodd" clip-rule="evenodd" d="M2 2H62V11.7056H32H2V2ZM6.8528 56.1766H57.1472V62H6.8528V56.1766Z" fill="#212B35"/>
<path d="M57.1472 62H6.8528M2 2H62V56.1766H2V2Z" stroke="#212B35"/>
<path d="M56.7017 55.9998C57.5442 53.4505 58 50.7264 58 47.8963C58 41.2842 55.5121 35.2509 51.4177 30.6745C46.6558 25.3518 39.7209 21.9998 32 21.9998C23.9154 21.9998 16.6927 25.675 11.9241 31.4395C8.22284 35.9136 6 41.6464 6 47.8963C6 50.7264 6.45581 53.4505 7.2983 55.9998" stroke="#212B35" stroke-linecap="round" stroke-linejoin="round"/>
<path d="M32 24.6997C32 24.9758 32.2239 25.1997 32.5 25.1997C32.7761 25.1997 33 24.9758 33 24.6997L32 24.6997ZM33 21.9997C33 21.7236 32.7761 21.4997 32.5 21.4997C32.2239 21.4997 32 21.7236 32 21.9997L33 21.9997ZM33 24.6997L33 21.9997L32 21.9997L32 24.6997L33 24.6997Z" fill="#212B35"/>
<path d="M9.91895 41.4579C10.1581 41.596 10.4639 41.514 10.602 41.2749C10.74 41.0358 10.6581 40.73 10.4189 40.5919L9.91895 41.4579ZM8.08068 39.2419C7.84153 39.1038 7.53574 39.1858 7.39766 39.4249C7.25959 39.664 7.34153 39.9698 7.58068 40.1079L8.08068 39.2419ZM10.4189 40.5919L8.08068 39.2419L7.58068 40.1079L9.91895 41.4579L10.4189 40.5919Z" fill="#212B35"/>
<path d="M54.25 41.4579C54.0109 41.596 53.7051 41.514 53.567 41.2749C53.4289 41.0358 53.5109 40.73 53.75 40.5919L54.25 41.4579ZM56.0883 39.2419C56.3274 39.1038 56.6332 39.1858 56.7713 39.4249C56.9094 39.664 56.8274 39.9698 56.5883 40.1079L56.0883 39.2419ZM53.75 40.5919L56.0883 39.2419L56.5883 40.1079L54.25 41.4579L53.75 40.5919Z" fill="#212B35"/>
<path d="M45.6786 29.617C45.4671 29.7945 45.4395 30.1099 45.617 30.3214C45.7945 30.5329 46.1099 30.5605 46.3214 30.383L45.6786 29.617ZM48.3897 28.6475C48.6013 28.47 48.6288 28.1546 48.4513 27.9431C48.2738 27.7315 47.9585 27.704 47.7469 27.8815L48.3897 28.6475ZM46.3214 30.383L48.3897 28.6475L47.7469 27.8815L45.6786 29.617L46.3214 30.383Z" fill="#212B35"/>
<path d="M18.3898 29.3526C18.6013 29.5301 18.6289 29.8455 18.4514 30.057C18.2739 30.2685 17.9585 30.2961 17.747 30.1186L18.3898 29.3526ZM15.6786 28.3831C15.4671 28.2056 15.4395 27.8902 15.617 27.6787C15.7945 27.4671 16.1099 27.4395 16.3214 27.617L15.6786 28.3831ZM17.747 30.1186L15.6786 28.3831L16.3214 27.617L18.3898 29.3526L17.747 30.1186Z" fill="#212B35"/>
<path d="M32.603 47.7877C32.1429 48.4499 31.2369 48.6119 30.5793 48.1497C29.9217 47.6875 29.7616 46.776 30.2217 46.1139C30.6818 45.4517 38.0769 37.3594 38.0769 37.3594C38.0769 37.3594 33.0631 47.1256 32.603 47.7877Z" stroke="#212B35" stroke-linecap="round" stroke-linejoin="round"/>
<path d="M7 8C7.55228 8 8 7.55228 8 7C8 6.44772 7.55228 6 7 6C6.44772 6 6 6.44772 6 7C6 7.55228 6.44772 8 7 8Z" fill="#212B35"/>
<path d="M13 8C13.5523 8 14 7.55228 14 7C14 6.44772 13.5523 6 13 6C12.4477 6 12 6.44772 12 7C12 7.55228 12.4477 8 13 8Z" fill="#212B35"/>
<path d="M10 8C10.5523 8 11 7.55228 11 7C11 6.44772 10.5523 6 10 6C9.44772 6 9 6.44772 9 7C9 7.55228 9.44772 8 10 8Z" fill="#212B35"/>
</svg>
