<svg width="60" height="60" viewBox="0 0 60 60" fill="none" xmlns="http://www.w3.org/2000/svg">
<path opacity="0.06" fill-rule="evenodd" clip-rule="evenodd" d="M1 1H59V10.3821H1V1ZM5.69104 53.3708H54.309V59H5.69104V53.3708Z" fill="#212B35"/>
<path d="M54.309 59H5.69104M1 1H59V53.3708H1V1Z" stroke="#212B35"/>
<path d="M29.5138 22.3987C29.6741 21.9377 30.3259 21.9377 30.4862 22.3987L32.4687 28.102C32.5393 28.3054 32.7291 28.4432 32.9443 28.4476L38.9812 28.5706C39.4691 28.5806 39.6705 29.2006 39.2817 29.4954L34.4701 33.1433C34.2985 33.2734 34.226 33.4964 34.2884 33.7025L36.0368 39.4819C36.1782 39.949 35.6508 40.3322 35.2502 40.0534L30.294 36.6046C30.1173 36.4816 29.8827 36.4816 29.706 36.6046L24.7498 40.0534C24.3492 40.3322 23.8218 39.949 23.9631 39.4819L25.7116 33.7025C25.774 33.4964 25.7015 33.2734 25.5299 33.1433L20.7183 29.4954C20.3295 29.2006 20.5309 28.5806 21.0188 28.5706L27.0557 28.4476C27.2709 28.4432 27.4607 28.3054 27.5313 28.102L29.5138 22.3987Z" fill="#212B35" fill-opacity="0.06" stroke="#212B35"/>
<path d="M6.32102 6.62837C6.83918 6.62837 7.25923 6.20832 7.25923 5.69016C7.25923 5.172 6.83918 4.75195 6.32102 4.75195C5.80286 4.75195 5.38281 5.172 5.38281 5.69016C5.38281 6.20832 5.80286 6.62837 6.32102 6.62837Z" fill="#212B35"/>
<path d="M11.948 6.62837C12.4661 6.62837 12.8862 6.20832 12.8862 5.69016C12.8862 5.172 12.4661 4.75195 11.948 4.75195C11.4298 4.75195 11.0098 5.172 11.0098 5.69016C11.0098 6.20832 11.4298 6.62837 11.948 6.62837Z" fill="#212B35"/>
<path d="M9.13547 6.62837C9.65363 6.62837 10.0737 6.20832 10.0737 5.69016C10.0737 5.172 9.65363 4.75195 9.13547 4.75195C8.61732 4.75195 8.19727 5.172 8.19727 5.69016C8.19727 6.20832 8.61732 6.62837 9.13547 6.62837Z" fill="#212B35"/>
</svg>
