<svg width="32" height="32" viewBox="0 0 32 32" fill="none" xmlns="http://www.w3.org/2000/svg">
<path d="M3.37158 19.4614V29.8461C3.37158 30.1522 3.49287 30.4457 3.70876 30.662C3.92465 30.8784 4.21746 31 4.52277 31H27.5466C27.8519 31 28.1447 30.8784 28.3606 30.662C28.5765 30.4457 28.6977 30.1522 28.6977 29.8461V19.4614" stroke="#A1A1A1" stroke-width="1.71429" stroke-linecap="round" stroke-linejoin="round"/>
<path d="M18.3369 19.4614V31" stroke="#A1A1A1" stroke-width="1.71429" stroke-linecap="round" stroke-linejoin="round"/>
<path d="M3.37158 22.9236H18.337" stroke="#A1A1A1" stroke-width="1.71429" stroke-linecap="round" stroke-linejoin="round"/>
<path d="M1.06934 9.077L4.5229 1H27.5467L31.0003 9.077H1.06934Z" stroke="#A1A1A1" stroke-width="1.71429" stroke-linecap="round" stroke-linejoin="round"/>
<path d="M10.8542 9.07703V11.3847C10.8542 12.6088 10.369 13.7828 9.50548 14.6483C8.64192 15.5139 7.47068 16.0002 6.24942 16.0002H5.60476C4.3835 16.0002 3.21226 15.5139 2.3487 14.6483C1.48514 13.7828 1 12.6088 1 11.3847V9.07703" stroke="#A1A1A1" stroke-width="1.71429" stroke-linecap="round" stroke-linejoin="round"/>
<path d="M21.2147 9.07703V11.3847C21.2147 12.6088 20.7296 13.7828 19.866 14.6483C19.0024 15.5139 17.8312 16.0002 16.61 16.0002H15.4588C14.2375 16.0002 13.0663 15.5139 12.2027 14.6483C11.3391 13.7828 10.854 12.6088 10.854 11.3847V9.07703" stroke="#A1A1A1" stroke-width="1.71429" stroke-linecap="round" stroke-linejoin="round"/>
<path d="M31 9.07703V11.3847C31 12.6088 30.5148 13.7828 29.6512 14.6483C28.7877 15.5139 27.6165 16.0002 26.3952 16.0002H25.8196C24.5983 16.0002 23.4271 15.5139 22.5635 14.6483C21.7 13.7828 21.2148 12.6088 21.2148 11.3847V9.07703" stroke="#A1A1A1" stroke-width="1.71429" stroke-linecap="round" stroke-linejoin="round"/>
</svg>
