<svg width="30" height="30" viewBox="0 0 30 30" fill="none" xmlns="http://www.w3.org/2000/svg">
<path d="M3.20715 18.1426V27.7854C3.20715 28.0696 3.32004 28.3421 3.52097 28.5431C3.7219 28.744 3.99442 28.8569 4.27858 28.8569H25.7072C25.9913 28.8569 26.2638 28.744 26.4648 28.5431C26.6657 28.3421 26.7786 28.0696 26.7786 27.7854V18.1426" stroke="#E7B900" stroke-width="1.71429" stroke-linecap="round" stroke-linejoin="round"/>
<path d="M17.1357 18.1426V28.8569" stroke="#E7B900" stroke-width="1.71429" stroke-linecap="round" stroke-linejoin="round"/>
<path d="M3.20715 21.3574H17.1357" stroke="#E7B900" stroke-width="1.71429" stroke-linecap="round" stroke-linejoin="round"/>
<path d="M1.06433 8.5L4.27862 1H25.7072L28.9215 8.5H1.06433Z" stroke="#E7B900" stroke-width="1.71429" stroke-linecap="round" stroke-linejoin="round"/>
<path d="M10.1714 8.5V10.6429C10.1714 11.7795 9.7199 12.8696 8.91617 13.6733C8.11244 14.477 7.02236 14.9286 5.88571 14.9286H5.28571C4.14907 14.9286 3.05898 14.477 2.25526 13.6733C1.45153 12.8696 1 11.7795 1 10.6429V8.5" stroke="#E7B900" stroke-width="1.71429" stroke-linecap="round" stroke-linejoin="round"/>
<path d="M19.8142 8.5V10.6429C19.8142 11.7795 19.3627 12.8696 18.559 13.6733C17.7553 14.477 16.6652 14.9286 15.5285 14.9286H14.4571C13.3205 14.9286 12.2304 14.477 11.4266 13.6733C10.6229 12.8696 10.1714 11.7795 10.1714 10.6429V8.5" stroke="#E7B900" stroke-width="1.71429" stroke-linecap="round" stroke-linejoin="round"/>
<path d="M28.9215 8.5V10.6429C28.9215 11.7795 28.4699 12.8696 27.6662 13.6733C26.8625 14.477 25.7724 14.9286 24.6358 14.9286H24.1C22.9634 14.9286 21.8733 14.477 21.0696 13.6733C20.2659 12.8696 19.8143 11.7795 19.8143 10.6429V8.5" stroke="#E7B900" stroke-width="1.71429" stroke-linecap="round" stroke-linejoin="round"/>
</svg>
