<svg width="64" height="64" viewBox="0 0 64 64" fill="none" xmlns="http://www.w3.org/2000/svg">
<path d="M56.666 27.0652C56.666 13.4421 45.6223 2.39844 31.9992 2.39844C18.3762 2.39844 7.33252 13.4421 7.33252 27.0652" stroke="#212B35" stroke-linecap="round"/>
<path d="M2.39795 34.9578C2.39795 30.5984 5.93192 27.0645 10.2913 27.0645V27.0645C11.3811 27.0645 12.2646 27.9479 12.2646 29.0378V44.0023C12.2646 45.0921 11.3811 45.9756 10.2913 45.9756V45.9756C5.93192 45.9756 2.39795 42.4416 2.39795 38.0823V34.9578Z" fill="#212B35" fill-opacity="0.06" stroke="#212B35" stroke-linecap="round"/>
<path d="M61.5986 34.9578C61.5986 30.5984 58.0647 27.0645 53.7053 27.0645V27.0645C52.6154 27.0645 51.7319 27.9479 51.7319 29.0378V44.0023C51.7319 45.0921 52.6154 45.9756 53.7053 45.9756V45.9756C58.0647 45.9756 61.5986 42.4416 61.5986 38.0823V34.9578Z" fill="#212B35" fill-opacity="0.06" stroke="#212B35" stroke-linecap="round"/>
<path d="M56.6653 46.0254V48.1987C56.6653 53.81 52.1165 58.3587 46.5053 58.3587H41.8652" stroke="#212B35" stroke-linecap="round"/>
<rect x="30.3555" y="55.0195" width="11.5111" height="6.57779" rx="3.2889" fill="#212B35" fill-opacity="0.06" stroke="#212B35" stroke-linecap="round"/>
</svg>
