<svg xmlns="http://www.w3.org/2000/svg" width="64" height="64" fill="none" xmlns:v="https://vecta.io/nano"><g stroke="#fff"><g stroke-linecap="round"><path d="M50.835 38.665V4a2 2 0 0 0-2-2H35.377 8.67a2 2 0 0 0-2 2v50.998a2 2 0 0 0 2 2h26.332"/><path d="M15.002 14.354h16.666m-16.666 8.824h27.499m-27.499 8.82h27.499"/></g><circle cx="47.263" cy="51.411" r="8.823" fill="#212b35" fill-opacity=".06"/></g><path d="M54.354 57.646L54 57.293l-.707.707.353.354.707-.707zm3.293 4.707a.5.5 0 1 0 .707-.707l-.707.707zm-4-4l4 4 .707-.707-4-4-.707.707z" fill="#fff"/></svg>