<svg width="64" height="63" viewBox="0 0 64 63" fill="none" xmlns="http://www.w3.org/2000/svg">
<path opacity="0.06" fill-rule="evenodd" clip-rule="evenodd" d="M37.91 30.4102H51.91V14.4102H11.91V44.4102H37.91V30.4102ZM6 55.8202H57.82V61.8202H6V55.8202Z" fill="#212B35"/>
<path d="M11.91 44.41H32.91M1 4H62.82V55.82H1V4ZM57.82 61.82H6H57.82ZM31.21 0V7V0ZM11.21 0V7V0ZM51.21 0V7V0ZM11.91 14.41H51.91H11.91ZM11.91 24.41H51.91H11.91ZM11.91 34.41H32.91H11.91Z" stroke="#212B35"/>
<path fill-rule="evenodd" clip-rule="evenodd" d="M37.9102 30.4102H55.9102V48.4102H37.9102V30.4102Z" stroke="#212B35"/>
<path d="M51.1402 36.46L45.5002 42.35L42.6802 39.41" stroke="#212B35"/>
</svg>
