<svg width="64" height="64" viewBox="0 0 64 64" fill="none" xmlns="http://www.w3.org/2000/svg">
<path d="M3.70067 13.5101L4.14618 13.7371L3.70067 13.5101ZM6.50935 10.7007L6.73634 11.1462L6.50935 10.7007ZM6.50935 54.2992L6.73634 53.8537L6.50935 54.2992ZM3.70067 51.4899L3.25517 51.7169L3.70067 51.4899ZM60.1572 51.4899L59.7117 51.2629L60.1572 51.4899ZM57.3465 54.2992L57.1195 53.8537L57.3465 54.2992ZM60.1572 13.5101L59.7117 13.7371L60.1572 13.5101ZM57.3465 10.7007L57.5735 10.2552L57.3465 10.7007ZM48 42.6429C48.2761 42.6429 48.5 42.419 48.5 42.1429C48.5 41.8667 48.2761 41.6429 48 41.6429V42.6429ZM31.9286 41.6429C31.6524 41.6429 31.4286 41.8667 31.4286 42.1429C31.4286 42.419 31.6524 42.6429 31.9286 42.6429V41.6429ZM16.1772 25.6873C15.9651 25.5105 15.6498 25.5392 15.473 25.7513C15.2962 25.9635 15.3249 26.2788 15.5371 26.4555L16.1772 25.6873ZM25.5 34.1071L25.8201 34.4913C25.9341 34.3963 26 34.2555 26 34.1071C26 33.9588 25.9341 33.818 25.8201 33.723L25.5 34.1071ZM15.5371 41.7587C15.3249 41.9355 15.2962 42.2508 15.473 42.4629C15.6498 42.6751 15.9651 42.7038 16.1772 42.527L15.5371 41.7587ZM60.3571 20.2858V44.7143H61.3571V20.2858H60.3571ZM50.5721 54.5H13.2863V55.5H50.5721V54.5ZM3.5 44.7143V20.2858H2.5V44.7143H3.5ZM13.2863 10.5H50.5721V9.5H13.2863V10.5ZM3.5 20.2858C3.5 18.4773 3.50039 17.1511 3.58592 16.1042C3.67098 15.0632 3.83774 14.3425 4.14618 13.7371L3.25517 13.2831C2.86293 14.0529 2.67936 14.9199 2.58924 16.0228C2.49961 17.1198 2.5 18.4938 2.5 20.2858H3.5ZM13.2863 9.5C11.4944 9.5 10.1201 9.49961 9.02269 9.58924C7.9195 9.67935 7.05219 9.86292 6.28235 10.2552L6.73634 11.1462C7.34165 10.8378 8.06267 10.671 9.1041 10.5859C10.1513 10.5004 11.4779 10.5 13.2863 10.5V9.5ZM4.14618 13.7371C4.71463 12.6215 5.62094 11.7145 6.73634 11.1462L6.28235 10.2552C4.97853 10.9195 3.91937 11.9796 3.25517 13.2831L4.14618 13.7371ZM13.2863 54.5C11.4779 54.5 10.1513 54.4996 9.10411 54.414C8.06268 54.3289 7.34166 54.1622 6.73634 53.8537L6.28235 54.7447C7.05218 55.137 7.91949 55.3206 9.02268 55.4107C10.1201 55.5004 11.4944 55.5 13.2863 55.5V54.5ZM2.5 44.7143C2.5 46.5062 2.49961 47.8802 2.58924 48.9773C2.67936 50.0802 2.86293 50.9471 3.25517 51.7169L4.14618 51.2629C3.83774 50.6576 3.67098 49.9369 3.58592 48.8958C3.50039 47.849 3.5 46.5227 3.5 44.7143H2.5ZM6.73634 53.8537C5.62092 53.2854 4.71462 52.3785 4.14618 51.2629L3.25517 51.7169C3.91938 53.0205 4.97855 54.0804 6.28235 54.7447L6.73634 53.8537ZM60.3571 44.7143C60.3571 46.5228 60.3569 47.849 60.2716 48.8959C60.1867 49.937 60.0201 50.6576 59.7117 51.2629L60.6027 51.7169C60.9949 50.947 61.1783 50.08 61.2682 48.9772C61.3577 47.8802 61.3571 46.5062 61.3571 44.7143H60.3571ZM50.5721 55.5C52.364 55.5 53.7377 55.5004 54.8344 55.4107C55.9371 55.3206 56.8037 55.1369 57.5735 54.7447L57.1195 53.8537C56.5141 54.1622 55.7937 54.3289 54.753 54.414C53.7064 54.4996 52.3805 54.5 50.5721 54.5V55.5ZM59.7117 51.2629C59.1434 52.3782 58.2352 53.2852 57.1195 53.8537L57.5735 54.7447C58.8769 54.0806 59.9383 53.0208 60.6027 51.7169L59.7117 51.2629ZM61.3571 20.2858C61.3571 18.4939 61.3577 17.1199 61.2682 16.0229C61.1783 14.92 60.9949 14.053 60.6027 13.2831L59.7117 13.7371C60.0201 14.3424 60.1867 15.0631 60.2716 16.1041C60.3569 17.1511 60.3571 18.4773 60.3571 20.2858H61.3571ZM50.5721 10.5C52.3805 10.5 53.7064 10.5004 54.753 10.5859C55.7937 10.671 56.5141 10.8377 57.1195 11.1462L57.5735 10.2552C56.8037 9.86295 55.9371 9.67936 54.8344 9.58925C53.7377 9.49961 52.364 9.5 50.5721 9.5V10.5ZM60.6027 13.2831C59.9383 11.9792 58.8769 10.9193 57.5735 10.2552L57.1195 11.1462C58.2352 11.7147 59.1434 12.6218 59.7117 13.7371L60.6027 13.2831ZM48 41.6429H31.9286V42.6429H48V41.6429ZM15.5371 26.4555L25.1799 34.4913L25.8201 33.723L16.1772 25.6873L15.5371 26.4555ZM25.1799 33.723L15.5371 41.7587L16.1772 42.527L25.8201 34.4913L25.1799 33.723Z" fill="#212B35"/>
<rect x="31.5" y="21.5" width="17" height="13" rx="1.5" fill="#212B35" fill-opacity="0.1" stroke="#212B35"/>
</svg>
