<svg width="64" height="64" viewBox="0 0 64 64" fill="none" xmlns="http://www.w3.org/2000/svg">
<path d="M31.5138 48.3987C31.6741 47.9377 32.3259 47.9377 32.4862 48.3987L33.2931 50.7201C33.3638 50.9234 33.5535 51.0613 33.7688 51.0657L36.2259 51.1157C36.7138 51.1257 36.9153 51.7457 36.5264 52.0405L34.5679 53.5253C34.3964 53.6553 34.3239 53.8784 34.3863 54.0845L35.0979 56.4368C35.2392 56.9039 34.7118 57.2871 34.3113 57.0083L32.294 55.6046C32.1173 55.4816 31.8827 55.4816 31.706 55.6046L29.6887 57.0083C29.2882 57.2871 28.7608 56.9039 28.9021 56.4368L29.6137 54.0845C29.6761 53.8784 29.6036 53.6553 29.4321 53.5253L27.4736 52.0405C27.0847 51.7457 27.2862 51.1257 27.7741 51.1157L30.2312 51.0657C30.4465 51.0613 30.6362 50.9234 30.7069 50.7201L31.5138 48.3987Z" fill="#212B35" fill-opacity="0.06" stroke="#212B35"/>
<path d="M17.5138 48.3987C17.6741 47.9377 18.3259 47.9377 18.4862 48.3987L19.2931 50.7201C19.3638 50.9234 19.5535 51.0613 19.7688 51.0657L22.2259 51.1157C22.7138 51.1257 22.9153 51.7457 22.5264 52.0405L20.5679 53.5253C20.3964 53.6553 20.3239 53.8784 20.3863 54.0845L21.0979 56.4368C21.2392 56.9039 20.7118 57.2871 20.3113 57.0083L18.294 55.6046C18.1173 55.4816 17.8827 55.4816 17.706 55.6046L15.6887 57.0083C15.2882 57.2871 14.7608 56.9039 14.9021 56.4368L15.6137 54.0845C15.6761 53.8784 15.6036 53.6553 15.4321 53.5253L13.4736 52.0405C13.0847 51.7457 13.2862 51.1257 13.7741 51.1157L16.2312 51.0657C16.4465 51.0613 16.6362 50.9234 16.7069 50.7201L17.5138 48.3987Z" fill="#212B35" fill-opacity="0.06" stroke="#212B35"/>
<path d="M45.5138 48.3987C45.6741 47.9377 46.3259 47.9377 46.4862 48.3987L47.2931 50.7201C47.3638 50.9234 47.5535 51.0613 47.7688 51.0657L50.2259 51.1157C50.7138 51.1257 50.9153 51.7457 50.5264 52.0405L48.5679 53.5253C48.3964 53.6553 48.3239 53.8784 48.3863 54.0845L49.0979 56.4368C49.2392 56.9039 48.7118 57.2871 48.3113 57.0083L46.294 55.6046C46.1173 55.4816 45.8827 55.4816 45.706 55.6046L43.6887 57.0083C43.2882 57.2871 42.7608 56.9039 42.9021 56.4368L43.6137 54.0845C43.6761 53.8784 43.6036 53.6553 43.4321 53.5253L41.4736 52.0405C41.0847 51.7457 41.2862 51.1257 41.7741 51.1157L44.2312 51.0657C44.4465 51.0613 44.6362 50.9234 44.7069 50.7201L45.5138 48.3987Z" fill="#212B35" fill-opacity="0.06" stroke="#212B35"/>
<path d="M46.5 38.3339C46.5 38.61 46.7239 38.8339 47 38.8339C47.2761 38.8339 47.5 38.61 47.5 38.3339H46.5ZM40.448 31.5599C40.1792 31.4965 39.91 31.6631 39.8467 31.9319C39.7833 32.2007 39.9499 32.4699 40.2187 32.5332L40.448 31.5599ZM36.5 38.334C36.5 38.6101 36.7239 38.834 37 38.834C37.2761 38.834 37.5 38.6101 37.5 38.334H36.5ZM16.5 38.334C16.5 38.6101 16.7239 38.834 17 38.834C17.2761 38.834 17.5 38.6101 17.5 38.334H16.5ZM37 26.1673C36.7239 26.1673 36.5 26.3912 36.5 26.6673C36.5 26.9435 36.7239 27.1673 37 27.1673V26.1673ZM37 12.834C36.7239 12.834 36.5 13.0578 36.5 13.334C36.5 13.6101 36.7239 13.834 37 13.834V12.834ZM47.5 38.3339C47.5 35.0817 44.4187 32.4955 40.448 31.5599L40.2187 32.5332C44.0159 33.428 46.5 35.7807 46.5 38.3339H47.5ZM37.5 38.334C37.5 36.2738 36.2475 34.4699 34.3484 33.2039C32.4459 31.9356 29.8464 31.1673 27 31.1673V32.1673C29.6765 32.1673 32.077 32.8915 33.7937 34.036C35.514 35.1828 36.5 36.7122 36.5 38.334H37.5ZM27 31.1673C24.1536 31.1673 21.5541 31.9356 19.6516 33.2039C17.7525 34.4699 16.5 36.2738 16.5 38.334H17.5C17.5 36.7122 18.486 35.1828 20.2063 34.036C21.923 32.8915 24.3235 32.1673 27 32.1673V31.1673ZM37 27.1673C40.958 27.1673 44.1667 23.9587 44.1667 20.0007H43.1667C43.1667 23.4064 40.4058 26.1673 37 26.1673V27.1673ZM44.1667 20.0007C44.1667 16.0426 40.958 12.834 37 12.834V13.834C40.4058 13.834 43.1667 16.5949 43.1667 20.0007H44.1667ZM27 26.1673C23.5942 26.1673 20.8333 23.4064 20.8333 20.0007H19.8333C19.8333 23.9587 23.042 27.1673 27 27.1673V26.1673ZM20.8333 20.0007C20.8333 16.5949 23.5942 13.834 27 13.834V12.834C23.042 12.834 19.8333 16.0426 19.8333 20.0007H20.8333ZM27 13.834C30.4058 13.834 33.1667 16.5949 33.1667 20.0007H34.1667C34.1667 16.0426 30.958 12.834 27 12.834V13.834ZM33.1667 20.0007C33.1667 23.4064 30.4058 26.1673 27 26.1673V27.1673C30.958 27.1673 34.1667 23.9587 34.1667 20.0007H33.1667Z" fill="#212B35"/>
</svg>
