<svg width="64" height="64" viewBox="0 0 64 64" fill="none" xmlns="http://www.w3.org/2000/svg">
<path d="M6 7.5H58C59.933 7.5 61.5 9.067 61.5 11V43C61.5 44.933 59.933 46.5 58 46.5H21.4454C21.0201 46.5 20.6149 46.6805 20.3304 46.9966L13.3716 54.7285C13.0651 55.0691 12.5 54.8523 12.5 54.394V48C12.5 47.1716 11.8284 46.5 11 46.5H10H6C4.067 46.5 2.5 44.933 2.5 43V11C2.5 9.067 4.067 7.5 6 7.5Z" stroke="#212B35"/>
<path d="M14.5138 21.3987C14.6741 20.9377 15.3259 20.9377 15.4862 21.3987L16.5282 24.3964C16.5989 24.5998 16.7887 24.7377 17.0039 24.742L20.177 24.8067C20.6649 24.8167 20.8663 25.4366 20.4774 25.7315L17.9484 27.6489C17.7768 27.7789 17.7043 28.002 17.7667 28.2081L18.6857 31.2458C18.827 31.7129 18.2996 32.0961 17.8991 31.8173L15.294 30.0046C15.1173 29.8816 14.8827 29.8816 14.706 30.0046L12.1009 31.8173C11.7004 32.0961 11.173 31.7129 11.3143 31.2458L12.2333 28.2081C12.2957 28.002 12.2232 27.7789 12.0516 27.6489L9.52257 25.7315C9.13369 25.4366 9.33514 24.8167 9.82304 24.8067L12.9961 24.742C13.2113 24.7377 13.4011 24.5998 13.4718 24.3964L14.5138 21.3987Z" fill="#212B35" fill-opacity="0.06" stroke="#212B35"/>
<path d="M31.5138 21.3987C31.6741 20.9377 32.3259 20.9377 32.4862 21.3987L33.5282 24.3964C33.5989 24.5998 33.7887 24.7377 34.0039 24.742L37.177 24.8067C37.6649 24.8167 37.8663 25.4366 37.4774 25.7315L34.9484 27.6489C34.7768 27.7789 34.7043 28.002 34.7667 28.2081L35.6857 31.2458C35.827 31.7129 35.2996 32.0961 34.8991 31.8173L32.294 30.0046C32.1173 29.8816 31.8827 29.8816 31.706 30.0046L29.1009 31.8173C28.7004 32.0961 28.173 31.7129 28.3143 31.2458L29.2333 28.2081C29.2957 28.002 29.2232 27.7789 29.0516 27.6489L26.5226 25.7315C26.1337 25.4366 26.3351 24.8167 26.823 24.8067L29.9961 24.742C30.2113 24.7377 30.4011 24.5998 30.4718 24.3964L31.5138 21.3987Z" fill="#212B35" fill-opacity="0.06" stroke="#212B35"/>
<path d="M48.5138 21.3987C48.6741 20.9377 49.3259 20.9377 49.4862 21.3987L50.5282 24.3964C50.5989 24.5998 50.7887 24.7377 51.0039 24.742L54.177 24.8067C54.6649 24.8167 54.8663 25.4366 54.4774 25.7315L51.9484 27.6489C51.7768 27.7789 51.7043 28.002 51.7667 28.2081L52.6857 31.2458C52.827 31.7129 52.2996 32.0961 51.8991 31.8173L49.294 30.0046C49.1173 29.8816 48.8827 29.8816 48.706 30.0046L46.1009 31.8173C45.7004 32.0961 45.173 31.7129 45.3143 31.2458L46.2333 28.2081C46.2957 28.002 46.2232 27.7789 46.0516 27.6489L43.5226 25.7315C43.1337 25.4366 43.3351 24.8167 43.823 24.8067L46.9961 24.742C47.2113 24.7377 47.4011 24.5998 47.4718 24.3964L48.5138 21.3987Z" fill="#212B35" fill-opacity="0.06" stroke="#212B35"/>
</svg>
