<svg width="60" height="60" viewBox="0 0 60 60" fill="none" xmlns="http://www.w3.org/2000/svg">
<path d="M36.4283 2.14258H6.42829C5.29165 2.14258 4.20156 2.59411 3.39783 3.39783C2.59411 4.20156 2.14258 5.29165 2.14258 6.42829V53.5711C2.14258 54.7078 2.59411 55.7979 3.39783 56.6016C4.20156 57.4053 5.29165 57.8569 6.42829 57.8569H53.5711C54.7078 57.8569 55.7979 57.4053 56.6016 56.6016C57.4053 55.7979 57.8569 54.7078 57.8569 53.5711V23.5711L36.4283 2.14258Z" stroke="#212B35" stroke-linecap="round" stroke-linejoin="round"/>
<path d="M36.4277 21.4283V2.14258L57.8563 23.5711H38.5706C38.0023 23.5711 37.4572 23.3454 37.0554 22.9435C36.6535 22.5417 36.4277 21.9966 36.4277 21.4283Z" fill="#212B35" fill-opacity="0.06" stroke="#212B35" stroke-linecap="round" stroke-linejoin="round"/>
<path d="M19.2852 19.286V12.8574" stroke="#212B35" stroke-linecap="round" stroke-linejoin="round"/>
<path d="M12.8574 36.428C12.8574 39.6423 15.7289 40.7137 19.286 40.7137C22.8431 40.7137 25.7146 40.7137 25.7146 36.428C25.7146 29.9994 12.8574 29.9994 12.8574 23.5709C12.8574 19.2852 15.7289 19.2852 19.286 19.2852C22.8431 19.2852 25.7146 20.9137 25.7146 23.5709" stroke="#212B35" stroke-linecap="round" stroke-linejoin="round"/>
<path d="M19.2852 40.7148V47.1434" stroke="#212B35" stroke-linecap="round" stroke-linejoin="round"/>
<path d="M36.4277 40.7148H49.2849" stroke="#212B35" stroke-linecap="round" stroke-linejoin="round"/>
</svg>
