<svg width="30" height="30" viewBox="0 0 30 30" fill="none" xmlns="http://www.w3.org/2000/svg">
<path d="M16 19.2267L9.57141 20.3839L10.6428 13.8696L22.9214 1.63385C23.1206 1.43301 23.3576 1.27359 23.6187 1.1648C23.8799 1.05601 24.16 1 24.4428 1C24.7257 1 25.0058 1.05601 25.2669 1.1648C25.5281 1.27359 25.7651 1.43301 25.9643 1.63385L28.2357 3.90528C28.4365 4.10449 28.596 4.34149 28.7047 4.60262C28.8135 4.86374 28.8695 5.14383 28.8695 5.42671C28.8695 5.70959 28.8135 5.98968 28.7047 6.2508C28.596 6.51193 28.4365 6.74893 28.2357 6.94814L16 19.2267Z" stroke="#E7B900" stroke-width="1.71429" stroke-linecap="round" stroke-linejoin="round"/>
<path d="M25.6429 20.298V26.7266C25.6429 27.2949 25.4171 27.8399 25.0152 28.2418C24.6134 28.6437 24.0683 28.8694 23.5 28.8694H3.14286C2.57454 28.8694 2.02949 28.6437 1.62763 28.2418C1.22576 27.8399 1 27.2949 1 26.7266V6.36942C1 5.8011 1.22576 5.25605 1.62763 4.85419C2.02949 4.45233 2.57454 4.22656 3.14286 4.22656H9.57143" stroke="#E7B900" stroke-width="1.71429" stroke-linecap="round" stroke-linejoin="round"/>
</svg>
