<svg width="172" height="64" viewBox="0 0 172 64" fill="none" xmlns="http://www.w3.org/2000/svg">
<path fill-rule="evenodd" clip-rule="evenodd" d="M54.4072 17H5.56845C2.47769 17 -0.024351 19.4539 0.000178838 22.4318V40.538C0.000178838 43.5397 2.50222 45.9698 5.59298 45.9698H28.7245L39.297 51.6875L36.893 45.9698H54.4072C57.4981 45.9698 60 43.5397 60 40.538V22.4318C60 19.43 57.4981 17 54.4072 17ZM4.5383 21.193C3.85146 21.2406 3.33633 21.4789 2.99291 21.9315C2.6495 22.3604 2.52686 22.9083 2.60044 23.5277C4.0477 32.4617 5.39683 38.4891 6.64786 41.6101C7.13846 42.7535 7.70264 43.3016 8.36495 43.254C9.39519 43.1824 10.6217 41.8007 12.0689 39.1086C12.8294 37.5837 14.0068 35.2968 15.6012 32.2472C16.9258 36.7499 18.741 40.133 21.0223 42.3962C21.6602 43.0395 22.3224 43.3254 22.9601 43.2777C23.5244 43.2301 23.9658 42.9441 24.2602 42.42C24.5055 41.9674 24.6037 41.4432 24.5546 40.8476C24.4074 38.6797 24.6283 35.6541 25.2415 31.7708C25.8791 27.7684 26.6642 24.8857 27.6208 23.1704C27.8171 22.813 27.8906 22.4556 27.8661 22.0268C27.8171 21.4789 27.5718 21.0262 27.1057 20.6689C26.6397 20.3115 26.1245 20.1448 25.5603 20.1924C24.849 20.24 24.3093 20.5736 23.9414 21.2406C22.4206 23.9327 21.3412 28.2925 20.7035 34.3437C19.7713 32.0567 18.9863 29.3646 18.3731 26.196C18.1033 24.7904 17.441 24.1233 16.3616 24.1948C15.6258 24.2424 15.0125 24.7189 14.5219 25.6242L9.1499 35.5588C8.26682 32.1043 7.43281 27.8875 6.67239 22.9083C6.50068 21.6695 5.78931 21.0977 4.5383 21.193ZM51.8072 22.9084C53.5489 23.2658 54.849 24.1711 55.732 25.672C56.517 26.9584 56.9093 28.507 56.9093 30.3653C56.9093 32.8191 56.2717 35.0585 54.996 37.1074C53.5243 39.4898 51.6109 40.6809 49.2316 40.6809C48.8146 40.6809 48.3731 40.6333 47.9069 40.538C46.1654 40.1807 44.8653 39.2754 43.9821 37.7745C43.1973 36.4642 42.8048 34.8918 42.8048 33.0573C42.8048 30.6035 43.4426 28.364 44.7181 26.339C46.2144 23.9566 48.1278 22.7654 50.4826 22.7654C50.8996 22.7654 51.3412 22.8131 51.8072 22.9084ZM50.777 35.797C51.6846 35.0109 52.2978 33.8435 52.6413 32.2711C52.7394 31.7232 52.8129 31.1276 52.8129 30.5082C52.8129 29.8173 52.6657 29.0788 52.3713 28.3402C52.0035 27.4111 51.5128 26.9108 50.9241 26.7917C50.0411 26.6249 49.1825 27.1014 48.3731 28.2688C47.7108 29.1741 47.2937 30.127 47.073 31.1038C46.9502 31.6517 46.9012 32.2474 46.9012 32.843C46.9012 33.5338 47.0484 34.2723 47.3427 35.0109C47.7108 35.94 48.2013 36.4403 48.79 36.5595C49.4032 36.6785 50.0655 36.4165 50.777 35.797ZM40.3518 25.672C39.4686 24.1711 38.1441 23.2658 36.427 22.9084C35.9608 22.8131 35.5194 22.7654 35.1023 22.7654C32.7475 22.7654 30.8342 23.9566 29.3379 26.339C28.0622 28.364 27.4246 30.6035 27.4246 33.0573C27.4246 34.8918 27.8171 36.4642 28.6019 37.7745C29.4851 39.2754 30.7852 40.1807 32.5267 40.538C32.9927 40.6333 33.4343 40.6809 33.8514 40.6809C36.2307 40.6809 38.1441 39.4898 39.6158 37.1074C40.8914 35.0585 41.5291 32.8191 41.5291 30.3653C41.5291 28.507 41.1366 26.9584 40.3518 25.672ZM37.2609 32.2711C36.9176 33.8435 36.3043 35.0109 35.3967 35.797C34.6853 36.4165 34.023 36.6785 33.4098 36.5595C32.8211 36.4403 32.3304 35.94 31.9625 35.0109C31.6682 34.2723 31.521 33.5338 31.521 32.843C31.521 32.2474 31.57 31.6517 31.6928 31.1038C31.9135 30.127 32.3304 29.1741 32.9927 28.2688C33.8023 27.1014 34.6609 26.6249 35.5439 26.7917C36.1326 26.9108 36.6232 27.4111 36.9911 28.3402C37.2855 29.0788 37.4327 29.8173 37.4327 30.5082C37.4327 31.1276 37.3837 31.7232 37.2609 32.2711Z" fill="#7F54B3"/>
<path d="M139.424 5L116 18.5109V45.4973L122.687 49.3601L122.639 22.3678L139.376 12.7138L156.113 22.3678V49.3483L162.8 45.4973V18.4873L139.424 5Z" fill="#F26322"/>
<path d="M142.74 49.3516L139.4 51.2919L136.042 49.3693V22.3652L129.361 26.2221L129.373 53.2144L139.394 58.9997L149.427 53.2144V26.2221L142.74 22.3652V49.3516Z" fill="#F26322"/>
<path d="M76 31.5C75.7239 31.5 75.5 31.7239 75.5 32C75.5 32.2761 75.7239 32.5 76 32.5V31.5ZM76 32.5H96V31.5H76V32.5Z" fill="#212B35"/>
<path d="M89 25L96 32L89 39" stroke="#212B35" stroke-linecap="round" stroke-linejoin="round"/>
</svg>
