<svg width="60" height="60" viewBox="0 0 60 60" fill="none" xmlns="http://www.w3.org/2000/svg">
<g clip-path="url(#clip0_5340_29283)">
<path d="M55.7923 55.9999H3.97514C3.26587 55.9999 3.01391 55.7524 3.0118 55.071C3.0118 54.704 3.0118 54.3371 3.0118 53.9701C3.01709 53.2363 3.02239 52.4657 2.99592 51.7129C2.98438 51.5842 2.99966 51.4545 3.04082 51.3319C3.08197 51.2092 3.14812 51.0963 3.23517 51C3.32372 50.9156 3.42874 50.8501 3.54379 50.8073C3.65884 50.7646 3.78148 50.7456 3.90421 50.7515H3.9942C4.21333 50.7641 4.4494 50.7714 4.73523 50.7714C4.92895 50.7714 5.1248 50.7714 5.32382 50.7652C5.52284 50.7589 5.74726 50.7589 5.95899 50.7589H6.06485V25.8403C6.06485 25.7942 6.06485 25.748 6.06485 25.7019C6.06485 25.6254 6.06485 25.5488 6.06485 25.4734V25.4104L6.0098 25.38C5.24278 24.9509 4.58247 24.3571 4.07726 23.6424C3.57206 22.9276 3.23477 22.1099 3.09013 21.2493C2.9475 20.3661 3.00133 19.4626 3.24787 18.6021C3.60992 17.2783 3.97302 15.9552 4.33719 14.6328C4.86014 12.7299 5.4011 10.7621 5.92511 8.82568C6.00978 8.49777 6.05351 8.16081 6.05532 7.82235C6.06485 7.23524 6.06379 6.6387 6.06273 6.06103C6.06273 5.66997 6.06273 5.27891 6.06273 4.88681C6.06273 4.25147 6.30833 4.01139 6.95408 4.00195H52.7255H52.9859C53.0388 4.00195 53.0918 4.00195 53.1436 4.00195C53.6634 4.02397 53.9185 4.28188 53.9238 4.78826C53.9302 5.25375 53.9238 5.73183 53.9238 6.18474C53.9238 6.72362 53.9238 7.28032 53.9302 7.82759C53.9338 8.16619 53.979 8.5031 54.0646 8.83092C55.0735 12.5496 55.9204 15.6393 56.7292 18.557C57.2489 20.4274 56.9673 22.1426 55.8939 23.6523C55.3938 24.3601 54.7388 24.9471 53.9778 25.3696L53.9228 25.4V25.4629C53.9228 25.5593 53.9228 25.6558 53.9228 25.7522V50.761H56.0167C56.7175 50.761 56.979 51.0168 56.9811 51.6919C56.9811 52.9888 56.9811 54.0718 56.9811 55.0982C56.9811 55.7273 56.7217 55.9873 56.0929 55.9978H55.7753L55.7923 55.9999ZM4.49704 52.3682C4.48751 53.0549 4.48645 53.7206 4.49704 54.4063V54.5111H55.4916L55.499 54.4136C55.499 54.378 55.499 54.3455 55.5075 54.3088C55.5128 54.2469 55.5181 54.1872 55.5181 54.1274C55.5181 53.6923 55.5181 53.2572 55.5181 52.8064V52.2602H4.4981L4.49704 52.3682ZM38.5231 31.0802C38.4172 31.6233 38.4405 50.2976 38.5453 50.6697L38.5675 50.7463H47.8834V30.9953H38.5347L38.5231 31.0802ZM7.55114 26.0898C7.55114 32.352 7.55114 39.4319 7.55114 45.9582V50.7274H36.9521C36.9521 50.7274 36.9574 50.5062 36.9595 50.4443C36.9595 50.3091 36.969 50.1707 36.969 50.0323C36.969 44.9196 36.969 39.8068 36.969 34.6941V30.794C36.969 30.7458 36.969 30.6976 36.969 30.6504C36.969 30.5267 36.969 30.3988 36.969 30.2751C36.9923 29.8043 37.2125 29.5674 37.6815 29.5066C37.7447 29.4996 37.8084 29.4964 37.872 29.4971H48.3068C48.4746 29.4915 48.6424 29.5038 48.8075 29.5338C49.178 29.6167 49.357 29.8243 49.3877 30.208C49.4004 30.3537 49.3993 30.5047 49.3982 30.6514V30.7762C49.3982 37.1715 49.3982 50.7232 49.3982 50.7232H52.4502V25.9598L52.3232 25.986C51.9223 26.0682 51.5141 26.1096 51.1047 26.1097C50.1855 26.1134 49.2782 25.903 48.4562 25.4954C47.6342 25.0878 46.9205 24.4945 46.3727 23.7634L46.1991 23.5359L46.0011 23.278L45.9207 23.409C44.6503 25.466 42.9566 26.4914 40.7398 26.5438H40.5704C38.4183 26.5438 36.7266 25.5918 35.4012 23.6334L35.3123 23.5034L35.2244 23.6344C33.9308 25.5709 32.1703 26.5532 29.9938 26.5532C27.7961 26.5532 26.0896 25.5918 24.7674 23.625L24.6764 23.4898L24.5896 23.6271C23.4378 25.4587 21.491 26.5532 19.3822 26.5532C17.1973 26.5532 15.2145 25.3842 14.0765 23.4279L13.9981 23.2948L13.816 23.5212C13.7567 23.5936 13.7017 23.6617 13.6477 23.7309C12.4229 25.3129 10.8466 26.116 8.96334 26.116C8.7982 26.116 8.62776 26.1097 8.45838 26.0972C8.19415 26.0794 7.93139 26.0444 7.67183 25.9923L7.54479 25.9671L7.55114 26.0898ZM26.0769 9.32787C26.0677 9.40545 26.0582 9.48094 26.0483 9.55433C26.0282 9.71473 26.0081 9.86884 26.0007 10.0198C25.9478 11.0361 25.8963 12.0523 25.8462 13.0686C25.7812 14.3539 25.7156 15.6386 25.6492 16.9225C25.6302 17.279 25.6048 17.6407 25.5794 17.9909C25.5413 18.5318 25.501 19.0917 25.4862 19.6432V19.7805C25.4703 20.3833 25.4523 21.0061 25.5847 21.5921C25.952 23.2298 26.9958 24.3631 28.6038 24.8705C29.0869 25.0269 29.5914 25.1086 30.0997 25.1127C31.1583 25.1127 32.128 24.7321 32.9992 23.9825C34.1711 22.9719 34.6739 21.6163 34.5342 19.8382C34.4368 18.5885 34.3712 17.3136 34.3066 16.0817L34.2494 14.9788C34.2036 14.1352 34.1602 13.2905 34.1192 12.4448C34.0811 11.6857 34.0423 10.9267 34.0028 10.1676C33.9922 9.97788 33.97 9.79336 33.9456 9.59731C33.935 9.50924 33.9244 9.41908 33.9139 9.32787L33.9043 9.23456H26.0917L26.0769 9.32787ZM35.433 9.34988C35.4626 9.85522 35.4923 10.3557 35.5219 10.8512C35.5875 11.9552 35.65 12.9973 35.7071 14.0604C35.7587 15.0389 35.8088 16.0174 35.8575 16.9959C35.9189 18.2257 35.9824 19.4974 36.0523 20.7471C36.1909 23.2256 38.1293 25.0949 40.562 25.0949C40.9471 25.0943 41.3307 25.0471 41.7042 24.9544C43.7696 24.4438 45.1362 22.672 45.1045 20.5437C45.0794 19.9611 45.0061 19.3815 44.8854 18.8107C44.8483 18.6084 44.8113 18.405 44.7795 18.2026C44.5604 16.8491 44.3328 15.4768 44.1126 14.1432L43.3017 9.23561H35.4266L35.433 9.34988ZM16.4837 10.608C16.3334 11.5127 16.1842 12.4102 16.037 13.3076L15.8253 14.5772C15.5956 15.9685 15.3584 17.4079 15.1351 18.8243C15.115 18.9481 15.0938 19.0718 15.0737 19.1955C14.9562 19.8874 14.8355 20.6035 14.9583 21.3447C15.3119 23.4835 17.21 25.0959 19.3748 25.0959C19.6819 25.0951 19.9881 25.0653 20.2895 25.0068C22.413 24.6021 23.856 22.91 23.966 20.6958C24.0634 18.7468 24.1778 16.434 24.3059 14.0593C24.3313 13.597 24.363 13.1283 24.3927 12.6744C24.4212 12.255 24.4509 11.822 24.4742 11.3953C24.5006 10.9288 24.5176 10.4706 24.5356 9.98627C24.5441 9.77659 24.5515 9.5669 24.561 9.34674V9.2419H16.705L16.4837 10.608ZM44.8292 9.36666C44.8515 9.49876 44.8748 9.62562 44.897 9.74933C44.9415 9.9999 44.9838 10.2389 45.023 10.4832C45.2432 11.8294 45.4627 13.1755 45.6814 14.5217C46.0343 16.6821 46.3872 18.8429 46.7401 21.004C46.9186 22.0219 47.4529 22.9452 48.2495 23.6124C49.046 24.2796 50.0541 24.6481 51.0973 24.6535C51.5009 24.6536 51.9025 24.5974 52.2904 24.4868C54.6754 23.8106 55.9955 21.4999 55.353 19.1127C54.7527 16.8722 54.126 14.6045 53.5205 12.4028C53.2763 11.518 53.0325 10.6324 52.789 9.74618C52.7604 9.64134 52.7286 9.54489 52.6969 9.44844C52.6821 9.4065 52.6693 9.36456 52.6566 9.32472L52.6334 9.25133H44.8081L44.8292 9.36666ZM7.37436 9.3048C7.36165 9.33311 7.34789 9.35827 7.33625 9.38238C7.30894 9.43058 7.28693 9.48155 7.27061 9.53441C6.41631 12.6629 5.53237 15.8982 4.66218 19.1064C4.48059 19.7446 4.45267 20.4161 4.58067 21.0669C4.99459 23.1385 6.81117 24.6451 8.89982 24.6483C9.93818 24.6506 10.9444 24.2914 11.7424 23.6335C12.5404 22.9756 13.0796 22.0608 13.2656 21.0491C13.3989 20.3225 13.5154 19.5813 13.6276 18.8652C13.689 18.4752 13.7511 18.0852 13.8139 17.6952C13.9649 16.7761 14.117 15.8563 14.2702 14.9358L14.718 12.232C14.8238 11.5903 14.9297 10.9477 15.0356 10.2934L15.2049 9.24504H7.39976L7.37436 9.3048ZM7.59455 7.70388H52.4418V5.50013H7.59137L7.59455 7.70388Z" fill="#212B35"/>
<path d="M12.7242 42.9949C12.6438 42.9949 12.5803 42.9949 12.522 42.9866C12.0795 42.9394 11.8212 42.672 11.7969 42.2244C11.7969 42.1531 11.7969 42.0818 11.7969 42.0063V39.8539C11.7969 36.752 11.7969 33.6498 11.7969 30.5472C11.7969 29.7242 12.0255 29.4988 12.8555 29.4988H31.9561C32.1071 29.495 32.2582 29.5059 32.4071 29.5313C32.7638 29.6047 32.9565 29.806 32.9978 30.1467C33.017 30.3159 33.0266 30.486 33.0264 30.6562C33.0264 33.7539 33.0264 36.852 33.0264 39.9504V41.9203C33.0158 42.7832 32.7998 42.9939 31.9233 42.9939H12.9868H12.8523L12.7242 42.9949ZM13.3086 31.1018C13.2027 32.2551 13.2535 41.0281 13.3615 41.4171L13.3837 41.4947H31.5073V31.0106H13.316L13.3086 31.1018Z" fill="#E7B900"/>
</g>
<defs>
<clipPath id="clip0_5340_29283">
<rect width="54" height="52" fill="white" transform="translate(3 4)"/>
</clipPath>
</defs>
</svg>
