<svg width="60" height="60" viewBox="0 0 60 60" fill="none" xmlns="http://www.w3.org/2000/svg">
<path d="M29.9997 57.8569C45.3848 57.8569 57.8569 45.3848 57.8569 29.9997C57.8569 14.6146 45.3848 2.14258 29.9997 2.14258C14.6146 2.14258 2.14258 14.6146 2.14258 29.9997C2.14258 45.3848 14.6146 57.8569 29.9997 57.8569Z" stroke="#212B35" stroke-linecap="round" stroke-linejoin="round"/>
<path d="M2.14258 30H57.8569" stroke="#212B35" stroke-linecap="round" stroke-linejoin="round"/>
<path d="M40.7137 29.9997C40.1874 40.1868 36.4352 49.9426 29.9994 57.8569C23.5637 49.9426 19.8114 40.1868 19.2852 29.9997C19.8114 19.8126 23.5637 10.0568 29.9994 2.14258C36.4352 10.0568 40.1874 19.8126 40.7137 29.9997V29.9997Z" stroke="#212B35" stroke-linecap="round" stroke-linejoin="round"/>
<path fill-rule="evenodd" clip-rule="evenodd" d="M46.1446 44.1211L51.8084 49.8227L58.4394 45.7415C59.3082 45.2066 59.1321 43.887 58.1533 43.6029L42.4978 39.0474C41.6075 38.7898 40.7844 39.6245 41.051 40.5189L45.696 56.1582C45.987 57.1369 47.2918 57.3064 47.8191 56.4325L51.8084 49.8227" fill="#E9E9E9"/>
<path d="M46.1446 44.1211L51.8084 49.8227L58.4394 45.7415C59.3082 45.2066 59.1321 43.887 58.1533 43.6029L42.4978 39.0474C41.6075 38.7898 40.7844 39.6245 41.051 40.5189L45.696 56.1582C45.987 57.1369 47.2918 57.3064 47.8191 56.4325L51.8084 49.8227" stroke="#212B35" stroke-linecap="round" stroke-linejoin="round"/>
</svg>
